G04 #@! TF.FileFunction,Copper,L1,Top,Signal*
%FSLAX46Y46*%
G04 Gerber Fmt 4.6, Leading zero omitted, Abs format (unit mm)*
G04 Created by KiCad (PCBNEW 4.0.7-e2-6376~58~ubuntu14.04.1) date Mon Mar 25 04:59:34 2019*
%MOMM*%
%LPD*%
G01*
G04 APERTURE LIST*
%ADD10C,0.100000*%
%ADD11R,1.600000X1.600000*%
%ADD12O,1.600000X1.600000*%
%ADD13O,1.600000X2.300000*%
%ADD14R,0.800000X1.900000*%
%ADD15R,2.000000X3.800000*%
%ADD16R,2.000000X1.500000*%
%ADD17R,3.200000X1.500000*%
%ADD18R,1.600000X0.550000*%
%ADD19R,0.550000X1.600000*%
%ADD20C,1.500000*%
%ADD21R,2.300000X0.500000*%
%ADD22R,2.500000X2.000000*%
%ADD23C,1.400000*%
%ADD24O,1.400000X1.400000*%
%ADD25R,1.700000X1.400000*%
%ADD26R,1.400000X1.700000*%
%ADD27R,1.700000X1.700000*%
%ADD28O,1.700000X1.700000*%
%ADD29R,1.700000X3.300000*%
%ADD30R,1.800000X1.800000*%
%ADD31C,1.800000*%
%ADD32C,1.700000*%
%ADD33C,0.600000*%
%ADD34C,0.250000*%
%ADD35C,0.254000*%
G04 APERTURE END LIST*
D10*
D11*
X173900000Y-95800000D03*
D12*
X181520000Y-103420000D03*
X173900000Y-98340000D03*
X181520000Y-100880000D03*
X173900000Y-100880000D03*
X181520000Y-98340000D03*
X173900000Y-103420000D03*
X181520000Y-95800000D03*
D13*
X165800000Y-86600000D03*
X163260000Y-86600000D03*
X160720000Y-86600000D03*
X158180000Y-86600000D03*
X155640000Y-86600000D03*
X155640000Y-94220000D03*
X158180000Y-94220000D03*
X160720000Y-94220000D03*
X163260000Y-94220000D03*
X165800000Y-94220000D03*
D14*
X174250000Y-85400000D03*
X172350000Y-85400000D03*
X173300000Y-88400000D03*
D15*
X184850000Y-103500000D03*
D16*
X191150000Y-103500000D03*
X191150000Y-101200000D03*
X191150000Y-105800000D03*
D11*
X168400000Y-102250000D03*
X168400000Y-99950000D03*
X170050000Y-106200000D03*
X167750000Y-106200000D03*
X174750000Y-93200000D03*
X177050000Y-93200000D03*
D17*
X195900000Y-103400000D03*
X199900000Y-103400000D03*
D11*
X198250000Y-105900000D03*
X195950000Y-105900000D03*
X177550000Y-88600000D03*
X179850000Y-88600000D03*
X209350000Y-85300000D03*
X207050000Y-85300000D03*
X204450000Y-85300000D03*
X202150000Y-85300000D03*
D18*
X199450000Y-96200000D03*
X199450000Y-95400000D03*
X199450000Y-94600000D03*
X199450000Y-93800000D03*
X199450000Y-93000000D03*
X199450000Y-92200000D03*
X199450000Y-91400000D03*
X199450000Y-90600000D03*
D19*
X198000000Y-89150000D03*
X197200000Y-89150000D03*
X196400000Y-89150000D03*
X195600000Y-89150000D03*
X194800000Y-89150000D03*
X194000000Y-89150000D03*
X193200000Y-89150000D03*
X192400000Y-89150000D03*
D18*
X190950000Y-90600000D03*
X190950000Y-91400000D03*
X190950000Y-92200000D03*
X190950000Y-93000000D03*
X190950000Y-93800000D03*
X190950000Y-94600000D03*
X190950000Y-95400000D03*
X190950000Y-96200000D03*
D19*
X192400000Y-97650000D03*
X193200000Y-97650000D03*
X194000000Y-97650000D03*
X194800000Y-97650000D03*
X195600000Y-97650000D03*
X196400000Y-97650000D03*
X197200000Y-97650000D03*
X198000000Y-97650000D03*
D20*
X209400000Y-89200000D03*
X204520000Y-89200000D03*
D21*
X210300000Y-99600000D03*
X210300000Y-98800000D03*
X210300000Y-98000000D03*
X210300000Y-97200000D03*
X210300000Y-96400000D03*
D22*
X210400000Y-102450000D03*
X215900000Y-102450000D03*
X210400000Y-93550000D03*
X215900000Y-93550000D03*
D23*
X174000000Y-91000000D03*
D24*
X181620000Y-91000000D03*
D25*
X206600000Y-93800000D03*
X206600000Y-96200000D03*
D26*
X204400000Y-98600000D03*
X202000000Y-98600000D03*
X204400000Y-96200000D03*
X202000000Y-96200000D03*
D25*
X171300000Y-103700000D03*
X171300000Y-101300000D03*
X184100000Y-95800000D03*
X184100000Y-98200000D03*
X171300000Y-98100000D03*
X171300000Y-95700000D03*
D26*
X176500000Y-85300000D03*
X178900000Y-85300000D03*
D27*
X189100000Y-85700000D03*
D28*
X189100000Y-88240000D03*
X186560000Y-85700000D03*
X186560000Y-88240000D03*
X184020000Y-85700000D03*
X184020000Y-88240000D03*
D26*
X181800000Y-93200000D03*
X179400000Y-93200000D03*
D29*
X169900000Y-87250000D03*
X169900000Y-92750000D03*
D27*
X153000000Y-98000000D03*
D28*
X153000000Y-100540000D03*
D30*
X206200000Y-106700000D03*
D31*
X206200000Y-104160000D03*
D26*
X201400000Y-106700000D03*
X203800000Y-106700000D03*
D32*
X156800000Y-97300000D03*
X164800000Y-97300000D03*
D33*
X175300000Y-88600000D03*
X159600000Y-101700000D03*
X187300000Y-92100000D03*
X193700000Y-85900000D03*
X198700000Y-85300000D03*
X194100000Y-93000000D03*
X197500000Y-93000000D03*
X188500000Y-105800000D03*
X175800000Y-104300000D03*
X192600000Y-90700000D03*
X178300000Y-95000000D03*
X186300000Y-95400000D03*
X192700000Y-95400000D03*
X193100000Y-106200000D03*
X208300000Y-98800000D03*
X208300000Y-96600000D03*
X192800000Y-87300000D03*
X186400000Y-92900000D03*
X187700000Y-94200000D03*
X195400000Y-96200000D03*
X197700000Y-99700000D03*
D34*
X169900000Y-92750000D02*
X167270000Y-92750000D01*
X167270000Y-92750000D02*
X165800000Y-94220000D01*
X173300000Y-88400000D02*
X172700000Y-88400000D01*
X171800000Y-90850000D02*
X169900000Y-92750000D01*
X171800000Y-89300000D02*
X171800000Y-90850000D01*
X172700000Y-88400000D02*
X171800000Y-89300000D01*
X177550000Y-88600000D02*
X175300000Y-88600000D01*
X153000000Y-100540000D02*
X158440000Y-100540000D01*
X158440000Y-100540000D02*
X159600000Y-101700000D01*
X184020000Y-88240000D02*
X184020000Y-91520000D01*
X187100000Y-91900000D02*
X187300000Y-92100000D01*
X184400000Y-91900000D02*
X187100000Y-91900000D01*
X184020000Y-91520000D02*
X184400000Y-91900000D01*
X202150000Y-85300000D02*
X198700000Y-85300000D01*
X199450000Y-94600000D02*
X195700000Y-94600000D01*
X195700000Y-94600000D02*
X194100000Y-93000000D01*
X199450000Y-93000000D02*
X197500000Y-93000000D01*
X191150000Y-105800000D02*
X188500000Y-105800000D01*
X206600000Y-93800000D02*
X199450000Y-93800000D01*
X183100000Y-95800000D02*
X182750000Y-95450000D01*
X182750000Y-95050000D02*
X182750000Y-95450000D01*
X182300000Y-94600000D02*
X181520000Y-94600000D01*
X182750000Y-95050000D02*
X182300000Y-94600000D01*
X183100000Y-95800000D02*
X184100000Y-95800000D01*
X181520000Y-95800000D02*
X181520000Y-94600000D01*
X184100000Y-95800000D02*
X183500000Y-95800000D01*
X181520000Y-94600000D02*
X180600000Y-94600000D01*
X179850000Y-91150000D02*
X180600000Y-91900000D01*
X180600000Y-91900000D02*
X180600000Y-94600000D01*
X179850000Y-88600000D02*
X179850000Y-91150000D01*
X175800000Y-104300000D02*
X175800000Y-106100000D01*
X186900000Y-103500000D02*
X186900000Y-105400000D01*
X186900000Y-105400000D02*
X186200000Y-106100000D01*
X186200000Y-106100000D02*
X175800000Y-106100000D01*
X173700000Y-106100000D02*
X171300000Y-103700000D01*
X175800000Y-106100000D02*
X173700000Y-106100000D01*
X189000000Y-103500000D02*
X189000000Y-91700000D01*
X189300000Y-91400000D02*
X190950000Y-91400000D01*
X189000000Y-91700000D02*
X189300000Y-91400000D01*
X191150000Y-103500000D02*
X189000000Y-103500000D01*
X189000000Y-103500000D02*
X186900000Y-103500000D01*
X186900000Y-103500000D02*
X184850000Y-103500000D01*
X171300000Y-103700000D02*
X171800000Y-103700000D01*
X192600000Y-90700000D02*
X192600000Y-91400000D01*
X196000000Y-92200000D02*
X196000000Y-93100000D01*
X196700000Y-93800000D02*
X199450000Y-93800000D01*
X196000000Y-93100000D02*
X196700000Y-93800000D01*
X199450000Y-92200000D02*
X196000000Y-92200000D01*
X195200000Y-91400000D02*
X194000000Y-91400000D01*
X196000000Y-92200000D02*
X195200000Y-91400000D01*
X194000000Y-91400000D02*
X192600000Y-91400000D01*
X192600000Y-91400000D02*
X190950000Y-91400000D01*
X184200000Y-95700000D02*
X184100000Y-95800000D01*
X171300000Y-99700000D02*
X168650000Y-99700000D01*
X168650000Y-99700000D02*
X168400000Y-99950000D01*
X172600000Y-98100000D02*
X172600000Y-99000000D01*
X172600000Y-99000000D02*
X172920000Y-99320000D01*
X171300000Y-99700000D02*
X172540000Y-99700000D01*
X172540000Y-99700000D02*
X172920000Y-99320000D01*
X172920000Y-99320000D02*
X173900000Y-98340000D01*
X171300000Y-98100000D02*
X171300000Y-99700000D01*
X171300000Y-99700000D02*
X171300000Y-101300000D01*
X172600000Y-96200000D02*
X172600000Y-98100000D01*
X173660000Y-98100000D02*
X173900000Y-98340000D01*
X174000000Y-91000000D02*
X173700000Y-91000000D01*
X173700000Y-91000000D02*
X172600000Y-92100000D01*
X172600000Y-92100000D02*
X172600000Y-96200000D01*
X178300000Y-93200000D02*
X178300000Y-95000000D01*
X179400000Y-93200000D02*
X178300000Y-93200000D01*
X178300000Y-93200000D02*
X177050000Y-93200000D01*
X179300000Y-93100000D02*
X179400000Y-93200000D01*
X199450000Y-95400000D02*
X192700000Y-95400000D01*
X186300000Y-95400000D02*
X185800000Y-95400000D01*
X184100000Y-98200000D02*
X181660000Y-98200000D01*
X181660000Y-98200000D02*
X181520000Y-98340000D01*
X181620000Y-91000000D02*
X181620000Y-93020000D01*
X181620000Y-93020000D02*
X181800000Y-93200000D01*
X181800000Y-93200000D02*
X184500000Y-93200000D01*
X185800000Y-96500000D02*
X184100000Y-98200000D01*
X185800000Y-94500000D02*
X185800000Y-95400000D01*
X185800000Y-95400000D02*
X185800000Y-96500000D01*
X184500000Y-93200000D02*
X185800000Y-94500000D01*
X184100000Y-98200000D02*
X183800000Y-98200000D01*
X181800000Y-93200000D02*
X182500000Y-93200000D01*
X183960000Y-98340000D02*
X184100000Y-98200000D01*
X183960000Y-98340000D02*
X184100000Y-98200000D01*
X164800000Y-97300000D02*
X163260000Y-97300000D01*
X168400000Y-102250000D02*
X163260000Y-102250000D01*
X163260000Y-94220000D02*
X163260000Y-97300000D01*
X163260000Y-97300000D02*
X163260000Y-102250000D01*
X163260000Y-102250000D02*
X163260000Y-103360000D01*
X166100000Y-106200000D02*
X167750000Y-106200000D01*
X163260000Y-103360000D02*
X166100000Y-106200000D01*
X193100000Y-106200000D02*
X193750000Y-105550000D01*
X195900000Y-103400000D02*
X193300000Y-103400000D01*
X193300000Y-101200000D02*
X193300000Y-103400000D01*
X193300000Y-103400000D02*
X193300000Y-105100000D01*
X194100000Y-105900000D02*
X195950000Y-105900000D01*
X193300000Y-105100000D02*
X193750000Y-105550000D01*
X193750000Y-105550000D02*
X194100000Y-105900000D01*
X210300000Y-99600000D02*
X209000000Y-99600000D01*
X207400000Y-101200000D02*
X193300000Y-101200000D01*
X193300000Y-101200000D02*
X191150000Y-101200000D01*
X209000000Y-99600000D02*
X207400000Y-101200000D01*
X169900000Y-87250000D02*
X166450000Y-87250000D01*
X166450000Y-87250000D02*
X165800000Y-86600000D01*
X209400000Y-89200000D02*
X208200000Y-88000000D01*
X209350000Y-85300000D02*
X209350000Y-86850000D01*
X204800000Y-91400000D02*
X199450000Y-91400000D01*
X209350000Y-86850000D02*
X208200000Y-88000000D01*
X208200000Y-88000000D02*
X204800000Y-91400000D01*
X204520000Y-89200000D02*
X204520000Y-89120000D01*
X204520000Y-89120000D02*
X203500000Y-88100000D01*
X199450000Y-90600000D02*
X201000000Y-90600000D01*
X201000000Y-90600000D02*
X203500000Y-88100000D01*
X203500000Y-88100000D02*
X204520000Y-87080000D01*
X204520000Y-87080000D02*
X204520000Y-85370000D01*
X204520000Y-85370000D02*
X204450000Y-85300000D01*
X174250000Y-85400000D02*
X176400000Y-85400000D01*
X176400000Y-85400000D02*
X176500000Y-85300000D01*
X199450000Y-96200000D02*
X202000000Y-96200000D01*
X197200000Y-87800000D02*
X197700000Y-87800000D01*
X198000000Y-88100000D02*
X198000000Y-89150000D01*
X197700000Y-87800000D02*
X198000000Y-88100000D01*
X197200000Y-87800000D02*
X196700000Y-87800000D01*
X196400000Y-88100000D02*
X196400000Y-89150000D01*
X196700000Y-87800000D02*
X196400000Y-88100000D01*
X178900000Y-85300000D02*
X181900000Y-85300000D01*
X197200000Y-87100000D02*
X197200000Y-87800000D01*
X197200000Y-87800000D02*
X197200000Y-89150000D01*
X194500000Y-84400000D02*
X197200000Y-87100000D01*
X182800000Y-84400000D02*
X194500000Y-84400000D01*
X181900000Y-85300000D02*
X182800000Y-84400000D01*
X198000000Y-97650000D02*
X199850000Y-97650000D01*
X200800000Y-98600000D02*
X202000000Y-98600000D01*
X199850000Y-97650000D02*
X200800000Y-98600000D01*
X206700000Y-96200000D02*
X207900000Y-96200000D01*
X208300000Y-98800000D02*
X210300000Y-98800000D01*
X207900000Y-96200000D02*
X208300000Y-96600000D01*
X204400000Y-96200000D02*
X206700000Y-96200000D01*
X204400000Y-98600000D02*
X205600000Y-97400000D01*
X208400000Y-98000000D02*
X210300000Y-98000000D01*
X207800000Y-97400000D02*
X208400000Y-98000000D01*
X205600000Y-97400000D02*
X207800000Y-97400000D01*
X189100000Y-85700000D02*
X190100000Y-85700000D01*
X190100000Y-85700000D02*
X192400000Y-88000000D01*
X192400000Y-88000000D02*
X192400000Y-89150000D01*
X186560000Y-85700000D02*
X186600000Y-85700000D01*
X186600000Y-85700000D02*
X187800000Y-86900000D01*
X190950000Y-90600000D02*
X189300000Y-90600000D01*
X187800000Y-89100000D02*
X187800000Y-86900000D01*
X189300000Y-90600000D02*
X187800000Y-89100000D01*
X193200000Y-87700000D02*
X193200000Y-89150000D01*
X192800000Y-87300000D02*
X193200000Y-87700000D01*
X195600000Y-97650000D02*
X195600000Y-96400000D01*
X187700000Y-94200000D02*
X186400000Y-92900000D01*
X195600000Y-96400000D02*
X195400000Y-96200000D01*
X160720000Y-94220000D02*
X160720000Y-96480000D01*
X160720000Y-96480000D02*
X157800000Y-99400000D01*
X154400000Y-99400000D02*
X153000000Y-98000000D01*
X157800000Y-99400000D02*
X154400000Y-99400000D01*
X197200000Y-97650000D02*
X197200000Y-99200000D01*
X197200000Y-99200000D02*
X197700000Y-99700000D01*
X206200000Y-106700000D02*
X203800000Y-106700000D01*
X158180000Y-94220000D02*
X158180000Y-93620000D01*
X158180000Y-93620000D02*
X163260000Y-88540000D01*
X163260000Y-88540000D02*
X163260000Y-86600000D01*
X156800000Y-97300000D02*
X156800000Y-95600000D01*
X156800000Y-95600000D02*
X158180000Y-94220000D01*
D35*
G36*
X182542660Y-83979800D02*
X182445032Y-84045032D01*
X182445030Y-84045035D01*
X181692064Y-84798000D01*
X179984385Y-84798000D01*
X179984385Y-84450000D01*
X179958097Y-84310292D01*
X179875530Y-84181980D01*
X179749547Y-84095899D01*
X179600000Y-84065615D01*
X178200000Y-84065615D01*
X178060292Y-84091903D01*
X177931980Y-84174470D01*
X177845899Y-84300453D01*
X177815615Y-84450000D01*
X177815615Y-86150000D01*
X177841903Y-86289708D01*
X177924470Y-86418020D01*
X178050453Y-86504101D01*
X178200000Y-86534385D01*
X179600000Y-86534385D01*
X179739708Y-86508097D01*
X179868020Y-86425530D01*
X179954101Y-86299547D01*
X179984385Y-86150000D01*
X179984385Y-85802000D01*
X181899995Y-85802000D01*
X181900000Y-85802001D01*
X182092107Y-85763788D01*
X182254968Y-85654968D01*
X183007935Y-84902000D01*
X183089800Y-84902000D01*
X182886400Y-85206409D01*
X182793000Y-85675962D01*
X182793000Y-85724038D01*
X182886400Y-86193591D01*
X183152380Y-86591658D01*
X183550447Y-86857638D01*
X184020000Y-86951038D01*
X184489553Y-86857638D01*
X184887620Y-86591658D01*
X185153600Y-86193591D01*
X185247000Y-85724038D01*
X185247000Y-85675962D01*
X185153600Y-85206409D01*
X184950200Y-84902000D01*
X185629800Y-84902000D01*
X185426400Y-85206409D01*
X185333000Y-85675962D01*
X185333000Y-85724038D01*
X185426400Y-86193591D01*
X185692380Y-86591658D01*
X186090447Y-86857638D01*
X186560000Y-86951038D01*
X187029553Y-86857638D01*
X187040433Y-86850368D01*
X187298000Y-87107935D01*
X187298000Y-87261733D01*
X187029553Y-87082362D01*
X186560000Y-86988962D01*
X186090447Y-87082362D01*
X185692380Y-87348342D01*
X185426400Y-87746409D01*
X185333000Y-88215962D01*
X185333000Y-88264038D01*
X185426400Y-88733591D01*
X185692380Y-89131658D01*
X186090447Y-89397638D01*
X186560000Y-89491038D01*
X187029553Y-89397638D01*
X187318764Y-89204393D01*
X187336212Y-89292107D01*
X187445032Y-89454968D01*
X188945030Y-90954965D01*
X188945032Y-90954968D01*
X189012427Y-91000000D01*
X188945032Y-91045032D01*
X188645032Y-91345032D01*
X188536212Y-91507893D01*
X188497999Y-91700000D01*
X188498000Y-91700005D01*
X188498000Y-102998000D01*
X186234385Y-102998000D01*
X186234385Y-101600000D01*
X186208097Y-101460292D01*
X186125530Y-101331980D01*
X185999547Y-101245899D01*
X185850000Y-101215615D01*
X183850000Y-101215615D01*
X183710292Y-101241903D01*
X183581980Y-101324470D01*
X183495899Y-101450453D01*
X183465615Y-101600000D01*
X183465615Y-105400000D01*
X183491903Y-105539708D01*
X183529413Y-105598000D01*
X176302000Y-105598000D01*
X176302000Y-104755463D01*
X176373598Y-104683990D01*
X176476882Y-104435254D01*
X176477117Y-104165927D01*
X176374267Y-103917011D01*
X176183990Y-103726402D01*
X175935254Y-103623118D01*
X175665927Y-103622883D01*
X175417011Y-103725733D01*
X175226402Y-103916010D01*
X175123118Y-104164746D01*
X175122883Y-104434073D01*
X175225733Y-104682989D01*
X175298000Y-104755382D01*
X175298000Y-105598000D01*
X173907935Y-105598000D01*
X172534385Y-104224449D01*
X172534385Y-103728485D01*
X172764145Y-103728485D01*
X172878688Y-104005045D01*
X173180318Y-104351350D01*
X173591513Y-104555866D01*
X173773000Y-104495890D01*
X173773000Y-103547000D01*
X174027000Y-103547000D01*
X174027000Y-104495890D01*
X174208487Y-104555866D01*
X174619682Y-104351350D01*
X174921312Y-104005045D01*
X175035855Y-103728485D01*
X174975276Y-103547000D01*
X174027000Y-103547000D01*
X173773000Y-103547000D01*
X172824724Y-103547000D01*
X172764145Y-103728485D01*
X172534385Y-103728485D01*
X172534385Y-103420000D01*
X180319941Y-103420000D01*
X180409535Y-103870418D01*
X180664676Y-104252265D01*
X181046523Y-104507406D01*
X181496941Y-104597000D01*
X181543059Y-104597000D01*
X181993477Y-104507406D01*
X182375324Y-104252265D01*
X182630465Y-103870418D01*
X182720059Y-103420000D01*
X182630465Y-102969582D01*
X182375324Y-102587735D01*
X181993477Y-102332594D01*
X181543059Y-102243000D01*
X181496941Y-102243000D01*
X181046523Y-102332594D01*
X180664676Y-102587735D01*
X180409535Y-102969582D01*
X180319941Y-103420000D01*
X172534385Y-103420000D01*
X172534385Y-103111515D01*
X172764145Y-103111515D01*
X172824724Y-103293000D01*
X173773000Y-103293000D01*
X173773000Y-102344110D01*
X174027000Y-102344110D01*
X174027000Y-103293000D01*
X174975276Y-103293000D01*
X175035855Y-103111515D01*
X174921312Y-102834955D01*
X174619682Y-102488650D01*
X174208487Y-102284134D01*
X174027000Y-102344110D01*
X173773000Y-102344110D01*
X173591513Y-102284134D01*
X173180318Y-102488650D01*
X172878688Y-102834955D01*
X172764145Y-103111515D01*
X172534385Y-103111515D01*
X172534385Y-103000000D01*
X172508097Y-102860292D01*
X172425530Y-102731980D01*
X172299547Y-102645899D01*
X172150000Y-102615615D01*
X170450000Y-102615615D01*
X170310292Y-102641903D01*
X170181980Y-102724470D01*
X170095899Y-102850453D01*
X170065615Y-103000000D01*
X170065615Y-104400000D01*
X170091903Y-104539708D01*
X170174470Y-104668020D01*
X170300453Y-104754101D01*
X170450000Y-104784385D01*
X171674449Y-104784385D01*
X173345030Y-106454965D01*
X173345032Y-106454968D01*
X173494693Y-106554968D01*
X173507893Y-106563788D01*
X173700000Y-106602001D01*
X173700005Y-106602000D01*
X186199995Y-106602000D01*
X186200000Y-106602001D01*
X186392107Y-106563788D01*
X186554968Y-106454968D01*
X186988685Y-106021250D01*
X189773000Y-106021250D01*
X189773000Y-106624990D01*
X189830395Y-106763553D01*
X189936447Y-106869605D01*
X190075010Y-106927000D01*
X190928750Y-106927000D01*
X191023000Y-106832750D01*
X191023000Y-105927000D01*
X189867250Y-105927000D01*
X189773000Y-106021250D01*
X186988685Y-106021250D01*
X187254965Y-105754970D01*
X187254968Y-105754968D01*
X187363788Y-105592107D01*
X187402000Y-105400000D01*
X187402000Y-104975010D01*
X189773000Y-104975010D01*
X189773000Y-105578750D01*
X189867250Y-105673000D01*
X191023000Y-105673000D01*
X191023000Y-104767250D01*
X191277000Y-104767250D01*
X191277000Y-105673000D01*
X192432750Y-105673000D01*
X192527000Y-105578750D01*
X192527000Y-104975010D01*
X192469605Y-104836447D01*
X192363553Y-104730395D01*
X192224990Y-104673000D01*
X191371250Y-104673000D01*
X191277000Y-104767250D01*
X191023000Y-104767250D01*
X190928750Y-104673000D01*
X190075010Y-104673000D01*
X189936447Y-104730395D01*
X189830395Y-104836447D01*
X189773000Y-104975010D01*
X187402000Y-104975010D01*
X187402000Y-104002000D01*
X189765615Y-104002000D01*
X189765615Y-104250000D01*
X189791903Y-104389708D01*
X189874470Y-104518020D01*
X190000453Y-104604101D01*
X190150000Y-104634385D01*
X192150000Y-104634385D01*
X192289708Y-104608097D01*
X192418020Y-104525530D01*
X192504101Y-104399547D01*
X192534385Y-104250000D01*
X192534385Y-102750000D01*
X192508097Y-102610292D01*
X192425530Y-102481980D01*
X192299547Y-102395899D01*
X192150000Y-102365615D01*
X190150000Y-102365615D01*
X190010292Y-102391903D01*
X189881980Y-102474470D01*
X189795899Y-102600453D01*
X189765615Y-102750000D01*
X189765615Y-102998000D01*
X189502000Y-102998000D01*
X189502000Y-100450000D01*
X189765615Y-100450000D01*
X189765615Y-101950000D01*
X189791903Y-102089708D01*
X189874470Y-102218020D01*
X190000453Y-102304101D01*
X190150000Y-102334385D01*
X192150000Y-102334385D01*
X192289708Y-102308097D01*
X192418020Y-102225530D01*
X192504101Y-102099547D01*
X192534385Y-101950000D01*
X192534385Y-101702000D01*
X192798000Y-101702000D01*
X192798000Y-105099995D01*
X192797999Y-105100000D01*
X192836212Y-105292107D01*
X192945032Y-105454968D01*
X193012988Y-105522924D01*
X192965927Y-105522883D01*
X192717011Y-105625733D01*
X192526402Y-105816010D01*
X192466359Y-105960609D01*
X192432750Y-105927000D01*
X191277000Y-105927000D01*
X191277000Y-106832750D01*
X191371250Y-106927000D01*
X192224990Y-106927000D01*
X192363553Y-106869605D01*
X192469605Y-106763553D01*
X192527000Y-106624990D01*
X192527000Y-106584258D01*
X192716010Y-106773598D01*
X192964746Y-106876882D01*
X193234073Y-106877117D01*
X193482989Y-106774267D01*
X193673598Y-106583990D01*
X193776882Y-106335254D01*
X193776933Y-106276284D01*
X193865189Y-106335254D01*
X193907893Y-106363788D01*
X194100000Y-106402001D01*
X194100005Y-106402000D01*
X194765615Y-106402000D01*
X194765615Y-106700000D01*
X194791903Y-106839708D01*
X194874470Y-106968020D01*
X195000453Y-107054101D01*
X195150000Y-107084385D01*
X196750000Y-107084385D01*
X196889708Y-107058097D01*
X197018020Y-106975530D01*
X197103965Y-106849746D01*
X197130395Y-106913553D01*
X197236447Y-107019605D01*
X197375010Y-107077000D01*
X198028750Y-107077000D01*
X198123000Y-106982750D01*
X198123000Y-106027000D01*
X198377000Y-106027000D01*
X198377000Y-106982750D01*
X198471250Y-107077000D01*
X199124990Y-107077000D01*
X199263553Y-107019605D01*
X199369605Y-106913553D01*
X199427000Y-106774990D01*
X199427000Y-106121250D01*
X199332750Y-106027000D01*
X198377000Y-106027000D01*
X198123000Y-106027000D01*
X198103000Y-106027000D01*
X198103000Y-105775010D01*
X200323000Y-105775010D01*
X200323000Y-106478750D01*
X200417250Y-106573000D01*
X201273000Y-106573000D01*
X201273000Y-105567250D01*
X201527000Y-105567250D01*
X201527000Y-106573000D01*
X202382750Y-106573000D01*
X202477000Y-106478750D01*
X202477000Y-105775010D01*
X202419605Y-105636447D01*
X202313553Y-105530395D01*
X202174990Y-105473000D01*
X201621250Y-105473000D01*
X201527000Y-105567250D01*
X201273000Y-105567250D01*
X201178750Y-105473000D01*
X200625010Y-105473000D01*
X200486447Y-105530395D01*
X200380395Y-105636447D01*
X200323000Y-105775010D01*
X198103000Y-105775010D01*
X198103000Y-105773000D01*
X198123000Y-105773000D01*
X198123000Y-104817250D01*
X198377000Y-104817250D01*
X198377000Y-105773000D01*
X199332750Y-105773000D01*
X199427000Y-105678750D01*
X199427000Y-105025010D01*
X199369605Y-104886447D01*
X199263553Y-104780395D01*
X199124990Y-104723000D01*
X198471250Y-104723000D01*
X198377000Y-104817250D01*
X198123000Y-104817250D01*
X198028750Y-104723000D01*
X197375010Y-104723000D01*
X197236447Y-104780395D01*
X197130395Y-104886447D01*
X197103054Y-104952454D01*
X197025530Y-104831980D01*
X196899547Y-104745899D01*
X196750000Y-104715615D01*
X195150000Y-104715615D01*
X195010292Y-104741903D01*
X194881980Y-104824470D01*
X194795899Y-104950453D01*
X194765615Y-105100000D01*
X194765615Y-105398000D01*
X194307935Y-105398000D01*
X194104968Y-105195032D01*
X193802000Y-104892064D01*
X193802000Y-103902000D01*
X193915615Y-103902000D01*
X193915615Y-104150000D01*
X193941903Y-104289708D01*
X194024470Y-104418020D01*
X194150453Y-104504101D01*
X194300000Y-104534385D01*
X197500000Y-104534385D01*
X197639708Y-104508097D01*
X197768020Y-104425530D01*
X197854101Y-104299547D01*
X197884385Y-104150000D01*
X197884385Y-103621250D01*
X197923000Y-103621250D01*
X197923000Y-104224990D01*
X197980395Y-104363553D01*
X198086447Y-104469605D01*
X198225010Y-104527000D01*
X199678750Y-104527000D01*
X199773000Y-104432750D01*
X199773000Y-103527000D01*
X200027000Y-103527000D01*
X200027000Y-104432750D01*
X200121250Y-104527000D01*
X201574990Y-104527000D01*
X201713553Y-104469605D01*
X201819605Y-104363553D01*
X201877000Y-104224990D01*
X201877000Y-103621250D01*
X201782750Y-103527000D01*
X200027000Y-103527000D01*
X199773000Y-103527000D01*
X198017250Y-103527000D01*
X197923000Y-103621250D01*
X197884385Y-103621250D01*
X197884385Y-102650000D01*
X197870275Y-102575010D01*
X197923000Y-102575010D01*
X197923000Y-103178750D01*
X198017250Y-103273000D01*
X199773000Y-103273000D01*
X199773000Y-102367250D01*
X200027000Y-102367250D01*
X200027000Y-103273000D01*
X201782750Y-103273000D01*
X201877000Y-103178750D01*
X201877000Y-102671250D01*
X208773000Y-102671250D01*
X208773000Y-103524990D01*
X208830395Y-103663553D01*
X208936447Y-103769605D01*
X209075010Y-103827000D01*
X210178750Y-103827000D01*
X210273000Y-103732750D01*
X210273000Y-102577000D01*
X210527000Y-102577000D01*
X210527000Y-103732750D01*
X210621250Y-103827000D01*
X211724990Y-103827000D01*
X211863553Y-103769605D01*
X211969605Y-103663553D01*
X212027000Y-103524990D01*
X212027000Y-102671250D01*
X214273000Y-102671250D01*
X214273000Y-103524990D01*
X214330395Y-103663553D01*
X214436447Y-103769605D01*
X214575010Y-103827000D01*
X215678750Y-103827000D01*
X215773000Y-103732750D01*
X215773000Y-102577000D01*
X214367250Y-102577000D01*
X214273000Y-102671250D01*
X212027000Y-102671250D01*
X211932750Y-102577000D01*
X210527000Y-102577000D01*
X210273000Y-102577000D01*
X208867250Y-102577000D01*
X208773000Y-102671250D01*
X201877000Y-102671250D01*
X201877000Y-102575010D01*
X201819605Y-102436447D01*
X201713553Y-102330395D01*
X201574990Y-102273000D01*
X200121250Y-102273000D01*
X200027000Y-102367250D01*
X199773000Y-102367250D01*
X199678750Y-102273000D01*
X198225010Y-102273000D01*
X198086447Y-102330395D01*
X197980395Y-102436447D01*
X197923000Y-102575010D01*
X197870275Y-102575010D01*
X197858097Y-102510292D01*
X197775530Y-102381980D01*
X197649547Y-102295899D01*
X197500000Y-102265615D01*
X194300000Y-102265615D01*
X194160292Y-102291903D01*
X194031980Y-102374470D01*
X193945899Y-102500453D01*
X193915615Y-102650000D01*
X193915615Y-102898000D01*
X193802000Y-102898000D01*
X193802000Y-101702000D01*
X207399995Y-101702000D01*
X207400000Y-101702001D01*
X207592107Y-101663788D01*
X207754968Y-101554968D01*
X207934925Y-101375010D01*
X208773000Y-101375010D01*
X208773000Y-102228750D01*
X208867250Y-102323000D01*
X210273000Y-102323000D01*
X210273000Y-101167250D01*
X210527000Y-101167250D01*
X210527000Y-102323000D01*
X211932750Y-102323000D01*
X212027000Y-102228750D01*
X212027000Y-101375010D01*
X214273000Y-101375010D01*
X214273000Y-102228750D01*
X214367250Y-102323000D01*
X215773000Y-102323000D01*
X215773000Y-101167250D01*
X215678750Y-101073000D01*
X214575010Y-101073000D01*
X214436447Y-101130395D01*
X214330395Y-101236447D01*
X214273000Y-101375010D01*
X212027000Y-101375010D01*
X211969605Y-101236447D01*
X211863553Y-101130395D01*
X211724990Y-101073000D01*
X210621250Y-101073000D01*
X210527000Y-101167250D01*
X210273000Y-101167250D01*
X210178750Y-101073000D01*
X209075010Y-101073000D01*
X208936447Y-101130395D01*
X208830395Y-101236447D01*
X208773000Y-101375010D01*
X207934925Y-101375010D01*
X208946156Y-100363779D01*
X212072857Y-100363779D01*
X212198495Y-100667846D01*
X212430930Y-100900688D01*
X212734778Y-101026856D01*
X213063779Y-101027143D01*
X213367846Y-100901505D01*
X213600688Y-100669070D01*
X213726856Y-100365222D01*
X213727143Y-100036221D01*
X213601505Y-99732154D01*
X213369070Y-99499312D01*
X213065222Y-99373144D01*
X212736221Y-99372857D01*
X212432154Y-99498495D01*
X212199312Y-99730930D01*
X212073144Y-100034778D01*
X212072857Y-100363779D01*
X208946156Y-100363779D01*
X209088088Y-100221847D01*
X209150000Y-100234385D01*
X211450000Y-100234385D01*
X211589708Y-100208097D01*
X211718020Y-100125530D01*
X211804101Y-99999547D01*
X211834385Y-99850000D01*
X211834385Y-99350000D01*
X211808097Y-99210292D01*
X211802598Y-99201747D01*
X211804101Y-99199547D01*
X211834385Y-99050000D01*
X211834385Y-98550000D01*
X211808097Y-98410292D01*
X211802598Y-98401747D01*
X211804101Y-98399547D01*
X211834385Y-98250000D01*
X211834385Y-97750000D01*
X211808097Y-97610292D01*
X211802598Y-97601747D01*
X211804101Y-97599547D01*
X211834385Y-97450000D01*
X211834385Y-96950000D01*
X211808097Y-96810292D01*
X211798101Y-96794758D01*
X211827000Y-96724990D01*
X211827000Y-96619250D01*
X211732750Y-96525000D01*
X210427000Y-96525000D01*
X210427000Y-96547000D01*
X210173000Y-96547000D01*
X210173000Y-96525000D01*
X210153000Y-96525000D01*
X210153000Y-96275000D01*
X210173000Y-96275000D01*
X210173000Y-95867250D01*
X210427000Y-95867250D01*
X210427000Y-96275000D01*
X211732750Y-96275000D01*
X211827000Y-96180750D01*
X211827000Y-96075010D01*
X211780927Y-95963779D01*
X212072857Y-95963779D01*
X212198495Y-96267846D01*
X212430930Y-96500688D01*
X212734778Y-96626856D01*
X213063779Y-96627143D01*
X213367846Y-96501505D01*
X213600688Y-96269070D01*
X213726856Y-95965222D01*
X213727143Y-95636221D01*
X213601505Y-95332154D01*
X213369070Y-95099312D01*
X213065222Y-94973144D01*
X212736221Y-94972857D01*
X212432154Y-95098495D01*
X212199312Y-95330930D01*
X212073144Y-95634778D01*
X212072857Y-95963779D01*
X211780927Y-95963779D01*
X211769605Y-95936447D01*
X211663553Y-95830395D01*
X211524990Y-95773000D01*
X210521250Y-95773000D01*
X210427000Y-95867250D01*
X210173000Y-95867250D01*
X210078750Y-95773000D01*
X209075010Y-95773000D01*
X208936447Y-95830395D01*
X208830395Y-95936447D01*
X208773000Y-96075010D01*
X208773000Y-96115567D01*
X208683990Y-96026402D01*
X208435254Y-95923118D01*
X208332965Y-95923029D01*
X208254968Y-95845032D01*
X208092107Y-95736212D01*
X207900000Y-95697999D01*
X207899995Y-95698000D01*
X207834385Y-95698000D01*
X207834385Y-95500000D01*
X207808097Y-95360292D01*
X207725530Y-95231980D01*
X207599547Y-95145899D01*
X207450000Y-95115615D01*
X205750000Y-95115615D01*
X205610292Y-95141903D01*
X205481980Y-95224470D01*
X205465346Y-95248815D01*
X205458097Y-95210292D01*
X205375530Y-95081980D01*
X205249547Y-94995899D01*
X205100000Y-94965615D01*
X203700000Y-94965615D01*
X203560292Y-94991903D01*
X203431980Y-95074470D01*
X203345899Y-95200453D01*
X203315615Y-95350000D01*
X203315615Y-97050000D01*
X203341903Y-97189708D01*
X203424470Y-97318020D01*
X203546031Y-97401080D01*
X203431980Y-97474470D01*
X203345899Y-97600453D01*
X203315615Y-97750000D01*
X203315615Y-99450000D01*
X203341903Y-99589708D01*
X203424470Y-99718020D01*
X203550453Y-99804101D01*
X203700000Y-99834385D01*
X205100000Y-99834385D01*
X205239708Y-99808097D01*
X205368020Y-99725530D01*
X205454101Y-99599547D01*
X205484385Y-99450000D01*
X205484385Y-98225550D01*
X205807935Y-97902000D01*
X207592064Y-97902000D01*
X207916403Y-98226339D01*
X207726402Y-98416010D01*
X207623118Y-98664746D01*
X207622883Y-98934073D01*
X207725733Y-99182989D01*
X207916010Y-99373598D01*
X208164746Y-99476882D01*
X208412966Y-99477099D01*
X207192064Y-100698000D01*
X192534385Y-100698000D01*
X192534385Y-100450000D01*
X192508097Y-100310292D01*
X192425530Y-100181980D01*
X192299547Y-100095899D01*
X192150000Y-100065615D01*
X190150000Y-100065615D01*
X190010292Y-100091903D01*
X189881980Y-100174470D01*
X189795899Y-100300453D01*
X189765615Y-100450000D01*
X189502000Y-100450000D01*
X189502000Y-94325000D01*
X189765615Y-94325000D01*
X189765615Y-94875000D01*
X189789999Y-95004589D01*
X189765615Y-95125000D01*
X189765615Y-95675000D01*
X189789999Y-95804589D01*
X189765615Y-95925000D01*
X189765615Y-96475000D01*
X189791903Y-96614708D01*
X189874470Y-96743020D01*
X190000453Y-96829101D01*
X190150000Y-96859385D01*
X191740615Y-96859385D01*
X191740615Y-98450000D01*
X191766903Y-98589708D01*
X191849470Y-98718020D01*
X191975453Y-98804101D01*
X192125000Y-98834385D01*
X192675000Y-98834385D01*
X192804589Y-98810001D01*
X192925000Y-98834385D01*
X193475000Y-98834385D01*
X193604589Y-98810001D01*
X193725000Y-98834385D01*
X194275000Y-98834385D01*
X194404589Y-98810001D01*
X194525000Y-98834385D01*
X195075000Y-98834385D01*
X195204589Y-98810001D01*
X195325000Y-98834385D01*
X195875000Y-98834385D01*
X196004589Y-98810001D01*
X196125000Y-98834385D01*
X196675000Y-98834385D01*
X196698000Y-98830057D01*
X196698000Y-99199995D01*
X196697999Y-99200000D01*
X196736212Y-99392107D01*
X196845032Y-99554968D01*
X197022971Y-99732907D01*
X197022883Y-99834073D01*
X197125733Y-100082989D01*
X197316010Y-100273598D01*
X197564746Y-100376882D01*
X197834073Y-100377117D01*
X198082989Y-100274267D01*
X198273598Y-100083990D01*
X198376882Y-99835254D01*
X198377117Y-99565927D01*
X198274267Y-99317011D01*
X198083990Y-99126402D01*
X197835254Y-99023118D01*
X197732964Y-99023029D01*
X197702000Y-98992064D01*
X197702000Y-98829727D01*
X197725000Y-98834385D01*
X198275000Y-98834385D01*
X198414708Y-98808097D01*
X198543020Y-98725530D01*
X198629101Y-98599547D01*
X198659385Y-98450000D01*
X198659385Y-98152000D01*
X199642064Y-98152000D01*
X200445032Y-98954968D01*
X200607893Y-99063788D01*
X200800000Y-99102001D01*
X200800005Y-99102000D01*
X200915615Y-99102000D01*
X200915615Y-99450000D01*
X200941903Y-99589708D01*
X201024470Y-99718020D01*
X201150453Y-99804101D01*
X201300000Y-99834385D01*
X202700000Y-99834385D01*
X202839708Y-99808097D01*
X202968020Y-99725530D01*
X203054101Y-99599547D01*
X203084385Y-99450000D01*
X203084385Y-97750000D01*
X203058097Y-97610292D01*
X202975530Y-97481980D01*
X202853969Y-97398920D01*
X202968020Y-97325530D01*
X203054101Y-97199547D01*
X203084385Y-97050000D01*
X203084385Y-95350000D01*
X203058097Y-95210292D01*
X202975530Y-95081980D01*
X202849547Y-94995899D01*
X202700000Y-94965615D01*
X201300000Y-94965615D01*
X201160292Y-94991903D01*
X201031980Y-95074470D01*
X200945899Y-95200453D01*
X200915615Y-95350000D01*
X200915615Y-95698000D01*
X200629727Y-95698000D01*
X200634385Y-95675000D01*
X200634385Y-95125000D01*
X200609434Y-94992398D01*
X200627000Y-94949990D01*
X200627000Y-94821250D01*
X200532750Y-94727000D01*
X199577000Y-94727000D01*
X199577000Y-94740615D01*
X199323000Y-94740615D01*
X199323000Y-94727000D01*
X198367250Y-94727000D01*
X198273000Y-94821250D01*
X198273000Y-94898000D01*
X193155463Y-94898000D01*
X193083990Y-94826402D01*
X192835254Y-94723118D01*
X192565927Y-94722883D01*
X192317011Y-94825733D01*
X192126402Y-95016010D01*
X192117783Y-95036767D01*
X192110001Y-94995411D01*
X192134385Y-94875000D01*
X192134385Y-94325000D01*
X192109434Y-94192398D01*
X192127000Y-94149990D01*
X192127000Y-94021250D01*
X192032750Y-93927000D01*
X191077000Y-93927000D01*
X191077000Y-93940615D01*
X190823000Y-93940615D01*
X190823000Y-93927000D01*
X189867250Y-93927000D01*
X189773000Y-94021250D01*
X189773000Y-94149990D01*
X189791843Y-94195481D01*
X189765615Y-94325000D01*
X189502000Y-94325000D01*
X189502000Y-91907936D01*
X189507936Y-91902000D01*
X189770273Y-91902000D01*
X189765615Y-91925000D01*
X189765615Y-92475000D01*
X189789999Y-92604589D01*
X189765615Y-92725000D01*
X189765615Y-93275000D01*
X189790566Y-93407602D01*
X189773000Y-93450010D01*
X189773000Y-93578750D01*
X189867250Y-93673000D01*
X190823000Y-93673000D01*
X190823000Y-93659385D01*
X191077000Y-93659385D01*
X191077000Y-93673000D01*
X192032750Y-93673000D01*
X192127000Y-93578750D01*
X192127000Y-93450010D01*
X192108157Y-93404519D01*
X192134385Y-93275000D01*
X192134385Y-92725000D01*
X192110001Y-92595411D01*
X192134385Y-92475000D01*
X192134385Y-91925000D01*
X192130057Y-91902000D01*
X194992064Y-91902000D01*
X195498000Y-92407935D01*
X195498000Y-93099995D01*
X195497999Y-93100000D01*
X195536212Y-93292107D01*
X195645032Y-93454968D01*
X196345030Y-94154965D01*
X196345032Y-94154968D01*
X196507893Y-94263788D01*
X196700000Y-94302000D01*
X198273000Y-94302000D01*
X198273000Y-94378750D01*
X198367250Y-94473000D01*
X199323000Y-94473000D01*
X199323000Y-94459385D01*
X199577000Y-94459385D01*
X199577000Y-94473000D01*
X200532750Y-94473000D01*
X200627000Y-94378750D01*
X200627000Y-94302000D01*
X205365615Y-94302000D01*
X205365615Y-94500000D01*
X205391903Y-94639708D01*
X205474470Y-94768020D01*
X205600453Y-94854101D01*
X205750000Y-94884385D01*
X207450000Y-94884385D01*
X207589708Y-94858097D01*
X207718020Y-94775530D01*
X207804101Y-94649547D01*
X207834385Y-94500000D01*
X207834385Y-93771250D01*
X208773000Y-93771250D01*
X208773000Y-94624990D01*
X208830395Y-94763553D01*
X208936447Y-94869605D01*
X209075010Y-94927000D01*
X210178750Y-94927000D01*
X210273000Y-94832750D01*
X210273000Y-93677000D01*
X210527000Y-93677000D01*
X210527000Y-94832750D01*
X210621250Y-94927000D01*
X211724990Y-94927000D01*
X211863553Y-94869605D01*
X211969605Y-94763553D01*
X212027000Y-94624990D01*
X212027000Y-93771250D01*
X214273000Y-93771250D01*
X214273000Y-94624990D01*
X214330395Y-94763553D01*
X214436447Y-94869605D01*
X214575010Y-94927000D01*
X215678750Y-94927000D01*
X215773000Y-94832750D01*
X215773000Y-93677000D01*
X214367250Y-93677000D01*
X214273000Y-93771250D01*
X212027000Y-93771250D01*
X211932750Y-93677000D01*
X210527000Y-93677000D01*
X210273000Y-93677000D01*
X208867250Y-93677000D01*
X208773000Y-93771250D01*
X207834385Y-93771250D01*
X207834385Y-93100000D01*
X207808097Y-92960292D01*
X207725530Y-92831980D01*
X207599547Y-92745899D01*
X207450000Y-92715615D01*
X205750000Y-92715615D01*
X205610292Y-92741903D01*
X205481980Y-92824470D01*
X205395899Y-92950453D01*
X205365615Y-93100000D01*
X205365615Y-93298000D01*
X200627000Y-93298000D01*
X200627000Y-93221250D01*
X200532750Y-93127000D01*
X199577000Y-93127000D01*
X199577000Y-93140615D01*
X199323000Y-93140615D01*
X199323000Y-93127000D01*
X198367250Y-93127000D01*
X198273000Y-93221250D01*
X198273000Y-93298000D01*
X196907935Y-93298000D01*
X196502000Y-92892064D01*
X196502000Y-92702000D01*
X198273000Y-92702000D01*
X198273000Y-92778750D01*
X198367250Y-92873000D01*
X199323000Y-92873000D01*
X199323000Y-92859385D01*
X199577000Y-92859385D01*
X199577000Y-92873000D01*
X200532750Y-92873000D01*
X200627000Y-92778750D01*
X200627000Y-92650010D01*
X200608157Y-92604519D01*
X200634382Y-92475010D01*
X208773000Y-92475010D01*
X208773000Y-93328750D01*
X208867250Y-93423000D01*
X210273000Y-93423000D01*
X210273000Y-92267250D01*
X210527000Y-92267250D01*
X210527000Y-93423000D01*
X211932750Y-93423000D01*
X212027000Y-93328750D01*
X212027000Y-92475010D01*
X214273000Y-92475010D01*
X214273000Y-93328750D01*
X214367250Y-93423000D01*
X215773000Y-93423000D01*
X215773000Y-92267250D01*
X215678750Y-92173000D01*
X214575010Y-92173000D01*
X214436447Y-92230395D01*
X214330395Y-92336447D01*
X214273000Y-92475010D01*
X212027000Y-92475010D01*
X211969605Y-92336447D01*
X211863553Y-92230395D01*
X211724990Y-92173000D01*
X210621250Y-92173000D01*
X210527000Y-92267250D01*
X210273000Y-92267250D01*
X210178750Y-92173000D01*
X209075010Y-92173000D01*
X208936447Y-92230395D01*
X208830395Y-92336447D01*
X208773000Y-92475010D01*
X200634382Y-92475010D01*
X200634385Y-92475000D01*
X200634385Y-91925000D01*
X200630057Y-91902000D01*
X204799995Y-91902000D01*
X204800000Y-91902001D01*
X204992107Y-91863788D01*
X205154968Y-91754968D01*
X208200000Y-88709936D01*
X208329445Y-88839380D01*
X208273196Y-88974842D01*
X208272805Y-89423191D01*
X208444019Y-89837560D01*
X208760772Y-90154867D01*
X209174842Y-90326804D01*
X209623191Y-90327195D01*
X210037560Y-90155981D01*
X210354867Y-89839228D01*
X210526804Y-89425158D01*
X210527195Y-88976809D01*
X210355981Y-88562440D01*
X210039228Y-88245133D01*
X209625158Y-88073196D01*
X209176809Y-88072805D01*
X209039483Y-88129547D01*
X208909936Y-88000000D01*
X209704965Y-87204970D01*
X209704968Y-87204968D01*
X209813788Y-87042107D01*
X209824359Y-86988962D01*
X209852001Y-86850000D01*
X209852000Y-86849995D01*
X209852000Y-86484385D01*
X210150000Y-86484385D01*
X210289708Y-86458097D01*
X210418020Y-86375530D01*
X210504101Y-86249547D01*
X210534385Y-86100000D01*
X210534385Y-84500000D01*
X210508097Y-84360292D01*
X210425530Y-84231980D01*
X210299547Y-84145899D01*
X210150000Y-84115615D01*
X208550000Y-84115615D01*
X208410292Y-84141903D01*
X208281980Y-84224470D01*
X208196035Y-84350254D01*
X208169605Y-84286447D01*
X208063553Y-84180395D01*
X207924990Y-84123000D01*
X207271250Y-84123000D01*
X207177000Y-84217250D01*
X207177000Y-85173000D01*
X207197000Y-85173000D01*
X207197000Y-85427000D01*
X207177000Y-85427000D01*
X207177000Y-86382750D01*
X207271250Y-86477000D01*
X207924990Y-86477000D01*
X208063553Y-86419605D01*
X208169605Y-86313553D01*
X208196946Y-86247546D01*
X208274470Y-86368020D01*
X208400453Y-86454101D01*
X208550000Y-86484385D01*
X208848000Y-86484385D01*
X208848000Y-86642065D01*
X207845032Y-87645032D01*
X204592064Y-90898000D01*
X201411936Y-90898000D01*
X203434454Y-88875482D01*
X203393196Y-88974842D01*
X203392805Y-89423191D01*
X203564019Y-89837560D01*
X203880772Y-90154867D01*
X204294842Y-90326804D01*
X204743191Y-90327195D01*
X205157560Y-90155981D01*
X205474867Y-89839228D01*
X205646804Y-89425158D01*
X205647195Y-88976809D01*
X205475981Y-88562440D01*
X205159228Y-88245133D01*
X204745158Y-88073196D01*
X204296809Y-88072805D01*
X204216092Y-88106157D01*
X204209936Y-88100000D01*
X204874965Y-87434970D01*
X204874968Y-87434968D01*
X204983788Y-87272107D01*
X204998529Y-87198000D01*
X205022001Y-87080000D01*
X205022000Y-87079995D01*
X205022000Y-86484385D01*
X205250000Y-86484385D01*
X205389708Y-86458097D01*
X205518020Y-86375530D01*
X205604101Y-86249547D01*
X205634385Y-86100000D01*
X205634385Y-85521250D01*
X205873000Y-85521250D01*
X205873000Y-86174990D01*
X205930395Y-86313553D01*
X206036447Y-86419605D01*
X206175010Y-86477000D01*
X206828750Y-86477000D01*
X206923000Y-86382750D01*
X206923000Y-85427000D01*
X205967250Y-85427000D01*
X205873000Y-85521250D01*
X205634385Y-85521250D01*
X205634385Y-84500000D01*
X205620275Y-84425010D01*
X205873000Y-84425010D01*
X205873000Y-85078750D01*
X205967250Y-85173000D01*
X206923000Y-85173000D01*
X206923000Y-84217250D01*
X206828750Y-84123000D01*
X206175010Y-84123000D01*
X206036447Y-84180395D01*
X205930395Y-84286447D01*
X205873000Y-84425010D01*
X205620275Y-84425010D01*
X205608097Y-84360292D01*
X205525530Y-84231980D01*
X205399547Y-84145899D01*
X205250000Y-84115615D01*
X203650000Y-84115615D01*
X203510292Y-84141903D01*
X203381980Y-84224470D01*
X203296035Y-84350254D01*
X203269605Y-84286447D01*
X203163553Y-84180395D01*
X203024990Y-84123000D01*
X202371250Y-84123000D01*
X202277000Y-84217250D01*
X202277000Y-85173000D01*
X202297000Y-85173000D01*
X202297000Y-85427000D01*
X202277000Y-85427000D01*
X202277000Y-86382750D01*
X202371250Y-86477000D01*
X203024990Y-86477000D01*
X203163553Y-86419605D01*
X203269605Y-86313553D01*
X203296946Y-86247546D01*
X203374470Y-86368020D01*
X203500453Y-86454101D01*
X203650000Y-86484385D01*
X204018000Y-86484385D01*
X204018000Y-86872065D01*
X203145032Y-87745032D01*
X200792064Y-90098000D01*
X200551926Y-90098000D01*
X200525530Y-90056980D01*
X200399547Y-89970899D01*
X200250000Y-89940615D01*
X198659385Y-89940615D01*
X198659385Y-88350000D01*
X198633097Y-88210292D01*
X198550530Y-88081980D01*
X198490220Y-88040771D01*
X198463788Y-87907892D01*
X198354968Y-87745032D01*
X198054968Y-87445032D01*
X197892107Y-87336212D01*
X197702000Y-87298397D01*
X197702000Y-87100005D01*
X197702001Y-87100000D01*
X197663788Y-86907893D01*
X197586422Y-86792107D01*
X197554968Y-86745032D01*
X197554965Y-86745030D01*
X196331186Y-85521250D01*
X200973000Y-85521250D01*
X200973000Y-86174990D01*
X201030395Y-86313553D01*
X201136447Y-86419605D01*
X201275010Y-86477000D01*
X201928750Y-86477000D01*
X202023000Y-86382750D01*
X202023000Y-85427000D01*
X201067250Y-85427000D01*
X200973000Y-85521250D01*
X196331186Y-85521250D01*
X195234946Y-84425010D01*
X200973000Y-84425010D01*
X200973000Y-85078750D01*
X201067250Y-85173000D01*
X202023000Y-85173000D01*
X202023000Y-84217250D01*
X201928750Y-84123000D01*
X201275010Y-84123000D01*
X201136447Y-84180395D01*
X201030395Y-84286447D01*
X200973000Y-84425010D01*
X195234946Y-84425010D01*
X194854968Y-84045032D01*
X194715735Y-83952000D01*
X210312776Y-83952000D01*
X217048000Y-90687224D01*
X217048000Y-92173000D01*
X216121250Y-92173000D01*
X216027000Y-92267250D01*
X216027000Y-93423000D01*
X216047000Y-93423000D01*
X216047000Y-93677000D01*
X216027000Y-93677000D01*
X216027000Y-94832750D01*
X216121250Y-94927000D01*
X217048000Y-94927000D01*
X217048000Y-101073000D01*
X216121250Y-101073000D01*
X216027000Y-101167250D01*
X216027000Y-102323000D01*
X216047000Y-102323000D01*
X216047000Y-102577000D01*
X216027000Y-102577000D01*
X216027000Y-103732750D01*
X216121250Y-103827000D01*
X217033776Y-103827000D01*
X213112776Y-107748000D01*
X207454414Y-107748000D01*
X207484385Y-107600000D01*
X207484385Y-105800000D01*
X207458097Y-105660292D01*
X207375530Y-105531980D01*
X207249547Y-105445899D01*
X207100000Y-105415615D01*
X206505187Y-105415615D01*
X206922417Y-105243219D01*
X207281957Y-104884307D01*
X207476778Y-104415125D01*
X207477221Y-103907103D01*
X207283219Y-103437583D01*
X206924307Y-103078043D01*
X206455125Y-102883222D01*
X205947103Y-102882779D01*
X205477583Y-103076781D01*
X205118043Y-103435693D01*
X204923222Y-103904875D01*
X204922779Y-104412897D01*
X205116781Y-104882417D01*
X205475693Y-105241957D01*
X205893909Y-105415615D01*
X205300000Y-105415615D01*
X205160292Y-105441903D01*
X205031980Y-105524470D01*
X204945899Y-105650453D01*
X204915615Y-105800000D01*
X204915615Y-106198000D01*
X204884385Y-106198000D01*
X204884385Y-105850000D01*
X204858097Y-105710292D01*
X204775530Y-105581980D01*
X204649547Y-105495899D01*
X204500000Y-105465615D01*
X203100000Y-105465615D01*
X202960292Y-105491903D01*
X202831980Y-105574470D01*
X202745899Y-105700453D01*
X202715615Y-105850000D01*
X202715615Y-107550000D01*
X202741903Y-107689708D01*
X202779413Y-107748000D01*
X202426047Y-107748000D01*
X202477000Y-107624990D01*
X202477000Y-106921250D01*
X202382750Y-106827000D01*
X201527000Y-106827000D01*
X201527000Y-106847000D01*
X201273000Y-106847000D01*
X201273000Y-106827000D01*
X200417250Y-106827000D01*
X200323000Y-106921250D01*
X200323000Y-107624990D01*
X200373953Y-107748000D01*
X155387224Y-107748000D01*
X150952000Y-103312776D01*
X150952000Y-100856351D01*
X151814482Y-100856351D01*
X151938011Y-101154600D01*
X152254047Y-101514222D01*
X152683648Y-101725528D01*
X152873000Y-101666171D01*
X152873000Y-100667000D01*
X153127000Y-100667000D01*
X153127000Y-101666171D01*
X153316352Y-101725528D01*
X153745953Y-101514222D01*
X154061989Y-101154600D01*
X154185518Y-100856351D01*
X154125608Y-100667000D01*
X153127000Y-100667000D01*
X152873000Y-100667000D01*
X151874392Y-100667000D01*
X151814482Y-100856351D01*
X150952000Y-100856351D01*
X150952000Y-100223649D01*
X151814482Y-100223649D01*
X151874392Y-100413000D01*
X152873000Y-100413000D01*
X152873000Y-99413829D01*
X153127000Y-99413829D01*
X153127000Y-100413000D01*
X154125608Y-100413000D01*
X154185518Y-100223649D01*
X154061989Y-99925400D01*
X153745953Y-99565778D01*
X153316352Y-99354472D01*
X153127000Y-99413829D01*
X152873000Y-99413829D01*
X152683648Y-99354472D01*
X152254047Y-99565778D01*
X151938011Y-99925400D01*
X151814482Y-100223649D01*
X150952000Y-100223649D01*
X150952000Y-97150000D01*
X151765615Y-97150000D01*
X151765615Y-98850000D01*
X151791903Y-98989708D01*
X151874470Y-99118020D01*
X152000453Y-99204101D01*
X152150000Y-99234385D01*
X153524449Y-99234385D01*
X154045032Y-99754968D01*
X154207893Y-99863788D01*
X154400000Y-99902001D01*
X154400005Y-99902000D01*
X157799995Y-99902000D01*
X157800000Y-99902001D01*
X157992107Y-99863788D01*
X158154968Y-99754968D01*
X161074965Y-96834970D01*
X161074968Y-96834968D01*
X161183788Y-96672107D01*
X161185443Y-96663788D01*
X161222001Y-96480000D01*
X161222000Y-96479995D01*
X161222000Y-95652856D01*
X161552265Y-95432181D01*
X161807406Y-95050334D01*
X161897000Y-94599916D01*
X161897000Y-93840084D01*
X162083000Y-93840084D01*
X162083000Y-94599916D01*
X162172594Y-95050334D01*
X162427735Y-95432181D01*
X162758000Y-95652856D01*
X162758000Y-103359995D01*
X162757999Y-103360000D01*
X162796212Y-103552107D01*
X162905032Y-103714968D01*
X165745030Y-106554965D01*
X165745032Y-106554968D01*
X165849828Y-106624990D01*
X165907893Y-106663788D01*
X166100000Y-106702001D01*
X166100005Y-106702000D01*
X166565615Y-106702000D01*
X166565615Y-107000000D01*
X166591903Y-107139708D01*
X166674470Y-107268020D01*
X166800453Y-107354101D01*
X166950000Y-107384385D01*
X168550000Y-107384385D01*
X168689708Y-107358097D01*
X168818020Y-107275530D01*
X168903965Y-107149746D01*
X168930395Y-107213553D01*
X169036447Y-107319605D01*
X169175010Y-107377000D01*
X169828750Y-107377000D01*
X169923000Y-107282750D01*
X169923000Y-106327000D01*
X170177000Y-106327000D01*
X170177000Y-107282750D01*
X170271250Y-107377000D01*
X170924990Y-107377000D01*
X171063553Y-107319605D01*
X171169605Y-107213553D01*
X171227000Y-107074990D01*
X171227000Y-106421250D01*
X171132750Y-106327000D01*
X170177000Y-106327000D01*
X169923000Y-106327000D01*
X169903000Y-106327000D01*
X169903000Y-106073000D01*
X169923000Y-106073000D01*
X169923000Y-105117250D01*
X170177000Y-105117250D01*
X170177000Y-106073000D01*
X171132750Y-106073000D01*
X171227000Y-105978750D01*
X171227000Y-105325010D01*
X171169605Y-105186447D01*
X171063553Y-105080395D01*
X170924990Y-105023000D01*
X170271250Y-105023000D01*
X170177000Y-105117250D01*
X169923000Y-105117250D01*
X169828750Y-105023000D01*
X169175010Y-105023000D01*
X169036447Y-105080395D01*
X168930395Y-105186447D01*
X168903054Y-105252454D01*
X168825530Y-105131980D01*
X168699547Y-105045899D01*
X168550000Y-105015615D01*
X166950000Y-105015615D01*
X166810292Y-105041903D01*
X166681980Y-105124470D01*
X166595899Y-105250453D01*
X166565615Y-105400000D01*
X166565615Y-105698000D01*
X166307935Y-105698000D01*
X163762000Y-103152064D01*
X163762000Y-102752000D01*
X167215615Y-102752000D01*
X167215615Y-103050000D01*
X167241903Y-103189708D01*
X167324470Y-103318020D01*
X167450453Y-103404101D01*
X167600000Y-103434385D01*
X169200000Y-103434385D01*
X169339708Y-103408097D01*
X169468020Y-103325530D01*
X169554101Y-103199547D01*
X169584385Y-103050000D01*
X169584385Y-101450000D01*
X169558097Y-101310292D01*
X169475530Y-101181980D01*
X169353969Y-101098920D01*
X169468020Y-101025530D01*
X169554101Y-100899547D01*
X169584385Y-100750000D01*
X169584385Y-100202000D01*
X170798000Y-100202000D01*
X170798000Y-100215615D01*
X170450000Y-100215615D01*
X170310292Y-100241903D01*
X170181980Y-100324470D01*
X170095899Y-100450453D01*
X170065615Y-100600000D01*
X170065615Y-102000000D01*
X170091903Y-102139708D01*
X170174470Y-102268020D01*
X170300453Y-102354101D01*
X170450000Y-102384385D01*
X172150000Y-102384385D01*
X172289708Y-102358097D01*
X172418020Y-102275530D01*
X172504101Y-102149547D01*
X172534385Y-102000000D01*
X172534385Y-100880000D01*
X172699941Y-100880000D01*
X172789535Y-101330418D01*
X173044676Y-101712265D01*
X173426523Y-101967406D01*
X173876941Y-102057000D01*
X173923059Y-102057000D01*
X174373477Y-101967406D01*
X174755324Y-101712265D01*
X175010465Y-101330418D01*
X175100059Y-100880000D01*
X180319941Y-100880000D01*
X180409535Y-101330418D01*
X180664676Y-101712265D01*
X181046523Y-101967406D01*
X181496941Y-102057000D01*
X181543059Y-102057000D01*
X181993477Y-101967406D01*
X182375324Y-101712265D01*
X182630465Y-101330418D01*
X182720059Y-100880000D01*
X182630465Y-100429582D01*
X182375324Y-100047735D01*
X181993477Y-99792594D01*
X181543059Y-99703000D01*
X181496941Y-99703000D01*
X181046523Y-99792594D01*
X180664676Y-100047735D01*
X180409535Y-100429582D01*
X180319941Y-100880000D01*
X175100059Y-100880000D01*
X175010465Y-100429582D01*
X174755324Y-100047735D01*
X174373477Y-99792594D01*
X173923059Y-99703000D01*
X173876941Y-99703000D01*
X173426523Y-99792594D01*
X173044676Y-100047735D01*
X172789535Y-100429582D01*
X172699941Y-100880000D01*
X172534385Y-100880000D01*
X172534385Y-100600000D01*
X172508097Y-100460292D01*
X172425530Y-100331980D01*
X172299547Y-100245899D01*
X172150000Y-100215615D01*
X171802000Y-100215615D01*
X171802000Y-100202000D01*
X172539995Y-100202000D01*
X172540000Y-100202001D01*
X172732107Y-100163788D01*
X172894968Y-100054968D01*
X173274965Y-99674970D01*
X173274968Y-99674968D01*
X173506601Y-99443335D01*
X173876941Y-99517000D01*
X173923059Y-99517000D01*
X174373477Y-99427406D01*
X174755324Y-99172265D01*
X175010465Y-98790418D01*
X175100059Y-98340000D01*
X175010465Y-97889582D01*
X174755324Y-97507735D01*
X174373477Y-97252594D01*
X173923059Y-97163000D01*
X173876941Y-97163000D01*
X173426523Y-97252594D01*
X173102000Y-97469432D01*
X173102000Y-96977000D01*
X173678750Y-96977000D01*
X173773000Y-96882750D01*
X173773000Y-95927000D01*
X174027000Y-95927000D01*
X174027000Y-96882750D01*
X174121250Y-96977000D01*
X174774990Y-96977000D01*
X174913553Y-96919605D01*
X175019605Y-96813553D01*
X175077000Y-96674990D01*
X175077000Y-96021250D01*
X174982750Y-95927000D01*
X174027000Y-95927000D01*
X173773000Y-95927000D01*
X173753000Y-95927000D01*
X173753000Y-95673000D01*
X173773000Y-95673000D01*
X173773000Y-94717250D01*
X174027000Y-94717250D01*
X174027000Y-95673000D01*
X174982750Y-95673000D01*
X175077000Y-95578750D01*
X175077000Y-94925010D01*
X175019605Y-94786447D01*
X174913553Y-94680395D01*
X174774990Y-94623000D01*
X174121250Y-94623000D01*
X174027000Y-94717250D01*
X173773000Y-94717250D01*
X173678750Y-94623000D01*
X173102000Y-94623000D01*
X173102000Y-93421250D01*
X173573000Y-93421250D01*
X173573000Y-94074990D01*
X173630395Y-94213553D01*
X173736447Y-94319605D01*
X173875010Y-94377000D01*
X174528750Y-94377000D01*
X174623000Y-94282750D01*
X174623000Y-93327000D01*
X173667250Y-93327000D01*
X173573000Y-93421250D01*
X173102000Y-93421250D01*
X173102000Y-92307936D01*
X173465656Y-91944280D01*
X173764988Y-92068573D01*
X173736447Y-92080395D01*
X173630395Y-92186447D01*
X173573000Y-92325010D01*
X173573000Y-92978750D01*
X173667250Y-93073000D01*
X174623000Y-93073000D01*
X174623000Y-92117250D01*
X174877000Y-92117250D01*
X174877000Y-93073000D01*
X174897000Y-93073000D01*
X174897000Y-93327000D01*
X174877000Y-93327000D01*
X174877000Y-94282750D01*
X174971250Y-94377000D01*
X175624990Y-94377000D01*
X175763553Y-94319605D01*
X175869605Y-94213553D01*
X175896946Y-94147546D01*
X175974470Y-94268020D01*
X176100453Y-94354101D01*
X176250000Y-94384385D01*
X177798000Y-94384385D01*
X177798000Y-94544537D01*
X177726402Y-94616010D01*
X177623118Y-94864746D01*
X177622883Y-95134073D01*
X177725733Y-95382989D01*
X177916010Y-95573598D01*
X178164746Y-95676882D01*
X178434073Y-95677117D01*
X178682989Y-95574267D01*
X178873598Y-95383990D01*
X178976882Y-95135254D01*
X178977117Y-94865927D01*
X178874267Y-94617011D01*
X178802000Y-94544618D01*
X178802000Y-94434385D01*
X180098000Y-94434385D01*
X180098000Y-94600000D01*
X180136212Y-94792107D01*
X180245032Y-94954968D01*
X180407893Y-95063788D01*
X180577901Y-95097604D01*
X180409535Y-95349582D01*
X180319941Y-95800000D01*
X180409535Y-96250418D01*
X180664676Y-96632265D01*
X181046523Y-96887406D01*
X181496941Y-96977000D01*
X181543059Y-96977000D01*
X181993477Y-96887406D01*
X182375324Y-96632265D01*
X182630465Y-96250418D01*
X182665309Y-96075245D01*
X182745030Y-96154965D01*
X182745032Y-96154968D01*
X182865615Y-96235539D01*
X182865615Y-96500000D01*
X182891903Y-96639708D01*
X182974470Y-96768020D01*
X183100453Y-96854101D01*
X183250000Y-96884385D01*
X184705679Y-96884385D01*
X184474449Y-97115615D01*
X183250000Y-97115615D01*
X183110292Y-97141903D01*
X182981980Y-97224470D01*
X182895899Y-97350453D01*
X182865615Y-97500000D01*
X182865615Y-97698000D01*
X182502455Y-97698000D01*
X182375324Y-97507735D01*
X181993477Y-97252594D01*
X181543059Y-97163000D01*
X181496941Y-97163000D01*
X181046523Y-97252594D01*
X180664676Y-97507735D01*
X180409535Y-97889582D01*
X180319941Y-98340000D01*
X180409535Y-98790418D01*
X180664676Y-99172265D01*
X181046523Y-99427406D01*
X181496941Y-99517000D01*
X181543059Y-99517000D01*
X181993477Y-99427406D01*
X182375324Y-99172265D01*
X182630465Y-98790418D01*
X182648052Y-98702000D01*
X182865615Y-98702000D01*
X182865615Y-98900000D01*
X182891903Y-99039708D01*
X182974470Y-99168020D01*
X183100453Y-99254101D01*
X183250000Y-99284385D01*
X184950000Y-99284385D01*
X185089708Y-99258097D01*
X185218020Y-99175530D01*
X185304101Y-99049547D01*
X185334385Y-98900000D01*
X185334385Y-97675551D01*
X186154968Y-96854968D01*
X186263788Y-96692108D01*
X186302001Y-96500000D01*
X186302000Y-96499995D01*
X186302000Y-96077002D01*
X186434073Y-96077117D01*
X186682989Y-95974267D01*
X186873598Y-95783990D01*
X186976882Y-95535254D01*
X186977117Y-95265927D01*
X186874267Y-95017011D01*
X186683990Y-94826402D01*
X186435254Y-94723118D01*
X186302000Y-94723002D01*
X186302000Y-94500005D01*
X186302001Y-94500000D01*
X186263788Y-94307893D01*
X186225112Y-94250010D01*
X186154968Y-94145032D01*
X186154965Y-94145030D01*
X185044009Y-93034073D01*
X185722883Y-93034073D01*
X185825733Y-93282989D01*
X186016010Y-93473598D01*
X186264746Y-93576882D01*
X186367035Y-93576971D01*
X187022971Y-94232907D01*
X187022883Y-94334073D01*
X187125733Y-94582989D01*
X187316010Y-94773598D01*
X187564746Y-94876882D01*
X187834073Y-94877117D01*
X188082989Y-94774267D01*
X188273598Y-94583990D01*
X188376882Y-94335254D01*
X188377117Y-94065927D01*
X188274267Y-93817011D01*
X188083990Y-93626402D01*
X187835254Y-93523118D01*
X187732964Y-93523029D01*
X187077029Y-92867093D01*
X187077117Y-92765927D01*
X186974267Y-92517011D01*
X186783990Y-92326402D01*
X186535254Y-92223118D01*
X186265927Y-92222883D01*
X186017011Y-92325733D01*
X185826402Y-92516010D01*
X185723118Y-92764746D01*
X185722883Y-93034073D01*
X185044009Y-93034073D01*
X184854968Y-92845032D01*
X184692107Y-92736212D01*
X184500000Y-92697999D01*
X184499995Y-92698000D01*
X182884385Y-92698000D01*
X182884385Y-92350000D01*
X182858097Y-92210292D01*
X182775530Y-92081980D01*
X182649547Y-91995899D01*
X182500000Y-91965615D01*
X182122000Y-91965615D01*
X182122000Y-91949081D01*
X182402654Y-91761554D01*
X182636118Y-91412150D01*
X182718100Y-91000000D01*
X182636118Y-90587850D01*
X182402654Y-90238446D01*
X182053250Y-90004982D01*
X181641100Y-89923000D01*
X181598900Y-89923000D01*
X181186750Y-90004982D01*
X180837346Y-90238446D01*
X180603882Y-90587850D01*
X180521900Y-91000000D01*
X180549701Y-91139766D01*
X180352000Y-90942064D01*
X180352000Y-89784385D01*
X180650000Y-89784385D01*
X180789708Y-89758097D01*
X180918020Y-89675530D01*
X181004101Y-89549547D01*
X181034385Y-89400000D01*
X181034385Y-88556352D01*
X182834472Y-88556352D01*
X183045778Y-88985953D01*
X183405400Y-89301989D01*
X183703649Y-89425518D01*
X183893000Y-89365608D01*
X183893000Y-88367000D01*
X184147000Y-88367000D01*
X184147000Y-89365608D01*
X184336351Y-89425518D01*
X184634600Y-89301989D01*
X184994222Y-88985953D01*
X185205528Y-88556352D01*
X185146171Y-88367000D01*
X184147000Y-88367000D01*
X183893000Y-88367000D01*
X182893829Y-88367000D01*
X182834472Y-88556352D01*
X181034385Y-88556352D01*
X181034385Y-87923648D01*
X182834472Y-87923648D01*
X182893829Y-88113000D01*
X183893000Y-88113000D01*
X183893000Y-87114392D01*
X184147000Y-87114392D01*
X184147000Y-88113000D01*
X185146171Y-88113000D01*
X185205528Y-87923648D01*
X184994222Y-87494047D01*
X184634600Y-87178011D01*
X184336351Y-87054482D01*
X184147000Y-87114392D01*
X183893000Y-87114392D01*
X183703649Y-87054482D01*
X183405400Y-87178011D01*
X183045778Y-87494047D01*
X182834472Y-87923648D01*
X181034385Y-87923648D01*
X181034385Y-87800000D01*
X181008097Y-87660292D01*
X180925530Y-87531980D01*
X180799547Y-87445899D01*
X180650000Y-87415615D01*
X179050000Y-87415615D01*
X178910292Y-87441903D01*
X178781980Y-87524470D01*
X178696035Y-87650254D01*
X178669605Y-87586447D01*
X178563553Y-87480395D01*
X178424990Y-87423000D01*
X177771250Y-87423000D01*
X177677000Y-87517250D01*
X177677000Y-88473000D01*
X177697000Y-88473000D01*
X177697000Y-88727000D01*
X177677000Y-88727000D01*
X177677000Y-89682750D01*
X177771250Y-89777000D01*
X178424990Y-89777000D01*
X178563553Y-89719605D01*
X178669605Y-89613553D01*
X178696946Y-89547546D01*
X178774470Y-89668020D01*
X178900453Y-89754101D01*
X179050000Y-89784385D01*
X179348000Y-89784385D01*
X179348000Y-91149995D01*
X179347999Y-91150000D01*
X179386212Y-91342107D01*
X179495032Y-91504968D01*
X179955680Y-91965615D01*
X178700000Y-91965615D01*
X178560292Y-91991903D01*
X178431980Y-92074470D01*
X178345899Y-92200453D01*
X178315615Y-92350000D01*
X178315615Y-92698000D01*
X178234385Y-92698000D01*
X178234385Y-92400000D01*
X178208097Y-92260292D01*
X178125530Y-92131980D01*
X177999547Y-92045899D01*
X177850000Y-92015615D01*
X176250000Y-92015615D01*
X176110292Y-92041903D01*
X175981980Y-92124470D01*
X175896035Y-92250254D01*
X175869605Y-92186447D01*
X175763553Y-92080395D01*
X175624990Y-92023000D01*
X174971250Y-92023000D01*
X174877000Y-92117250D01*
X174623000Y-92117250D01*
X174528750Y-92023000D01*
X174344432Y-92023000D01*
X174609275Y-91913569D01*
X174912504Y-91610868D01*
X175076813Y-91215168D01*
X175077187Y-90786711D01*
X174913569Y-90390725D01*
X174610868Y-90087496D01*
X174215168Y-89923187D01*
X173786711Y-89922813D01*
X173390725Y-90086431D01*
X173087496Y-90389132D01*
X172923187Y-90784832D01*
X172922941Y-91067123D01*
X172245032Y-91745032D01*
X172136212Y-91907893D01*
X172097999Y-92100000D01*
X172098000Y-92100005D01*
X172098000Y-94623000D01*
X171521250Y-94623000D01*
X171427000Y-94717250D01*
X171427000Y-95573000D01*
X171447000Y-95573000D01*
X171447000Y-95827000D01*
X171427000Y-95827000D01*
X171427000Y-96682750D01*
X171521250Y-96777000D01*
X172098000Y-96777000D01*
X172098000Y-97015615D01*
X170450000Y-97015615D01*
X170310292Y-97041903D01*
X170181980Y-97124470D01*
X170095899Y-97250453D01*
X170065615Y-97400000D01*
X170065615Y-98800000D01*
X170091903Y-98939708D01*
X170174470Y-99068020D01*
X170300453Y-99154101D01*
X170450000Y-99184385D01*
X170798000Y-99184385D01*
X170798000Y-99198000D01*
X169584385Y-99198000D01*
X169584385Y-99150000D01*
X169558097Y-99010292D01*
X169475530Y-98881980D01*
X169349547Y-98795899D01*
X169200000Y-98765615D01*
X167600000Y-98765615D01*
X167460292Y-98791903D01*
X167331980Y-98874470D01*
X167245899Y-99000453D01*
X167215615Y-99150000D01*
X167215615Y-100750000D01*
X167241903Y-100889708D01*
X167324470Y-101018020D01*
X167446031Y-101101080D01*
X167331980Y-101174470D01*
X167245899Y-101300453D01*
X167215615Y-101450000D01*
X167215615Y-101748000D01*
X163762000Y-101748000D01*
X163762000Y-97996942D01*
X164104053Y-98339593D01*
X164554864Y-98526786D01*
X165042995Y-98527212D01*
X165494131Y-98340806D01*
X165839593Y-97995947D01*
X166026786Y-97545136D01*
X166027212Y-97057005D01*
X165840806Y-96605869D01*
X165495947Y-96260407D01*
X165045136Y-96073214D01*
X164557005Y-96072788D01*
X164105869Y-96259194D01*
X163762000Y-96602463D01*
X163762000Y-95921250D01*
X170073000Y-95921250D01*
X170073000Y-96474990D01*
X170130395Y-96613553D01*
X170236447Y-96719605D01*
X170375010Y-96777000D01*
X171078750Y-96777000D01*
X171173000Y-96682750D01*
X171173000Y-95827000D01*
X170167250Y-95827000D01*
X170073000Y-95921250D01*
X163762000Y-95921250D01*
X163762000Y-95652856D01*
X164092265Y-95432181D01*
X164347406Y-95050334D01*
X164437000Y-94599916D01*
X164437000Y-93840084D01*
X164623000Y-93840084D01*
X164623000Y-94599916D01*
X164712594Y-95050334D01*
X164967735Y-95432181D01*
X165349582Y-95687322D01*
X165800000Y-95776916D01*
X166250418Y-95687322D01*
X166632265Y-95432181D01*
X166887406Y-95050334D01*
X166977000Y-94599916D01*
X166977000Y-93840084D01*
X166962541Y-93767395D01*
X167477936Y-93252000D01*
X168665615Y-93252000D01*
X168665615Y-94400000D01*
X168691903Y-94539708D01*
X168774470Y-94668020D01*
X168900453Y-94754101D01*
X169050000Y-94784385D01*
X170132457Y-94784385D01*
X170130395Y-94786447D01*
X170073000Y-94925010D01*
X170073000Y-95478750D01*
X170167250Y-95573000D01*
X171173000Y-95573000D01*
X171173000Y-94717250D01*
X171078750Y-94623000D01*
X171053912Y-94623000D01*
X171104101Y-94549547D01*
X171134385Y-94400000D01*
X171134385Y-92225551D01*
X172154965Y-91204970D01*
X172154968Y-91204968D01*
X172263788Y-91042107D01*
X172281121Y-90954967D01*
X172302001Y-90850000D01*
X172302000Y-90849995D01*
X172302000Y-89507936D01*
X172515615Y-89294321D01*
X172515615Y-89350000D01*
X172541903Y-89489708D01*
X172624470Y-89618020D01*
X172750453Y-89704101D01*
X172900000Y-89734385D01*
X173700000Y-89734385D01*
X173839708Y-89708097D01*
X173968020Y-89625530D01*
X174054101Y-89499547D01*
X174084385Y-89350000D01*
X174084385Y-88821250D01*
X176373000Y-88821250D01*
X176373000Y-89474990D01*
X176430395Y-89613553D01*
X176536447Y-89719605D01*
X176675010Y-89777000D01*
X177328750Y-89777000D01*
X177423000Y-89682750D01*
X177423000Y-88727000D01*
X176467250Y-88727000D01*
X176373000Y-88821250D01*
X174084385Y-88821250D01*
X174084385Y-87725010D01*
X176373000Y-87725010D01*
X176373000Y-88378750D01*
X176467250Y-88473000D01*
X177423000Y-88473000D01*
X177423000Y-87517250D01*
X177328750Y-87423000D01*
X176675010Y-87423000D01*
X176536447Y-87480395D01*
X176430395Y-87586447D01*
X176373000Y-87725010D01*
X174084385Y-87725010D01*
X174084385Y-87450000D01*
X174058097Y-87310292D01*
X173975530Y-87181980D01*
X173849547Y-87095899D01*
X173700000Y-87065615D01*
X172900000Y-87065615D01*
X172760292Y-87091903D01*
X172631980Y-87174470D01*
X172545899Y-87300453D01*
X172515615Y-87450000D01*
X172515615Y-87934676D01*
X172507892Y-87936212D01*
X172463888Y-87965615D01*
X172345032Y-88045032D01*
X172345030Y-88045035D01*
X171445032Y-88945032D01*
X171336212Y-89107893D01*
X171297999Y-89300000D01*
X171298000Y-89300005D01*
X171298000Y-90642065D01*
X171057853Y-90882212D01*
X171025530Y-90831980D01*
X170899547Y-90745899D01*
X170750000Y-90715615D01*
X169050000Y-90715615D01*
X168910292Y-90741903D01*
X168781980Y-90824470D01*
X168695899Y-90950453D01*
X168665615Y-91100000D01*
X168665615Y-92248000D01*
X167270005Y-92248000D01*
X167270000Y-92247999D01*
X167077893Y-92286212D01*
X166915032Y-92395032D01*
X166434432Y-92875632D01*
X166250418Y-92752678D01*
X165800000Y-92663084D01*
X165349582Y-92752678D01*
X164967735Y-93007819D01*
X164712594Y-93389666D01*
X164623000Y-93840084D01*
X164437000Y-93840084D01*
X164347406Y-93389666D01*
X164092265Y-93007819D01*
X163710418Y-92752678D01*
X163260000Y-92663084D01*
X162809582Y-92752678D01*
X162427735Y-93007819D01*
X162172594Y-93389666D01*
X162083000Y-93840084D01*
X161897000Y-93840084D01*
X161807406Y-93389666D01*
X161552265Y-93007819D01*
X161170418Y-92752678D01*
X160720000Y-92663084D01*
X160269582Y-92752678D01*
X159887735Y-93007819D01*
X159632594Y-93389666D01*
X159543000Y-93840084D01*
X159543000Y-94599916D01*
X159632594Y-95050334D01*
X159887735Y-95432181D01*
X160218000Y-95652856D01*
X160218000Y-96272065D01*
X157592064Y-98898000D01*
X154607936Y-98898000D01*
X154234385Y-98524449D01*
X154234385Y-97150000D01*
X154208097Y-97010292D01*
X154125530Y-96881980D01*
X153999547Y-96795899D01*
X153850000Y-96765615D01*
X152150000Y-96765615D01*
X152010292Y-96791903D01*
X151881980Y-96874470D01*
X151795899Y-97000453D01*
X151765615Y-97150000D01*
X150952000Y-97150000D01*
X150952000Y-93840084D01*
X154463000Y-93840084D01*
X154463000Y-94599916D01*
X154552594Y-95050334D01*
X154807735Y-95432181D01*
X155189582Y-95687322D01*
X155640000Y-95776916D01*
X156090418Y-95687322D01*
X156309786Y-95540746D01*
X156297999Y-95600000D01*
X156298000Y-95600005D01*
X156298000Y-96179807D01*
X156105869Y-96259194D01*
X155760407Y-96604053D01*
X155573214Y-97054864D01*
X155572788Y-97542995D01*
X155759194Y-97994131D01*
X156104053Y-98339593D01*
X156554864Y-98526786D01*
X157042995Y-98527212D01*
X157494131Y-98340806D01*
X157839593Y-97995947D01*
X158026786Y-97545136D01*
X158027212Y-97057005D01*
X157840806Y-96605869D01*
X157495947Y-96260407D01*
X157302000Y-96179873D01*
X157302000Y-95807936D01*
X157545568Y-95564368D01*
X157729582Y-95687322D01*
X158180000Y-95776916D01*
X158630418Y-95687322D01*
X159012265Y-95432181D01*
X159267406Y-95050334D01*
X159357000Y-94599916D01*
X159357000Y-93840084D01*
X159267406Y-93389666D01*
X159208472Y-93301464D01*
X163614968Y-88894968D01*
X163723788Y-88732107D01*
X163762001Y-88540000D01*
X163762000Y-88539995D01*
X163762000Y-88032856D01*
X164092265Y-87812181D01*
X164347406Y-87430334D01*
X164437000Y-86979916D01*
X164437000Y-86220084D01*
X164623000Y-86220084D01*
X164623000Y-86979916D01*
X164712594Y-87430334D01*
X164967735Y-87812181D01*
X165349582Y-88067322D01*
X165800000Y-88156916D01*
X166250418Y-88067322D01*
X166632265Y-87812181D01*
X166672476Y-87752000D01*
X168665615Y-87752000D01*
X168665615Y-88900000D01*
X168691903Y-89039708D01*
X168774470Y-89168020D01*
X168900453Y-89254101D01*
X169050000Y-89284385D01*
X170750000Y-89284385D01*
X170889708Y-89258097D01*
X171018020Y-89175530D01*
X171104101Y-89049547D01*
X171134385Y-88900000D01*
X171134385Y-85621250D01*
X171573000Y-85621250D01*
X171573000Y-86424990D01*
X171630395Y-86563553D01*
X171736447Y-86669605D01*
X171875010Y-86727000D01*
X172128750Y-86727000D01*
X172223000Y-86632750D01*
X172223000Y-85527000D01*
X172477000Y-85527000D01*
X172477000Y-86632750D01*
X172571250Y-86727000D01*
X172824990Y-86727000D01*
X172963553Y-86669605D01*
X173069605Y-86563553D01*
X173127000Y-86424990D01*
X173127000Y-85621250D01*
X173032750Y-85527000D01*
X172477000Y-85527000D01*
X172223000Y-85527000D01*
X171667250Y-85527000D01*
X171573000Y-85621250D01*
X171134385Y-85621250D01*
X171134385Y-85600000D01*
X171108097Y-85460292D01*
X171025530Y-85331980D01*
X170899547Y-85245899D01*
X170750000Y-85215615D01*
X169050000Y-85215615D01*
X168910292Y-85241903D01*
X168781980Y-85324470D01*
X168695899Y-85450453D01*
X168665615Y-85600000D01*
X168665615Y-86748000D01*
X166977000Y-86748000D01*
X166977000Y-86220084D01*
X166887406Y-85769666D01*
X166632265Y-85387819D01*
X166250418Y-85132678D01*
X165800000Y-85043084D01*
X165349582Y-85132678D01*
X164967735Y-85387819D01*
X164712594Y-85769666D01*
X164623000Y-86220084D01*
X164437000Y-86220084D01*
X164347406Y-85769666D01*
X164092265Y-85387819D01*
X163710418Y-85132678D01*
X163260000Y-85043084D01*
X162809582Y-85132678D01*
X162427735Y-85387819D01*
X162172594Y-85769666D01*
X162083000Y-86220084D01*
X162083000Y-86979916D01*
X162172594Y-87430334D01*
X162427735Y-87812181D01*
X162758000Y-88032856D01*
X162758000Y-88332064D01*
X158386003Y-92704061D01*
X158180000Y-92663084D01*
X157729582Y-92752678D01*
X157347735Y-93007819D01*
X157092594Y-93389666D01*
X157003000Y-93840084D01*
X157003000Y-94599916D01*
X157017459Y-94672606D01*
X156749176Y-94940888D01*
X156817000Y-94599916D01*
X156817000Y-93840084D01*
X156727406Y-93389666D01*
X156472265Y-93007819D01*
X156090418Y-92752678D01*
X155640000Y-92663084D01*
X155189582Y-92752678D01*
X154807735Y-93007819D01*
X154552594Y-93389666D01*
X154463000Y-93840084D01*
X150952000Y-93840084D01*
X150952000Y-88087224D01*
X152819140Y-86220084D01*
X154463000Y-86220084D01*
X154463000Y-86979916D01*
X154552594Y-87430334D01*
X154807735Y-87812181D01*
X155189582Y-88067322D01*
X155640000Y-88156916D01*
X156090418Y-88067322D01*
X156472265Y-87812181D01*
X156727406Y-87430334D01*
X156817000Y-86979916D01*
X156817000Y-86220084D01*
X157003000Y-86220084D01*
X157003000Y-86979916D01*
X157092594Y-87430334D01*
X157347735Y-87812181D01*
X157729582Y-88067322D01*
X158180000Y-88156916D01*
X158630418Y-88067322D01*
X159012265Y-87812181D01*
X159267406Y-87430334D01*
X159357000Y-86979916D01*
X159357000Y-86727000D01*
X159543000Y-86727000D01*
X159543000Y-87077000D01*
X159681195Y-87517751D01*
X159977538Y-87872067D01*
X160411515Y-88085855D01*
X160593000Y-88025276D01*
X160593000Y-86727000D01*
X160847000Y-86727000D01*
X160847000Y-88025276D01*
X161028485Y-88085855D01*
X161462462Y-87872067D01*
X161758805Y-87517751D01*
X161897000Y-87077000D01*
X161897000Y-86727000D01*
X160847000Y-86727000D01*
X160593000Y-86727000D01*
X159543000Y-86727000D01*
X159357000Y-86727000D01*
X159357000Y-86220084D01*
X159337689Y-86123000D01*
X159543000Y-86123000D01*
X159543000Y-86473000D01*
X160593000Y-86473000D01*
X160593000Y-85174724D01*
X160847000Y-85174724D01*
X160847000Y-86473000D01*
X161897000Y-86473000D01*
X161897000Y-86123000D01*
X161758805Y-85682249D01*
X161462462Y-85327933D01*
X161028485Y-85114145D01*
X160847000Y-85174724D01*
X160593000Y-85174724D01*
X160411515Y-85114145D01*
X159977538Y-85327933D01*
X159681195Y-85682249D01*
X159543000Y-86123000D01*
X159337689Y-86123000D01*
X159267406Y-85769666D01*
X159012265Y-85387819D01*
X158630418Y-85132678D01*
X158180000Y-85043084D01*
X157729582Y-85132678D01*
X157347735Y-85387819D01*
X157092594Y-85769666D01*
X157003000Y-86220084D01*
X156817000Y-86220084D01*
X156727406Y-85769666D01*
X156472265Y-85387819D01*
X156090418Y-85132678D01*
X155640000Y-85043084D01*
X155189582Y-85132678D01*
X154807735Y-85387819D01*
X154552594Y-85769666D01*
X154463000Y-86220084D01*
X152819140Y-86220084D01*
X154664214Y-84375010D01*
X171573000Y-84375010D01*
X171573000Y-85178750D01*
X171667250Y-85273000D01*
X172223000Y-85273000D01*
X172223000Y-84167250D01*
X172477000Y-84167250D01*
X172477000Y-85273000D01*
X173032750Y-85273000D01*
X173127000Y-85178750D01*
X173127000Y-84450000D01*
X173465615Y-84450000D01*
X173465615Y-86350000D01*
X173491903Y-86489708D01*
X173574470Y-86618020D01*
X173700453Y-86704101D01*
X173850000Y-86734385D01*
X174650000Y-86734385D01*
X174789708Y-86708097D01*
X174918020Y-86625530D01*
X175004101Y-86499547D01*
X175034385Y-86350000D01*
X175034385Y-85902000D01*
X175415615Y-85902000D01*
X175415615Y-86150000D01*
X175441903Y-86289708D01*
X175524470Y-86418020D01*
X175650453Y-86504101D01*
X175800000Y-86534385D01*
X177200000Y-86534385D01*
X177339708Y-86508097D01*
X177468020Y-86425530D01*
X177554101Y-86299547D01*
X177584385Y-86150000D01*
X177584385Y-84450000D01*
X177558097Y-84310292D01*
X177475530Y-84181980D01*
X177349547Y-84095899D01*
X177200000Y-84065615D01*
X175800000Y-84065615D01*
X175660292Y-84091903D01*
X175531980Y-84174470D01*
X175445899Y-84300453D01*
X175415615Y-84450000D01*
X175415615Y-84898000D01*
X175034385Y-84898000D01*
X175034385Y-84450000D01*
X175008097Y-84310292D01*
X174925530Y-84181980D01*
X174799547Y-84095899D01*
X174650000Y-84065615D01*
X173850000Y-84065615D01*
X173710292Y-84091903D01*
X173581980Y-84174470D01*
X173495899Y-84300453D01*
X173465615Y-84450000D01*
X173127000Y-84450000D01*
X173127000Y-84375010D01*
X173069605Y-84236447D01*
X172963553Y-84130395D01*
X172824990Y-84073000D01*
X172571250Y-84073000D01*
X172477000Y-84167250D01*
X172223000Y-84167250D01*
X172128750Y-84073000D01*
X171875010Y-84073000D01*
X171736447Y-84130395D01*
X171630395Y-84236447D01*
X171573000Y-84375010D01*
X154664214Y-84375010D01*
X155087224Y-83952000D01*
X182584264Y-83952000D01*
X182542660Y-83979800D01*
X182542660Y-83979800D01*
G37*
X182542660Y-83979800D02*
X182445032Y-84045032D01*
X182445030Y-84045035D01*
X181692064Y-84798000D01*
X179984385Y-84798000D01*
X179984385Y-84450000D01*
X179958097Y-84310292D01*
X179875530Y-84181980D01*
X179749547Y-84095899D01*
X179600000Y-84065615D01*
X178200000Y-84065615D01*
X178060292Y-84091903D01*
X177931980Y-84174470D01*
X177845899Y-84300453D01*
X177815615Y-84450000D01*
X177815615Y-86150000D01*
X177841903Y-86289708D01*
X177924470Y-86418020D01*
X178050453Y-86504101D01*
X178200000Y-86534385D01*
X179600000Y-86534385D01*
X179739708Y-86508097D01*
X179868020Y-86425530D01*
X179954101Y-86299547D01*
X179984385Y-86150000D01*
X179984385Y-85802000D01*
X181899995Y-85802000D01*
X181900000Y-85802001D01*
X182092107Y-85763788D01*
X182254968Y-85654968D01*
X183007935Y-84902000D01*
X183089800Y-84902000D01*
X182886400Y-85206409D01*
X182793000Y-85675962D01*
X182793000Y-85724038D01*
X182886400Y-86193591D01*
X183152380Y-86591658D01*
X183550447Y-86857638D01*
X184020000Y-86951038D01*
X184489553Y-86857638D01*
X184887620Y-86591658D01*
X185153600Y-86193591D01*
X185247000Y-85724038D01*
X185247000Y-85675962D01*
X185153600Y-85206409D01*
X184950200Y-84902000D01*
X185629800Y-84902000D01*
X185426400Y-85206409D01*
X185333000Y-85675962D01*
X185333000Y-85724038D01*
X185426400Y-86193591D01*
X185692380Y-86591658D01*
X186090447Y-86857638D01*
X186560000Y-86951038D01*
X187029553Y-86857638D01*
X187040433Y-86850368D01*
X187298000Y-87107935D01*
X187298000Y-87261733D01*
X187029553Y-87082362D01*
X186560000Y-86988962D01*
X186090447Y-87082362D01*
X185692380Y-87348342D01*
X185426400Y-87746409D01*
X185333000Y-88215962D01*
X185333000Y-88264038D01*
X185426400Y-88733591D01*
X185692380Y-89131658D01*
X186090447Y-89397638D01*
X186560000Y-89491038D01*
X187029553Y-89397638D01*
X187318764Y-89204393D01*
X187336212Y-89292107D01*
X187445032Y-89454968D01*
X188945030Y-90954965D01*
X188945032Y-90954968D01*
X189012427Y-91000000D01*
X188945032Y-91045032D01*
X188645032Y-91345032D01*
X188536212Y-91507893D01*
X188497999Y-91700000D01*
X188498000Y-91700005D01*
X188498000Y-102998000D01*
X186234385Y-102998000D01*
X186234385Y-101600000D01*
X186208097Y-101460292D01*
X186125530Y-101331980D01*
X185999547Y-101245899D01*
X185850000Y-101215615D01*
X183850000Y-101215615D01*
X183710292Y-101241903D01*
X183581980Y-101324470D01*
X183495899Y-101450453D01*
X183465615Y-101600000D01*
X183465615Y-105400000D01*
X183491903Y-105539708D01*
X183529413Y-105598000D01*
X176302000Y-105598000D01*
X176302000Y-104755463D01*
X176373598Y-104683990D01*
X176476882Y-104435254D01*
X176477117Y-104165927D01*
X176374267Y-103917011D01*
X176183990Y-103726402D01*
X175935254Y-103623118D01*
X175665927Y-103622883D01*
X175417011Y-103725733D01*
X175226402Y-103916010D01*
X175123118Y-104164746D01*
X175122883Y-104434073D01*
X175225733Y-104682989D01*
X175298000Y-104755382D01*
X175298000Y-105598000D01*
X173907935Y-105598000D01*
X172534385Y-104224449D01*
X172534385Y-103728485D01*
X172764145Y-103728485D01*
X172878688Y-104005045D01*
X173180318Y-104351350D01*
X173591513Y-104555866D01*
X173773000Y-104495890D01*
X173773000Y-103547000D01*
X174027000Y-103547000D01*
X174027000Y-104495890D01*
X174208487Y-104555866D01*
X174619682Y-104351350D01*
X174921312Y-104005045D01*
X175035855Y-103728485D01*
X174975276Y-103547000D01*
X174027000Y-103547000D01*
X173773000Y-103547000D01*
X172824724Y-103547000D01*
X172764145Y-103728485D01*
X172534385Y-103728485D01*
X172534385Y-103420000D01*
X180319941Y-103420000D01*
X180409535Y-103870418D01*
X180664676Y-104252265D01*
X181046523Y-104507406D01*
X181496941Y-104597000D01*
X181543059Y-104597000D01*
X181993477Y-104507406D01*
X182375324Y-104252265D01*
X182630465Y-103870418D01*
X182720059Y-103420000D01*
X182630465Y-102969582D01*
X182375324Y-102587735D01*
X181993477Y-102332594D01*
X181543059Y-102243000D01*
X181496941Y-102243000D01*
X181046523Y-102332594D01*
X180664676Y-102587735D01*
X180409535Y-102969582D01*
X180319941Y-103420000D01*
X172534385Y-103420000D01*
X172534385Y-103111515D01*
X172764145Y-103111515D01*
X172824724Y-103293000D01*
X173773000Y-103293000D01*
X173773000Y-102344110D01*
X174027000Y-102344110D01*
X174027000Y-103293000D01*
X174975276Y-103293000D01*
X175035855Y-103111515D01*
X174921312Y-102834955D01*
X174619682Y-102488650D01*
X174208487Y-102284134D01*
X174027000Y-102344110D01*
X173773000Y-102344110D01*
X173591513Y-102284134D01*
X173180318Y-102488650D01*
X172878688Y-102834955D01*
X172764145Y-103111515D01*
X172534385Y-103111515D01*
X172534385Y-103000000D01*
X172508097Y-102860292D01*
X172425530Y-102731980D01*
X172299547Y-102645899D01*
X172150000Y-102615615D01*
X170450000Y-102615615D01*
X170310292Y-102641903D01*
X170181980Y-102724470D01*
X170095899Y-102850453D01*
X170065615Y-103000000D01*
X170065615Y-104400000D01*
X170091903Y-104539708D01*
X170174470Y-104668020D01*
X170300453Y-104754101D01*
X170450000Y-104784385D01*
X171674449Y-104784385D01*
X173345030Y-106454965D01*
X173345032Y-106454968D01*
X173494693Y-106554968D01*
X173507893Y-106563788D01*
X173700000Y-106602001D01*
X173700005Y-106602000D01*
X186199995Y-106602000D01*
X186200000Y-106602001D01*
X186392107Y-106563788D01*
X186554968Y-106454968D01*
X186988685Y-106021250D01*
X189773000Y-106021250D01*
X189773000Y-106624990D01*
X189830395Y-106763553D01*
X189936447Y-106869605D01*
X190075010Y-106927000D01*
X190928750Y-106927000D01*
X191023000Y-106832750D01*
X191023000Y-105927000D01*
X189867250Y-105927000D01*
X189773000Y-106021250D01*
X186988685Y-106021250D01*
X187254965Y-105754970D01*
X187254968Y-105754968D01*
X187363788Y-105592107D01*
X187402000Y-105400000D01*
X187402000Y-104975010D01*
X189773000Y-104975010D01*
X189773000Y-105578750D01*
X189867250Y-105673000D01*
X191023000Y-105673000D01*
X191023000Y-104767250D01*
X191277000Y-104767250D01*
X191277000Y-105673000D01*
X192432750Y-105673000D01*
X192527000Y-105578750D01*
X192527000Y-104975010D01*
X192469605Y-104836447D01*
X192363553Y-104730395D01*
X192224990Y-104673000D01*
X191371250Y-104673000D01*
X191277000Y-104767250D01*
X191023000Y-104767250D01*
X190928750Y-104673000D01*
X190075010Y-104673000D01*
X189936447Y-104730395D01*
X189830395Y-104836447D01*
X189773000Y-104975010D01*
X187402000Y-104975010D01*
X187402000Y-104002000D01*
X189765615Y-104002000D01*
X189765615Y-104250000D01*
X189791903Y-104389708D01*
X189874470Y-104518020D01*
X190000453Y-104604101D01*
X190150000Y-104634385D01*
X192150000Y-104634385D01*
X192289708Y-104608097D01*
X192418020Y-104525530D01*
X192504101Y-104399547D01*
X192534385Y-104250000D01*
X192534385Y-102750000D01*
X192508097Y-102610292D01*
X192425530Y-102481980D01*
X192299547Y-102395899D01*
X192150000Y-102365615D01*
X190150000Y-102365615D01*
X190010292Y-102391903D01*
X189881980Y-102474470D01*
X189795899Y-102600453D01*
X189765615Y-102750000D01*
X189765615Y-102998000D01*
X189502000Y-102998000D01*
X189502000Y-100450000D01*
X189765615Y-100450000D01*
X189765615Y-101950000D01*
X189791903Y-102089708D01*
X189874470Y-102218020D01*
X190000453Y-102304101D01*
X190150000Y-102334385D01*
X192150000Y-102334385D01*
X192289708Y-102308097D01*
X192418020Y-102225530D01*
X192504101Y-102099547D01*
X192534385Y-101950000D01*
X192534385Y-101702000D01*
X192798000Y-101702000D01*
X192798000Y-105099995D01*
X192797999Y-105100000D01*
X192836212Y-105292107D01*
X192945032Y-105454968D01*
X193012988Y-105522924D01*
X192965927Y-105522883D01*
X192717011Y-105625733D01*
X192526402Y-105816010D01*
X192466359Y-105960609D01*
X192432750Y-105927000D01*
X191277000Y-105927000D01*
X191277000Y-106832750D01*
X191371250Y-106927000D01*
X192224990Y-106927000D01*
X192363553Y-106869605D01*
X192469605Y-106763553D01*
X192527000Y-106624990D01*
X192527000Y-106584258D01*
X192716010Y-106773598D01*
X192964746Y-106876882D01*
X193234073Y-106877117D01*
X193482989Y-106774267D01*
X193673598Y-106583990D01*
X193776882Y-106335254D01*
X193776933Y-106276284D01*
X193865189Y-106335254D01*
X193907893Y-106363788D01*
X194100000Y-106402001D01*
X194100005Y-106402000D01*
X194765615Y-106402000D01*
X194765615Y-106700000D01*
X194791903Y-106839708D01*
X194874470Y-106968020D01*
X195000453Y-107054101D01*
X195150000Y-107084385D01*
X196750000Y-107084385D01*
X196889708Y-107058097D01*
X197018020Y-106975530D01*
X197103965Y-106849746D01*
X197130395Y-106913553D01*
X197236447Y-107019605D01*
X197375010Y-107077000D01*
X198028750Y-107077000D01*
X198123000Y-106982750D01*
X198123000Y-106027000D01*
X198377000Y-106027000D01*
X198377000Y-106982750D01*
X198471250Y-107077000D01*
X199124990Y-107077000D01*
X199263553Y-107019605D01*
X199369605Y-106913553D01*
X199427000Y-106774990D01*
X199427000Y-106121250D01*
X199332750Y-106027000D01*
X198377000Y-106027000D01*
X198123000Y-106027000D01*
X198103000Y-106027000D01*
X198103000Y-105775010D01*
X200323000Y-105775010D01*
X200323000Y-106478750D01*
X200417250Y-106573000D01*
X201273000Y-106573000D01*
X201273000Y-105567250D01*
X201527000Y-105567250D01*
X201527000Y-106573000D01*
X202382750Y-106573000D01*
X202477000Y-106478750D01*
X202477000Y-105775010D01*
X202419605Y-105636447D01*
X202313553Y-105530395D01*
X202174990Y-105473000D01*
X201621250Y-105473000D01*
X201527000Y-105567250D01*
X201273000Y-105567250D01*
X201178750Y-105473000D01*
X200625010Y-105473000D01*
X200486447Y-105530395D01*
X200380395Y-105636447D01*
X200323000Y-105775010D01*
X198103000Y-105775010D01*
X198103000Y-105773000D01*
X198123000Y-105773000D01*
X198123000Y-104817250D01*
X198377000Y-104817250D01*
X198377000Y-105773000D01*
X199332750Y-105773000D01*
X199427000Y-105678750D01*
X199427000Y-105025010D01*
X199369605Y-104886447D01*
X199263553Y-104780395D01*
X199124990Y-104723000D01*
X198471250Y-104723000D01*
X198377000Y-104817250D01*
X198123000Y-104817250D01*
X198028750Y-104723000D01*
X197375010Y-104723000D01*
X197236447Y-104780395D01*
X197130395Y-104886447D01*
X197103054Y-104952454D01*
X197025530Y-104831980D01*
X196899547Y-104745899D01*
X196750000Y-104715615D01*
X195150000Y-104715615D01*
X195010292Y-104741903D01*
X194881980Y-104824470D01*
X194795899Y-104950453D01*
X194765615Y-105100000D01*
X194765615Y-105398000D01*
X194307935Y-105398000D01*
X194104968Y-105195032D01*
X193802000Y-104892064D01*
X193802000Y-103902000D01*
X193915615Y-103902000D01*
X193915615Y-104150000D01*
X193941903Y-104289708D01*
X194024470Y-104418020D01*
X194150453Y-104504101D01*
X194300000Y-104534385D01*
X197500000Y-104534385D01*
X197639708Y-104508097D01*
X197768020Y-104425530D01*
X197854101Y-104299547D01*
X197884385Y-104150000D01*
X197884385Y-103621250D01*
X197923000Y-103621250D01*
X197923000Y-104224990D01*
X197980395Y-104363553D01*
X198086447Y-104469605D01*
X198225010Y-104527000D01*
X199678750Y-104527000D01*
X199773000Y-104432750D01*
X199773000Y-103527000D01*
X200027000Y-103527000D01*
X200027000Y-104432750D01*
X200121250Y-104527000D01*
X201574990Y-104527000D01*
X201713553Y-104469605D01*
X201819605Y-104363553D01*
X201877000Y-104224990D01*
X201877000Y-103621250D01*
X201782750Y-103527000D01*
X200027000Y-103527000D01*
X199773000Y-103527000D01*
X198017250Y-103527000D01*
X197923000Y-103621250D01*
X197884385Y-103621250D01*
X197884385Y-102650000D01*
X197870275Y-102575010D01*
X197923000Y-102575010D01*
X197923000Y-103178750D01*
X198017250Y-103273000D01*
X199773000Y-103273000D01*
X199773000Y-102367250D01*
X200027000Y-102367250D01*
X200027000Y-103273000D01*
X201782750Y-103273000D01*
X201877000Y-103178750D01*
X201877000Y-102671250D01*
X208773000Y-102671250D01*
X208773000Y-103524990D01*
X208830395Y-103663553D01*
X208936447Y-103769605D01*
X209075010Y-103827000D01*
X210178750Y-103827000D01*
X210273000Y-103732750D01*
X210273000Y-102577000D01*
X210527000Y-102577000D01*
X210527000Y-103732750D01*
X210621250Y-103827000D01*
X211724990Y-103827000D01*
X211863553Y-103769605D01*
X211969605Y-103663553D01*
X212027000Y-103524990D01*
X212027000Y-102671250D01*
X214273000Y-102671250D01*
X214273000Y-103524990D01*
X214330395Y-103663553D01*
X214436447Y-103769605D01*
X214575010Y-103827000D01*
X215678750Y-103827000D01*
X215773000Y-103732750D01*
X215773000Y-102577000D01*
X214367250Y-102577000D01*
X214273000Y-102671250D01*
X212027000Y-102671250D01*
X211932750Y-102577000D01*
X210527000Y-102577000D01*
X210273000Y-102577000D01*
X208867250Y-102577000D01*
X208773000Y-102671250D01*
X201877000Y-102671250D01*
X201877000Y-102575010D01*
X201819605Y-102436447D01*
X201713553Y-102330395D01*
X201574990Y-102273000D01*
X200121250Y-102273000D01*
X200027000Y-102367250D01*
X199773000Y-102367250D01*
X199678750Y-102273000D01*
X198225010Y-102273000D01*
X198086447Y-102330395D01*
X197980395Y-102436447D01*
X197923000Y-102575010D01*
X197870275Y-102575010D01*
X197858097Y-102510292D01*
X197775530Y-102381980D01*
X197649547Y-102295899D01*
X197500000Y-102265615D01*
X194300000Y-102265615D01*
X194160292Y-102291903D01*
X194031980Y-102374470D01*
X193945899Y-102500453D01*
X193915615Y-102650000D01*
X193915615Y-102898000D01*
X193802000Y-102898000D01*
X193802000Y-101702000D01*
X207399995Y-101702000D01*
X207400000Y-101702001D01*
X207592107Y-101663788D01*
X207754968Y-101554968D01*
X207934925Y-101375010D01*
X208773000Y-101375010D01*
X208773000Y-102228750D01*
X208867250Y-102323000D01*
X210273000Y-102323000D01*
X210273000Y-101167250D01*
X210527000Y-101167250D01*
X210527000Y-102323000D01*
X211932750Y-102323000D01*
X212027000Y-102228750D01*
X212027000Y-101375010D01*
X214273000Y-101375010D01*
X214273000Y-102228750D01*
X214367250Y-102323000D01*
X215773000Y-102323000D01*
X215773000Y-101167250D01*
X215678750Y-101073000D01*
X214575010Y-101073000D01*
X214436447Y-101130395D01*
X214330395Y-101236447D01*
X214273000Y-101375010D01*
X212027000Y-101375010D01*
X211969605Y-101236447D01*
X211863553Y-101130395D01*
X211724990Y-101073000D01*
X210621250Y-101073000D01*
X210527000Y-101167250D01*
X210273000Y-101167250D01*
X210178750Y-101073000D01*
X209075010Y-101073000D01*
X208936447Y-101130395D01*
X208830395Y-101236447D01*
X208773000Y-101375010D01*
X207934925Y-101375010D01*
X208946156Y-100363779D01*
X212072857Y-100363779D01*
X212198495Y-100667846D01*
X212430930Y-100900688D01*
X212734778Y-101026856D01*
X213063779Y-101027143D01*
X213367846Y-100901505D01*
X213600688Y-100669070D01*
X213726856Y-100365222D01*
X213727143Y-100036221D01*
X213601505Y-99732154D01*
X213369070Y-99499312D01*
X213065222Y-99373144D01*
X212736221Y-99372857D01*
X212432154Y-99498495D01*
X212199312Y-99730930D01*
X212073144Y-100034778D01*
X212072857Y-100363779D01*
X208946156Y-100363779D01*
X209088088Y-100221847D01*
X209150000Y-100234385D01*
X211450000Y-100234385D01*
X211589708Y-100208097D01*
X211718020Y-100125530D01*
X211804101Y-99999547D01*
X211834385Y-99850000D01*
X211834385Y-99350000D01*
X211808097Y-99210292D01*
X211802598Y-99201747D01*
X211804101Y-99199547D01*
X211834385Y-99050000D01*
X211834385Y-98550000D01*
X211808097Y-98410292D01*
X211802598Y-98401747D01*
X211804101Y-98399547D01*
X211834385Y-98250000D01*
X211834385Y-97750000D01*
X211808097Y-97610292D01*
X211802598Y-97601747D01*
X211804101Y-97599547D01*
X211834385Y-97450000D01*
X211834385Y-96950000D01*
X211808097Y-96810292D01*
X211798101Y-96794758D01*
X211827000Y-96724990D01*
X211827000Y-96619250D01*
X211732750Y-96525000D01*
X210427000Y-96525000D01*
X210427000Y-96547000D01*
X210173000Y-96547000D01*
X210173000Y-96525000D01*
X210153000Y-96525000D01*
X210153000Y-96275000D01*
X210173000Y-96275000D01*
X210173000Y-95867250D01*
X210427000Y-95867250D01*
X210427000Y-96275000D01*
X211732750Y-96275000D01*
X211827000Y-96180750D01*
X211827000Y-96075010D01*
X211780927Y-95963779D01*
X212072857Y-95963779D01*
X212198495Y-96267846D01*
X212430930Y-96500688D01*
X212734778Y-96626856D01*
X213063779Y-96627143D01*
X213367846Y-96501505D01*
X213600688Y-96269070D01*
X213726856Y-95965222D01*
X213727143Y-95636221D01*
X213601505Y-95332154D01*
X213369070Y-95099312D01*
X213065222Y-94973144D01*
X212736221Y-94972857D01*
X212432154Y-95098495D01*
X212199312Y-95330930D01*
X212073144Y-95634778D01*
X212072857Y-95963779D01*
X211780927Y-95963779D01*
X211769605Y-95936447D01*
X211663553Y-95830395D01*
X211524990Y-95773000D01*
X210521250Y-95773000D01*
X210427000Y-95867250D01*
X210173000Y-95867250D01*
X210078750Y-95773000D01*
X209075010Y-95773000D01*
X208936447Y-95830395D01*
X208830395Y-95936447D01*
X208773000Y-96075010D01*
X208773000Y-96115567D01*
X208683990Y-96026402D01*
X208435254Y-95923118D01*
X208332965Y-95923029D01*
X208254968Y-95845032D01*
X208092107Y-95736212D01*
X207900000Y-95697999D01*
X207899995Y-95698000D01*
X207834385Y-95698000D01*
X207834385Y-95500000D01*
X207808097Y-95360292D01*
X207725530Y-95231980D01*
X207599547Y-95145899D01*
X207450000Y-95115615D01*
X205750000Y-95115615D01*
X205610292Y-95141903D01*
X205481980Y-95224470D01*
X205465346Y-95248815D01*
X205458097Y-95210292D01*
X205375530Y-95081980D01*
X205249547Y-94995899D01*
X205100000Y-94965615D01*
X203700000Y-94965615D01*
X203560292Y-94991903D01*
X203431980Y-95074470D01*
X203345899Y-95200453D01*
X203315615Y-95350000D01*
X203315615Y-97050000D01*
X203341903Y-97189708D01*
X203424470Y-97318020D01*
X203546031Y-97401080D01*
X203431980Y-97474470D01*
X203345899Y-97600453D01*
X203315615Y-97750000D01*
X203315615Y-99450000D01*
X203341903Y-99589708D01*
X203424470Y-99718020D01*
X203550453Y-99804101D01*
X203700000Y-99834385D01*
X205100000Y-99834385D01*
X205239708Y-99808097D01*
X205368020Y-99725530D01*
X205454101Y-99599547D01*
X205484385Y-99450000D01*
X205484385Y-98225550D01*
X205807935Y-97902000D01*
X207592064Y-97902000D01*
X207916403Y-98226339D01*
X207726402Y-98416010D01*
X207623118Y-98664746D01*
X207622883Y-98934073D01*
X207725733Y-99182989D01*
X207916010Y-99373598D01*
X208164746Y-99476882D01*
X208412966Y-99477099D01*
X207192064Y-100698000D01*
X192534385Y-100698000D01*
X192534385Y-100450000D01*
X192508097Y-100310292D01*
X192425530Y-100181980D01*
X192299547Y-100095899D01*
X192150000Y-100065615D01*
X190150000Y-100065615D01*
X190010292Y-100091903D01*
X189881980Y-100174470D01*
X189795899Y-100300453D01*
X189765615Y-100450000D01*
X189502000Y-100450000D01*
X189502000Y-94325000D01*
X189765615Y-94325000D01*
X189765615Y-94875000D01*
X189789999Y-95004589D01*
X189765615Y-95125000D01*
X189765615Y-95675000D01*
X189789999Y-95804589D01*
X189765615Y-95925000D01*
X189765615Y-96475000D01*
X189791903Y-96614708D01*
X189874470Y-96743020D01*
X190000453Y-96829101D01*
X190150000Y-96859385D01*
X191740615Y-96859385D01*
X191740615Y-98450000D01*
X191766903Y-98589708D01*
X191849470Y-98718020D01*
X191975453Y-98804101D01*
X192125000Y-98834385D01*
X192675000Y-98834385D01*
X192804589Y-98810001D01*
X192925000Y-98834385D01*
X193475000Y-98834385D01*
X193604589Y-98810001D01*
X193725000Y-98834385D01*
X194275000Y-98834385D01*
X194404589Y-98810001D01*
X194525000Y-98834385D01*
X195075000Y-98834385D01*
X195204589Y-98810001D01*
X195325000Y-98834385D01*
X195875000Y-98834385D01*
X196004589Y-98810001D01*
X196125000Y-98834385D01*
X196675000Y-98834385D01*
X196698000Y-98830057D01*
X196698000Y-99199995D01*
X196697999Y-99200000D01*
X196736212Y-99392107D01*
X196845032Y-99554968D01*
X197022971Y-99732907D01*
X197022883Y-99834073D01*
X197125733Y-100082989D01*
X197316010Y-100273598D01*
X197564746Y-100376882D01*
X197834073Y-100377117D01*
X198082989Y-100274267D01*
X198273598Y-100083990D01*
X198376882Y-99835254D01*
X198377117Y-99565927D01*
X198274267Y-99317011D01*
X198083990Y-99126402D01*
X197835254Y-99023118D01*
X197732964Y-99023029D01*
X197702000Y-98992064D01*
X197702000Y-98829727D01*
X197725000Y-98834385D01*
X198275000Y-98834385D01*
X198414708Y-98808097D01*
X198543020Y-98725530D01*
X198629101Y-98599547D01*
X198659385Y-98450000D01*
X198659385Y-98152000D01*
X199642064Y-98152000D01*
X200445032Y-98954968D01*
X200607893Y-99063788D01*
X200800000Y-99102001D01*
X200800005Y-99102000D01*
X200915615Y-99102000D01*
X200915615Y-99450000D01*
X200941903Y-99589708D01*
X201024470Y-99718020D01*
X201150453Y-99804101D01*
X201300000Y-99834385D01*
X202700000Y-99834385D01*
X202839708Y-99808097D01*
X202968020Y-99725530D01*
X203054101Y-99599547D01*
X203084385Y-99450000D01*
X203084385Y-97750000D01*
X203058097Y-97610292D01*
X202975530Y-97481980D01*
X202853969Y-97398920D01*
X202968020Y-97325530D01*
X203054101Y-97199547D01*
X203084385Y-97050000D01*
X203084385Y-95350000D01*
X203058097Y-95210292D01*
X202975530Y-95081980D01*
X202849547Y-94995899D01*
X202700000Y-94965615D01*
X201300000Y-94965615D01*
X201160292Y-94991903D01*
X201031980Y-95074470D01*
X200945899Y-95200453D01*
X200915615Y-95350000D01*
X200915615Y-95698000D01*
X200629727Y-95698000D01*
X200634385Y-95675000D01*
X200634385Y-95125000D01*
X200609434Y-94992398D01*
X200627000Y-94949990D01*
X200627000Y-94821250D01*
X200532750Y-94727000D01*
X199577000Y-94727000D01*
X199577000Y-94740615D01*
X199323000Y-94740615D01*
X199323000Y-94727000D01*
X198367250Y-94727000D01*
X198273000Y-94821250D01*
X198273000Y-94898000D01*
X193155463Y-94898000D01*
X193083990Y-94826402D01*
X192835254Y-94723118D01*
X192565927Y-94722883D01*
X192317011Y-94825733D01*
X192126402Y-95016010D01*
X192117783Y-95036767D01*
X192110001Y-94995411D01*
X192134385Y-94875000D01*
X192134385Y-94325000D01*
X192109434Y-94192398D01*
X192127000Y-94149990D01*
X192127000Y-94021250D01*
X192032750Y-93927000D01*
X191077000Y-93927000D01*
X191077000Y-93940615D01*
X190823000Y-93940615D01*
X190823000Y-93927000D01*
X189867250Y-93927000D01*
X189773000Y-94021250D01*
X189773000Y-94149990D01*
X189791843Y-94195481D01*
X189765615Y-94325000D01*
X189502000Y-94325000D01*
X189502000Y-91907936D01*
X189507936Y-91902000D01*
X189770273Y-91902000D01*
X189765615Y-91925000D01*
X189765615Y-92475000D01*
X189789999Y-92604589D01*
X189765615Y-92725000D01*
X189765615Y-93275000D01*
X189790566Y-93407602D01*
X189773000Y-93450010D01*
X189773000Y-93578750D01*
X189867250Y-93673000D01*
X190823000Y-93673000D01*
X190823000Y-93659385D01*
X191077000Y-93659385D01*
X191077000Y-93673000D01*
X192032750Y-93673000D01*
X192127000Y-93578750D01*
X192127000Y-93450010D01*
X192108157Y-93404519D01*
X192134385Y-93275000D01*
X192134385Y-92725000D01*
X192110001Y-92595411D01*
X192134385Y-92475000D01*
X192134385Y-91925000D01*
X192130057Y-91902000D01*
X194992064Y-91902000D01*
X195498000Y-92407935D01*
X195498000Y-93099995D01*
X195497999Y-93100000D01*
X195536212Y-93292107D01*
X195645032Y-93454968D01*
X196345030Y-94154965D01*
X196345032Y-94154968D01*
X196507893Y-94263788D01*
X196700000Y-94302000D01*
X198273000Y-94302000D01*
X198273000Y-94378750D01*
X198367250Y-94473000D01*
X199323000Y-94473000D01*
X199323000Y-94459385D01*
X199577000Y-94459385D01*
X199577000Y-94473000D01*
X200532750Y-94473000D01*
X200627000Y-94378750D01*
X200627000Y-94302000D01*
X205365615Y-94302000D01*
X205365615Y-94500000D01*
X205391903Y-94639708D01*
X205474470Y-94768020D01*
X205600453Y-94854101D01*
X205750000Y-94884385D01*
X207450000Y-94884385D01*
X207589708Y-94858097D01*
X207718020Y-94775530D01*
X207804101Y-94649547D01*
X207834385Y-94500000D01*
X207834385Y-93771250D01*
X208773000Y-93771250D01*
X208773000Y-94624990D01*
X208830395Y-94763553D01*
X208936447Y-94869605D01*
X209075010Y-94927000D01*
X210178750Y-94927000D01*
X210273000Y-94832750D01*
X210273000Y-93677000D01*
X210527000Y-93677000D01*
X210527000Y-94832750D01*
X210621250Y-94927000D01*
X211724990Y-94927000D01*
X211863553Y-94869605D01*
X211969605Y-94763553D01*
X212027000Y-94624990D01*
X212027000Y-93771250D01*
X214273000Y-93771250D01*
X214273000Y-94624990D01*
X214330395Y-94763553D01*
X214436447Y-94869605D01*
X214575010Y-94927000D01*
X215678750Y-94927000D01*
X215773000Y-94832750D01*
X215773000Y-93677000D01*
X214367250Y-93677000D01*
X214273000Y-93771250D01*
X212027000Y-93771250D01*
X211932750Y-93677000D01*
X210527000Y-93677000D01*
X210273000Y-93677000D01*
X208867250Y-93677000D01*
X208773000Y-93771250D01*
X207834385Y-93771250D01*
X207834385Y-93100000D01*
X207808097Y-92960292D01*
X207725530Y-92831980D01*
X207599547Y-92745899D01*
X207450000Y-92715615D01*
X205750000Y-92715615D01*
X205610292Y-92741903D01*
X205481980Y-92824470D01*
X205395899Y-92950453D01*
X205365615Y-93100000D01*
X205365615Y-93298000D01*
X200627000Y-93298000D01*
X200627000Y-93221250D01*
X200532750Y-93127000D01*
X199577000Y-93127000D01*
X199577000Y-93140615D01*
X199323000Y-93140615D01*
X199323000Y-93127000D01*
X198367250Y-93127000D01*
X198273000Y-93221250D01*
X198273000Y-93298000D01*
X196907935Y-93298000D01*
X196502000Y-92892064D01*
X196502000Y-92702000D01*
X198273000Y-92702000D01*
X198273000Y-92778750D01*
X198367250Y-92873000D01*
X199323000Y-92873000D01*
X199323000Y-92859385D01*
X199577000Y-92859385D01*
X199577000Y-92873000D01*
X200532750Y-92873000D01*
X200627000Y-92778750D01*
X200627000Y-92650010D01*
X200608157Y-92604519D01*
X200634382Y-92475010D01*
X208773000Y-92475010D01*
X208773000Y-93328750D01*
X208867250Y-93423000D01*
X210273000Y-93423000D01*
X210273000Y-92267250D01*
X210527000Y-92267250D01*
X210527000Y-93423000D01*
X211932750Y-93423000D01*
X212027000Y-93328750D01*
X212027000Y-92475010D01*
X214273000Y-92475010D01*
X214273000Y-93328750D01*
X214367250Y-93423000D01*
X215773000Y-93423000D01*
X215773000Y-92267250D01*
X215678750Y-92173000D01*
X214575010Y-92173000D01*
X214436447Y-92230395D01*
X214330395Y-92336447D01*
X214273000Y-92475010D01*
X212027000Y-92475010D01*
X211969605Y-92336447D01*
X211863553Y-92230395D01*
X211724990Y-92173000D01*
X210621250Y-92173000D01*
X210527000Y-92267250D01*
X210273000Y-92267250D01*
X210178750Y-92173000D01*
X209075010Y-92173000D01*
X208936447Y-92230395D01*
X208830395Y-92336447D01*
X208773000Y-92475010D01*
X200634382Y-92475010D01*
X200634385Y-92475000D01*
X200634385Y-91925000D01*
X200630057Y-91902000D01*
X204799995Y-91902000D01*
X204800000Y-91902001D01*
X204992107Y-91863788D01*
X205154968Y-91754968D01*
X208200000Y-88709936D01*
X208329445Y-88839380D01*
X208273196Y-88974842D01*
X208272805Y-89423191D01*
X208444019Y-89837560D01*
X208760772Y-90154867D01*
X209174842Y-90326804D01*
X209623191Y-90327195D01*
X210037560Y-90155981D01*
X210354867Y-89839228D01*
X210526804Y-89425158D01*
X210527195Y-88976809D01*
X210355981Y-88562440D01*
X210039228Y-88245133D01*
X209625158Y-88073196D01*
X209176809Y-88072805D01*
X209039483Y-88129547D01*
X208909936Y-88000000D01*
X209704965Y-87204970D01*
X209704968Y-87204968D01*
X209813788Y-87042107D01*
X209824359Y-86988962D01*
X209852001Y-86850000D01*
X209852000Y-86849995D01*
X209852000Y-86484385D01*
X210150000Y-86484385D01*
X210289708Y-86458097D01*
X210418020Y-86375530D01*
X210504101Y-86249547D01*
X210534385Y-86100000D01*
X210534385Y-84500000D01*
X210508097Y-84360292D01*
X210425530Y-84231980D01*
X210299547Y-84145899D01*
X210150000Y-84115615D01*
X208550000Y-84115615D01*
X208410292Y-84141903D01*
X208281980Y-84224470D01*
X208196035Y-84350254D01*
X208169605Y-84286447D01*
X208063553Y-84180395D01*
X207924990Y-84123000D01*
X207271250Y-84123000D01*
X207177000Y-84217250D01*
X207177000Y-85173000D01*
X207197000Y-85173000D01*
X207197000Y-85427000D01*
X207177000Y-85427000D01*
X207177000Y-86382750D01*
X207271250Y-86477000D01*
X207924990Y-86477000D01*
X208063553Y-86419605D01*
X208169605Y-86313553D01*
X208196946Y-86247546D01*
X208274470Y-86368020D01*
X208400453Y-86454101D01*
X208550000Y-86484385D01*
X208848000Y-86484385D01*
X208848000Y-86642065D01*
X207845032Y-87645032D01*
X204592064Y-90898000D01*
X201411936Y-90898000D01*
X203434454Y-88875482D01*
X203393196Y-88974842D01*
X203392805Y-89423191D01*
X203564019Y-89837560D01*
X203880772Y-90154867D01*
X204294842Y-90326804D01*
X204743191Y-90327195D01*
X205157560Y-90155981D01*
X205474867Y-89839228D01*
X205646804Y-89425158D01*
X205647195Y-88976809D01*
X205475981Y-88562440D01*
X205159228Y-88245133D01*
X204745158Y-88073196D01*
X204296809Y-88072805D01*
X204216092Y-88106157D01*
X204209936Y-88100000D01*
X204874965Y-87434970D01*
X204874968Y-87434968D01*
X204983788Y-87272107D01*
X204998529Y-87198000D01*
X205022001Y-87080000D01*
X205022000Y-87079995D01*
X205022000Y-86484385D01*
X205250000Y-86484385D01*
X205389708Y-86458097D01*
X205518020Y-86375530D01*
X205604101Y-86249547D01*
X205634385Y-86100000D01*
X205634385Y-85521250D01*
X205873000Y-85521250D01*
X205873000Y-86174990D01*
X205930395Y-86313553D01*
X206036447Y-86419605D01*
X206175010Y-86477000D01*
X206828750Y-86477000D01*
X206923000Y-86382750D01*
X206923000Y-85427000D01*
X205967250Y-85427000D01*
X205873000Y-85521250D01*
X205634385Y-85521250D01*
X205634385Y-84500000D01*
X205620275Y-84425010D01*
X205873000Y-84425010D01*
X205873000Y-85078750D01*
X205967250Y-85173000D01*
X206923000Y-85173000D01*
X206923000Y-84217250D01*
X206828750Y-84123000D01*
X206175010Y-84123000D01*
X206036447Y-84180395D01*
X205930395Y-84286447D01*
X205873000Y-84425010D01*
X205620275Y-84425010D01*
X205608097Y-84360292D01*
X205525530Y-84231980D01*
X205399547Y-84145899D01*
X205250000Y-84115615D01*
X203650000Y-84115615D01*
X203510292Y-84141903D01*
X203381980Y-84224470D01*
X203296035Y-84350254D01*
X203269605Y-84286447D01*
X203163553Y-84180395D01*
X203024990Y-84123000D01*
X202371250Y-84123000D01*
X202277000Y-84217250D01*
X202277000Y-85173000D01*
X202297000Y-85173000D01*
X202297000Y-85427000D01*
X202277000Y-85427000D01*
X202277000Y-86382750D01*
X202371250Y-86477000D01*
X203024990Y-86477000D01*
X203163553Y-86419605D01*
X203269605Y-86313553D01*
X203296946Y-86247546D01*
X203374470Y-86368020D01*
X203500453Y-86454101D01*
X203650000Y-86484385D01*
X204018000Y-86484385D01*
X204018000Y-86872065D01*
X203145032Y-87745032D01*
X200792064Y-90098000D01*
X200551926Y-90098000D01*
X200525530Y-90056980D01*
X200399547Y-89970899D01*
X200250000Y-89940615D01*
X198659385Y-89940615D01*
X198659385Y-88350000D01*
X198633097Y-88210292D01*
X198550530Y-88081980D01*
X198490220Y-88040771D01*
X198463788Y-87907892D01*
X198354968Y-87745032D01*
X198054968Y-87445032D01*
X197892107Y-87336212D01*
X197702000Y-87298397D01*
X197702000Y-87100005D01*
X197702001Y-87100000D01*
X197663788Y-86907893D01*
X197586422Y-86792107D01*
X197554968Y-86745032D01*
X197554965Y-86745030D01*
X196331186Y-85521250D01*
X200973000Y-85521250D01*
X200973000Y-86174990D01*
X201030395Y-86313553D01*
X201136447Y-86419605D01*
X201275010Y-86477000D01*
X201928750Y-86477000D01*
X202023000Y-86382750D01*
X202023000Y-85427000D01*
X201067250Y-85427000D01*
X200973000Y-85521250D01*
X196331186Y-85521250D01*
X195234946Y-84425010D01*
X200973000Y-84425010D01*
X200973000Y-85078750D01*
X201067250Y-85173000D01*
X202023000Y-85173000D01*
X202023000Y-84217250D01*
X201928750Y-84123000D01*
X201275010Y-84123000D01*
X201136447Y-84180395D01*
X201030395Y-84286447D01*
X200973000Y-84425010D01*
X195234946Y-84425010D01*
X194854968Y-84045032D01*
X194715735Y-83952000D01*
X210312776Y-83952000D01*
X217048000Y-90687224D01*
X217048000Y-92173000D01*
X216121250Y-92173000D01*
X216027000Y-92267250D01*
X216027000Y-93423000D01*
X216047000Y-93423000D01*
X216047000Y-93677000D01*
X216027000Y-93677000D01*
X216027000Y-94832750D01*
X216121250Y-94927000D01*
X217048000Y-94927000D01*
X217048000Y-101073000D01*
X216121250Y-101073000D01*
X216027000Y-101167250D01*
X216027000Y-102323000D01*
X216047000Y-102323000D01*
X216047000Y-102577000D01*
X216027000Y-102577000D01*
X216027000Y-103732750D01*
X216121250Y-103827000D01*
X217033776Y-103827000D01*
X213112776Y-107748000D01*
X207454414Y-107748000D01*
X207484385Y-107600000D01*
X207484385Y-105800000D01*
X207458097Y-105660292D01*
X207375530Y-105531980D01*
X207249547Y-105445899D01*
X207100000Y-105415615D01*
X206505187Y-105415615D01*
X206922417Y-105243219D01*
X207281957Y-104884307D01*
X207476778Y-104415125D01*
X207477221Y-103907103D01*
X207283219Y-103437583D01*
X206924307Y-103078043D01*
X206455125Y-102883222D01*
X205947103Y-102882779D01*
X205477583Y-103076781D01*
X205118043Y-103435693D01*
X204923222Y-103904875D01*
X204922779Y-104412897D01*
X205116781Y-104882417D01*
X205475693Y-105241957D01*
X205893909Y-105415615D01*
X205300000Y-105415615D01*
X205160292Y-105441903D01*
X205031980Y-105524470D01*
X204945899Y-105650453D01*
X204915615Y-105800000D01*
X204915615Y-106198000D01*
X204884385Y-106198000D01*
X204884385Y-105850000D01*
X204858097Y-105710292D01*
X204775530Y-105581980D01*
X204649547Y-105495899D01*
X204500000Y-105465615D01*
X203100000Y-105465615D01*
X202960292Y-105491903D01*
X202831980Y-105574470D01*
X202745899Y-105700453D01*
X202715615Y-105850000D01*
X202715615Y-107550000D01*
X202741903Y-107689708D01*
X202779413Y-107748000D01*
X202426047Y-107748000D01*
X202477000Y-107624990D01*
X202477000Y-106921250D01*
X202382750Y-106827000D01*
X201527000Y-106827000D01*
X201527000Y-106847000D01*
X201273000Y-106847000D01*
X201273000Y-106827000D01*
X200417250Y-106827000D01*
X200323000Y-106921250D01*
X200323000Y-107624990D01*
X200373953Y-107748000D01*
X155387224Y-107748000D01*
X150952000Y-103312776D01*
X150952000Y-100856351D01*
X151814482Y-100856351D01*
X151938011Y-101154600D01*
X152254047Y-101514222D01*
X152683648Y-101725528D01*
X152873000Y-101666171D01*
X152873000Y-100667000D01*
X153127000Y-100667000D01*
X153127000Y-101666171D01*
X153316352Y-101725528D01*
X153745953Y-101514222D01*
X154061989Y-101154600D01*
X154185518Y-100856351D01*
X154125608Y-100667000D01*
X153127000Y-100667000D01*
X152873000Y-100667000D01*
X151874392Y-100667000D01*
X151814482Y-100856351D01*
X150952000Y-100856351D01*
X150952000Y-100223649D01*
X151814482Y-100223649D01*
X151874392Y-100413000D01*
X152873000Y-100413000D01*
X152873000Y-99413829D01*
X153127000Y-99413829D01*
X153127000Y-100413000D01*
X154125608Y-100413000D01*
X154185518Y-100223649D01*
X154061989Y-99925400D01*
X153745953Y-99565778D01*
X153316352Y-99354472D01*
X153127000Y-99413829D01*
X152873000Y-99413829D01*
X152683648Y-99354472D01*
X152254047Y-99565778D01*
X151938011Y-99925400D01*
X151814482Y-100223649D01*
X150952000Y-100223649D01*
X150952000Y-97150000D01*
X151765615Y-97150000D01*
X151765615Y-98850000D01*
X151791903Y-98989708D01*
X151874470Y-99118020D01*
X152000453Y-99204101D01*
X152150000Y-99234385D01*
X153524449Y-99234385D01*
X154045032Y-99754968D01*
X154207893Y-99863788D01*
X154400000Y-99902001D01*
X154400005Y-99902000D01*
X157799995Y-99902000D01*
X157800000Y-99902001D01*
X157992107Y-99863788D01*
X158154968Y-99754968D01*
X161074965Y-96834970D01*
X161074968Y-96834968D01*
X161183788Y-96672107D01*
X161185443Y-96663788D01*
X161222001Y-96480000D01*
X161222000Y-96479995D01*
X161222000Y-95652856D01*
X161552265Y-95432181D01*
X161807406Y-95050334D01*
X161897000Y-94599916D01*
X161897000Y-93840084D01*
X162083000Y-93840084D01*
X162083000Y-94599916D01*
X162172594Y-95050334D01*
X162427735Y-95432181D01*
X162758000Y-95652856D01*
X162758000Y-103359995D01*
X162757999Y-103360000D01*
X162796212Y-103552107D01*
X162905032Y-103714968D01*
X165745030Y-106554965D01*
X165745032Y-106554968D01*
X165849828Y-106624990D01*
X165907893Y-106663788D01*
X166100000Y-106702001D01*
X166100005Y-106702000D01*
X166565615Y-106702000D01*
X166565615Y-107000000D01*
X166591903Y-107139708D01*
X166674470Y-107268020D01*
X166800453Y-107354101D01*
X166950000Y-107384385D01*
X168550000Y-107384385D01*
X168689708Y-107358097D01*
X168818020Y-107275530D01*
X168903965Y-107149746D01*
X168930395Y-107213553D01*
X169036447Y-107319605D01*
X169175010Y-107377000D01*
X169828750Y-107377000D01*
X169923000Y-107282750D01*
X169923000Y-106327000D01*
X170177000Y-106327000D01*
X170177000Y-107282750D01*
X170271250Y-107377000D01*
X170924990Y-107377000D01*
X171063553Y-107319605D01*
X171169605Y-107213553D01*
X171227000Y-107074990D01*
X171227000Y-106421250D01*
X171132750Y-106327000D01*
X170177000Y-106327000D01*
X169923000Y-106327000D01*
X169903000Y-106327000D01*
X169903000Y-106073000D01*
X169923000Y-106073000D01*
X169923000Y-105117250D01*
X170177000Y-105117250D01*
X170177000Y-106073000D01*
X171132750Y-106073000D01*
X171227000Y-105978750D01*
X171227000Y-105325010D01*
X171169605Y-105186447D01*
X171063553Y-105080395D01*
X170924990Y-105023000D01*
X170271250Y-105023000D01*
X170177000Y-105117250D01*
X169923000Y-105117250D01*
X169828750Y-105023000D01*
X169175010Y-105023000D01*
X169036447Y-105080395D01*
X168930395Y-105186447D01*
X168903054Y-105252454D01*
X168825530Y-105131980D01*
X168699547Y-105045899D01*
X168550000Y-105015615D01*
X166950000Y-105015615D01*
X166810292Y-105041903D01*
X166681980Y-105124470D01*
X166595899Y-105250453D01*
X166565615Y-105400000D01*
X166565615Y-105698000D01*
X166307935Y-105698000D01*
X163762000Y-103152064D01*
X163762000Y-102752000D01*
X167215615Y-102752000D01*
X167215615Y-103050000D01*
X167241903Y-103189708D01*
X167324470Y-103318020D01*
X167450453Y-103404101D01*
X167600000Y-103434385D01*
X169200000Y-103434385D01*
X169339708Y-103408097D01*
X169468020Y-103325530D01*
X169554101Y-103199547D01*
X169584385Y-103050000D01*
X169584385Y-101450000D01*
X169558097Y-101310292D01*
X169475530Y-101181980D01*
X169353969Y-101098920D01*
X169468020Y-101025530D01*
X169554101Y-100899547D01*
X169584385Y-100750000D01*
X169584385Y-100202000D01*
X170798000Y-100202000D01*
X170798000Y-100215615D01*
X170450000Y-100215615D01*
X170310292Y-100241903D01*
X170181980Y-100324470D01*
X170095899Y-100450453D01*
X170065615Y-100600000D01*
X170065615Y-102000000D01*
X170091903Y-102139708D01*
X170174470Y-102268020D01*
X170300453Y-102354101D01*
X170450000Y-102384385D01*
X172150000Y-102384385D01*
X172289708Y-102358097D01*
X172418020Y-102275530D01*
X172504101Y-102149547D01*
X172534385Y-102000000D01*
X172534385Y-100880000D01*
X172699941Y-100880000D01*
X172789535Y-101330418D01*
X173044676Y-101712265D01*
X173426523Y-101967406D01*
X173876941Y-102057000D01*
X173923059Y-102057000D01*
X174373477Y-101967406D01*
X174755324Y-101712265D01*
X175010465Y-101330418D01*
X175100059Y-100880000D01*
X180319941Y-100880000D01*
X180409535Y-101330418D01*
X180664676Y-101712265D01*
X181046523Y-101967406D01*
X181496941Y-102057000D01*
X181543059Y-102057000D01*
X181993477Y-101967406D01*
X182375324Y-101712265D01*
X182630465Y-101330418D01*
X182720059Y-100880000D01*
X182630465Y-100429582D01*
X182375324Y-100047735D01*
X181993477Y-99792594D01*
X181543059Y-99703000D01*
X181496941Y-99703000D01*
X181046523Y-99792594D01*
X180664676Y-100047735D01*
X180409535Y-100429582D01*
X180319941Y-100880000D01*
X175100059Y-100880000D01*
X175010465Y-100429582D01*
X174755324Y-100047735D01*
X174373477Y-99792594D01*
X173923059Y-99703000D01*
X173876941Y-99703000D01*
X173426523Y-99792594D01*
X173044676Y-100047735D01*
X172789535Y-100429582D01*
X172699941Y-100880000D01*
X172534385Y-100880000D01*
X172534385Y-100600000D01*
X172508097Y-100460292D01*
X172425530Y-100331980D01*
X172299547Y-100245899D01*
X172150000Y-100215615D01*
X171802000Y-100215615D01*
X171802000Y-100202000D01*
X172539995Y-100202000D01*
X172540000Y-100202001D01*
X172732107Y-100163788D01*
X172894968Y-100054968D01*
X173274965Y-99674970D01*
X173274968Y-99674968D01*
X173506601Y-99443335D01*
X173876941Y-99517000D01*
X173923059Y-99517000D01*
X174373477Y-99427406D01*
X174755324Y-99172265D01*
X175010465Y-98790418D01*
X175100059Y-98340000D01*
X175010465Y-97889582D01*
X174755324Y-97507735D01*
X174373477Y-97252594D01*
X173923059Y-97163000D01*
X173876941Y-97163000D01*
X173426523Y-97252594D01*
X173102000Y-97469432D01*
X173102000Y-96977000D01*
X173678750Y-96977000D01*
X173773000Y-96882750D01*
X173773000Y-95927000D01*
X174027000Y-95927000D01*
X174027000Y-96882750D01*
X174121250Y-96977000D01*
X174774990Y-96977000D01*
X174913553Y-96919605D01*
X175019605Y-96813553D01*
X175077000Y-96674990D01*
X175077000Y-96021250D01*
X174982750Y-95927000D01*
X174027000Y-95927000D01*
X173773000Y-95927000D01*
X173753000Y-95927000D01*
X173753000Y-95673000D01*
X173773000Y-95673000D01*
X173773000Y-94717250D01*
X174027000Y-94717250D01*
X174027000Y-95673000D01*
X174982750Y-95673000D01*
X175077000Y-95578750D01*
X175077000Y-94925010D01*
X175019605Y-94786447D01*
X174913553Y-94680395D01*
X174774990Y-94623000D01*
X174121250Y-94623000D01*
X174027000Y-94717250D01*
X173773000Y-94717250D01*
X173678750Y-94623000D01*
X173102000Y-94623000D01*
X173102000Y-93421250D01*
X173573000Y-93421250D01*
X173573000Y-94074990D01*
X173630395Y-94213553D01*
X173736447Y-94319605D01*
X173875010Y-94377000D01*
X174528750Y-94377000D01*
X174623000Y-94282750D01*
X174623000Y-93327000D01*
X173667250Y-93327000D01*
X173573000Y-93421250D01*
X173102000Y-93421250D01*
X173102000Y-92307936D01*
X173465656Y-91944280D01*
X173764988Y-92068573D01*
X173736447Y-92080395D01*
X173630395Y-92186447D01*
X173573000Y-92325010D01*
X173573000Y-92978750D01*
X173667250Y-93073000D01*
X174623000Y-93073000D01*
X174623000Y-92117250D01*
X174877000Y-92117250D01*
X174877000Y-93073000D01*
X174897000Y-93073000D01*
X174897000Y-93327000D01*
X174877000Y-93327000D01*
X174877000Y-94282750D01*
X174971250Y-94377000D01*
X175624990Y-94377000D01*
X175763553Y-94319605D01*
X175869605Y-94213553D01*
X175896946Y-94147546D01*
X175974470Y-94268020D01*
X176100453Y-94354101D01*
X176250000Y-94384385D01*
X177798000Y-94384385D01*
X177798000Y-94544537D01*
X177726402Y-94616010D01*
X177623118Y-94864746D01*
X177622883Y-95134073D01*
X177725733Y-95382989D01*
X177916010Y-95573598D01*
X178164746Y-95676882D01*
X178434073Y-95677117D01*
X178682989Y-95574267D01*
X178873598Y-95383990D01*
X178976882Y-95135254D01*
X178977117Y-94865927D01*
X178874267Y-94617011D01*
X178802000Y-94544618D01*
X178802000Y-94434385D01*
X180098000Y-94434385D01*
X180098000Y-94600000D01*
X180136212Y-94792107D01*
X180245032Y-94954968D01*
X180407893Y-95063788D01*
X180577901Y-95097604D01*
X180409535Y-95349582D01*
X180319941Y-95800000D01*
X180409535Y-96250418D01*
X180664676Y-96632265D01*
X181046523Y-96887406D01*
X181496941Y-96977000D01*
X181543059Y-96977000D01*
X181993477Y-96887406D01*
X182375324Y-96632265D01*
X182630465Y-96250418D01*
X182665309Y-96075245D01*
X182745030Y-96154965D01*
X182745032Y-96154968D01*
X182865615Y-96235539D01*
X182865615Y-96500000D01*
X182891903Y-96639708D01*
X182974470Y-96768020D01*
X183100453Y-96854101D01*
X183250000Y-96884385D01*
X184705679Y-96884385D01*
X184474449Y-97115615D01*
X183250000Y-97115615D01*
X183110292Y-97141903D01*
X182981980Y-97224470D01*
X182895899Y-97350453D01*
X182865615Y-97500000D01*
X182865615Y-97698000D01*
X182502455Y-97698000D01*
X182375324Y-97507735D01*
X181993477Y-97252594D01*
X181543059Y-97163000D01*
X181496941Y-97163000D01*
X181046523Y-97252594D01*
X180664676Y-97507735D01*
X180409535Y-97889582D01*
X180319941Y-98340000D01*
X180409535Y-98790418D01*
X180664676Y-99172265D01*
X181046523Y-99427406D01*
X181496941Y-99517000D01*
X181543059Y-99517000D01*
X181993477Y-99427406D01*
X182375324Y-99172265D01*
X182630465Y-98790418D01*
X182648052Y-98702000D01*
X182865615Y-98702000D01*
X182865615Y-98900000D01*
X182891903Y-99039708D01*
X182974470Y-99168020D01*
X183100453Y-99254101D01*
X183250000Y-99284385D01*
X184950000Y-99284385D01*
X185089708Y-99258097D01*
X185218020Y-99175530D01*
X185304101Y-99049547D01*
X185334385Y-98900000D01*
X185334385Y-97675551D01*
X186154968Y-96854968D01*
X186263788Y-96692108D01*
X186302001Y-96500000D01*
X186302000Y-96499995D01*
X186302000Y-96077002D01*
X186434073Y-96077117D01*
X186682989Y-95974267D01*
X186873598Y-95783990D01*
X186976882Y-95535254D01*
X186977117Y-95265927D01*
X186874267Y-95017011D01*
X186683990Y-94826402D01*
X186435254Y-94723118D01*
X186302000Y-94723002D01*
X186302000Y-94500005D01*
X186302001Y-94500000D01*
X186263788Y-94307893D01*
X186225112Y-94250010D01*
X186154968Y-94145032D01*
X186154965Y-94145030D01*
X185044009Y-93034073D01*
X185722883Y-93034073D01*
X185825733Y-93282989D01*
X186016010Y-93473598D01*
X186264746Y-93576882D01*
X186367035Y-93576971D01*
X187022971Y-94232907D01*
X187022883Y-94334073D01*
X187125733Y-94582989D01*
X187316010Y-94773598D01*
X187564746Y-94876882D01*
X187834073Y-94877117D01*
X188082989Y-94774267D01*
X188273598Y-94583990D01*
X188376882Y-94335254D01*
X188377117Y-94065927D01*
X188274267Y-93817011D01*
X188083990Y-93626402D01*
X187835254Y-93523118D01*
X187732964Y-93523029D01*
X187077029Y-92867093D01*
X187077117Y-92765927D01*
X186974267Y-92517011D01*
X186783990Y-92326402D01*
X186535254Y-92223118D01*
X186265927Y-92222883D01*
X186017011Y-92325733D01*
X185826402Y-92516010D01*
X185723118Y-92764746D01*
X185722883Y-93034073D01*
X185044009Y-93034073D01*
X184854968Y-92845032D01*
X184692107Y-92736212D01*
X184500000Y-92697999D01*
X184499995Y-92698000D01*
X182884385Y-92698000D01*
X182884385Y-92350000D01*
X182858097Y-92210292D01*
X182775530Y-92081980D01*
X182649547Y-91995899D01*
X182500000Y-91965615D01*
X182122000Y-91965615D01*
X182122000Y-91949081D01*
X182402654Y-91761554D01*
X182636118Y-91412150D01*
X182718100Y-91000000D01*
X182636118Y-90587850D01*
X182402654Y-90238446D01*
X182053250Y-90004982D01*
X181641100Y-89923000D01*
X181598900Y-89923000D01*
X181186750Y-90004982D01*
X180837346Y-90238446D01*
X180603882Y-90587850D01*
X180521900Y-91000000D01*
X180549701Y-91139766D01*
X180352000Y-90942064D01*
X180352000Y-89784385D01*
X180650000Y-89784385D01*
X180789708Y-89758097D01*
X180918020Y-89675530D01*
X181004101Y-89549547D01*
X181034385Y-89400000D01*
X181034385Y-88556352D01*
X182834472Y-88556352D01*
X183045778Y-88985953D01*
X183405400Y-89301989D01*
X183703649Y-89425518D01*
X183893000Y-89365608D01*
X183893000Y-88367000D01*
X184147000Y-88367000D01*
X184147000Y-89365608D01*
X184336351Y-89425518D01*
X184634600Y-89301989D01*
X184994222Y-88985953D01*
X185205528Y-88556352D01*
X185146171Y-88367000D01*
X184147000Y-88367000D01*
X183893000Y-88367000D01*
X182893829Y-88367000D01*
X182834472Y-88556352D01*
X181034385Y-88556352D01*
X181034385Y-87923648D01*
X182834472Y-87923648D01*
X182893829Y-88113000D01*
X183893000Y-88113000D01*
X183893000Y-87114392D01*
X184147000Y-87114392D01*
X184147000Y-88113000D01*
X185146171Y-88113000D01*
X185205528Y-87923648D01*
X184994222Y-87494047D01*
X184634600Y-87178011D01*
X184336351Y-87054482D01*
X184147000Y-87114392D01*
X183893000Y-87114392D01*
X183703649Y-87054482D01*
X183405400Y-87178011D01*
X183045778Y-87494047D01*
X182834472Y-87923648D01*
X181034385Y-87923648D01*
X181034385Y-87800000D01*
X181008097Y-87660292D01*
X180925530Y-87531980D01*
X180799547Y-87445899D01*
X180650000Y-87415615D01*
X179050000Y-87415615D01*
X178910292Y-87441903D01*
X178781980Y-87524470D01*
X178696035Y-87650254D01*
X178669605Y-87586447D01*
X178563553Y-87480395D01*
X178424990Y-87423000D01*
X177771250Y-87423000D01*
X177677000Y-87517250D01*
X177677000Y-88473000D01*
X177697000Y-88473000D01*
X177697000Y-88727000D01*
X177677000Y-88727000D01*
X177677000Y-89682750D01*
X177771250Y-89777000D01*
X178424990Y-89777000D01*
X178563553Y-89719605D01*
X178669605Y-89613553D01*
X178696946Y-89547546D01*
X178774470Y-89668020D01*
X178900453Y-89754101D01*
X179050000Y-89784385D01*
X179348000Y-89784385D01*
X179348000Y-91149995D01*
X179347999Y-91150000D01*
X179386212Y-91342107D01*
X179495032Y-91504968D01*
X179955680Y-91965615D01*
X178700000Y-91965615D01*
X178560292Y-91991903D01*
X178431980Y-92074470D01*
X178345899Y-92200453D01*
X178315615Y-92350000D01*
X178315615Y-92698000D01*
X178234385Y-92698000D01*
X178234385Y-92400000D01*
X178208097Y-92260292D01*
X178125530Y-92131980D01*
X177999547Y-92045899D01*
X177850000Y-92015615D01*
X176250000Y-92015615D01*
X176110292Y-92041903D01*
X175981980Y-92124470D01*
X175896035Y-92250254D01*
X175869605Y-92186447D01*
X175763553Y-92080395D01*
X175624990Y-92023000D01*
X174971250Y-92023000D01*
X174877000Y-92117250D01*
X174623000Y-92117250D01*
X174528750Y-92023000D01*
X174344432Y-92023000D01*
X174609275Y-91913569D01*
X174912504Y-91610868D01*
X175076813Y-91215168D01*
X175077187Y-90786711D01*
X174913569Y-90390725D01*
X174610868Y-90087496D01*
X174215168Y-89923187D01*
X173786711Y-89922813D01*
X173390725Y-90086431D01*
X173087496Y-90389132D01*
X172923187Y-90784832D01*
X172922941Y-91067123D01*
X172245032Y-91745032D01*
X172136212Y-91907893D01*
X172097999Y-92100000D01*
X172098000Y-92100005D01*
X172098000Y-94623000D01*
X171521250Y-94623000D01*
X171427000Y-94717250D01*
X171427000Y-95573000D01*
X171447000Y-95573000D01*
X171447000Y-95827000D01*
X171427000Y-95827000D01*
X171427000Y-96682750D01*
X171521250Y-96777000D01*
X172098000Y-96777000D01*
X172098000Y-97015615D01*
X170450000Y-97015615D01*
X170310292Y-97041903D01*
X170181980Y-97124470D01*
X170095899Y-97250453D01*
X170065615Y-97400000D01*
X170065615Y-98800000D01*
X170091903Y-98939708D01*
X170174470Y-99068020D01*
X170300453Y-99154101D01*
X170450000Y-99184385D01*
X170798000Y-99184385D01*
X170798000Y-99198000D01*
X169584385Y-99198000D01*
X169584385Y-99150000D01*
X169558097Y-99010292D01*
X169475530Y-98881980D01*
X169349547Y-98795899D01*
X169200000Y-98765615D01*
X167600000Y-98765615D01*
X167460292Y-98791903D01*
X167331980Y-98874470D01*
X167245899Y-99000453D01*
X167215615Y-99150000D01*
X167215615Y-100750000D01*
X167241903Y-100889708D01*
X167324470Y-101018020D01*
X167446031Y-101101080D01*
X167331980Y-101174470D01*
X167245899Y-101300453D01*
X167215615Y-101450000D01*
X167215615Y-101748000D01*
X163762000Y-101748000D01*
X163762000Y-97996942D01*
X164104053Y-98339593D01*
X164554864Y-98526786D01*
X165042995Y-98527212D01*
X165494131Y-98340806D01*
X165839593Y-97995947D01*
X166026786Y-97545136D01*
X166027212Y-97057005D01*
X165840806Y-96605869D01*
X165495947Y-96260407D01*
X165045136Y-96073214D01*
X164557005Y-96072788D01*
X164105869Y-96259194D01*
X163762000Y-96602463D01*
X163762000Y-95921250D01*
X170073000Y-95921250D01*
X170073000Y-96474990D01*
X170130395Y-96613553D01*
X170236447Y-96719605D01*
X170375010Y-96777000D01*
X171078750Y-96777000D01*
X171173000Y-96682750D01*
X171173000Y-95827000D01*
X170167250Y-95827000D01*
X170073000Y-95921250D01*
X163762000Y-95921250D01*
X163762000Y-95652856D01*
X164092265Y-95432181D01*
X164347406Y-95050334D01*
X164437000Y-94599916D01*
X164437000Y-93840084D01*
X164623000Y-93840084D01*
X164623000Y-94599916D01*
X164712594Y-95050334D01*
X164967735Y-95432181D01*
X165349582Y-95687322D01*
X165800000Y-95776916D01*
X166250418Y-95687322D01*
X166632265Y-95432181D01*
X166887406Y-95050334D01*
X166977000Y-94599916D01*
X166977000Y-93840084D01*
X166962541Y-93767395D01*
X167477936Y-93252000D01*
X168665615Y-93252000D01*
X168665615Y-94400000D01*
X168691903Y-94539708D01*
X168774470Y-94668020D01*
X168900453Y-94754101D01*
X169050000Y-94784385D01*
X170132457Y-94784385D01*
X170130395Y-94786447D01*
X170073000Y-94925010D01*
X170073000Y-95478750D01*
X170167250Y-95573000D01*
X171173000Y-95573000D01*
X171173000Y-94717250D01*
X171078750Y-94623000D01*
X171053912Y-94623000D01*
X171104101Y-94549547D01*
X171134385Y-94400000D01*
X171134385Y-92225551D01*
X172154965Y-91204970D01*
X172154968Y-91204968D01*
X172263788Y-91042107D01*
X172281121Y-90954967D01*
X172302001Y-90850000D01*
X172302000Y-90849995D01*
X172302000Y-89507936D01*
X172515615Y-89294321D01*
X172515615Y-89350000D01*
X172541903Y-89489708D01*
X172624470Y-89618020D01*
X172750453Y-89704101D01*
X172900000Y-89734385D01*
X173700000Y-89734385D01*
X173839708Y-89708097D01*
X173968020Y-89625530D01*
X174054101Y-89499547D01*
X174084385Y-89350000D01*
X174084385Y-88821250D01*
X176373000Y-88821250D01*
X176373000Y-89474990D01*
X176430395Y-89613553D01*
X176536447Y-89719605D01*
X176675010Y-89777000D01*
X177328750Y-89777000D01*
X177423000Y-89682750D01*
X177423000Y-88727000D01*
X176467250Y-88727000D01*
X176373000Y-88821250D01*
X174084385Y-88821250D01*
X174084385Y-87725010D01*
X176373000Y-87725010D01*
X176373000Y-88378750D01*
X176467250Y-88473000D01*
X177423000Y-88473000D01*
X177423000Y-87517250D01*
X177328750Y-87423000D01*
X176675010Y-87423000D01*
X176536447Y-87480395D01*
X176430395Y-87586447D01*
X176373000Y-87725010D01*
X174084385Y-87725010D01*
X174084385Y-87450000D01*
X174058097Y-87310292D01*
X173975530Y-87181980D01*
X173849547Y-87095899D01*
X173700000Y-87065615D01*
X172900000Y-87065615D01*
X172760292Y-87091903D01*
X172631980Y-87174470D01*
X172545899Y-87300453D01*
X172515615Y-87450000D01*
X172515615Y-87934676D01*
X172507892Y-87936212D01*
X172463888Y-87965615D01*
X172345032Y-88045032D01*
X172345030Y-88045035D01*
X171445032Y-88945032D01*
X171336212Y-89107893D01*
X171297999Y-89300000D01*
X171298000Y-89300005D01*
X171298000Y-90642065D01*
X171057853Y-90882212D01*
X171025530Y-90831980D01*
X170899547Y-90745899D01*
X170750000Y-90715615D01*
X169050000Y-90715615D01*
X168910292Y-90741903D01*
X168781980Y-90824470D01*
X168695899Y-90950453D01*
X168665615Y-91100000D01*
X168665615Y-92248000D01*
X167270005Y-92248000D01*
X167270000Y-92247999D01*
X167077893Y-92286212D01*
X166915032Y-92395032D01*
X166434432Y-92875632D01*
X166250418Y-92752678D01*
X165800000Y-92663084D01*
X165349582Y-92752678D01*
X164967735Y-93007819D01*
X164712594Y-93389666D01*
X164623000Y-93840084D01*
X164437000Y-93840084D01*
X164347406Y-93389666D01*
X164092265Y-93007819D01*
X163710418Y-92752678D01*
X163260000Y-92663084D01*
X162809582Y-92752678D01*
X162427735Y-93007819D01*
X162172594Y-93389666D01*
X162083000Y-93840084D01*
X161897000Y-93840084D01*
X161807406Y-93389666D01*
X161552265Y-93007819D01*
X161170418Y-92752678D01*
X160720000Y-92663084D01*
X160269582Y-92752678D01*
X159887735Y-93007819D01*
X159632594Y-93389666D01*
X159543000Y-93840084D01*
X159543000Y-94599916D01*
X159632594Y-95050334D01*
X159887735Y-95432181D01*
X160218000Y-95652856D01*
X160218000Y-96272065D01*
X157592064Y-98898000D01*
X154607936Y-98898000D01*
X154234385Y-98524449D01*
X154234385Y-97150000D01*
X154208097Y-97010292D01*
X154125530Y-96881980D01*
X153999547Y-96795899D01*
X153850000Y-96765615D01*
X152150000Y-96765615D01*
X152010292Y-96791903D01*
X151881980Y-96874470D01*
X151795899Y-97000453D01*
X151765615Y-97150000D01*
X150952000Y-97150000D01*
X150952000Y-93840084D01*
X154463000Y-93840084D01*
X154463000Y-94599916D01*
X154552594Y-95050334D01*
X154807735Y-95432181D01*
X155189582Y-95687322D01*
X155640000Y-95776916D01*
X156090418Y-95687322D01*
X156309786Y-95540746D01*
X156297999Y-95600000D01*
X156298000Y-95600005D01*
X156298000Y-96179807D01*
X156105869Y-96259194D01*
X155760407Y-96604053D01*
X155573214Y-97054864D01*
X155572788Y-97542995D01*
X155759194Y-97994131D01*
X156104053Y-98339593D01*
X156554864Y-98526786D01*
X157042995Y-98527212D01*
X157494131Y-98340806D01*
X157839593Y-97995947D01*
X158026786Y-97545136D01*
X158027212Y-97057005D01*
X157840806Y-96605869D01*
X157495947Y-96260407D01*
X157302000Y-96179873D01*
X157302000Y-95807936D01*
X157545568Y-95564368D01*
X157729582Y-95687322D01*
X158180000Y-95776916D01*
X158630418Y-95687322D01*
X159012265Y-95432181D01*
X159267406Y-95050334D01*
X159357000Y-94599916D01*
X159357000Y-93840084D01*
X159267406Y-93389666D01*
X159208472Y-93301464D01*
X163614968Y-88894968D01*
X163723788Y-88732107D01*
X163762001Y-88540000D01*
X163762000Y-88539995D01*
X163762000Y-88032856D01*
X164092265Y-87812181D01*
X164347406Y-87430334D01*
X164437000Y-86979916D01*
X164437000Y-86220084D01*
X164623000Y-86220084D01*
X164623000Y-86979916D01*
X164712594Y-87430334D01*
X164967735Y-87812181D01*
X165349582Y-88067322D01*
X165800000Y-88156916D01*
X166250418Y-88067322D01*
X166632265Y-87812181D01*
X166672476Y-87752000D01*
X168665615Y-87752000D01*
X168665615Y-88900000D01*
X168691903Y-89039708D01*
X168774470Y-89168020D01*
X168900453Y-89254101D01*
X169050000Y-89284385D01*
X170750000Y-89284385D01*
X170889708Y-89258097D01*
X171018020Y-89175530D01*
X171104101Y-89049547D01*
X171134385Y-88900000D01*
X171134385Y-85621250D01*
X171573000Y-85621250D01*
X171573000Y-86424990D01*
X171630395Y-86563553D01*
X171736447Y-86669605D01*
X171875010Y-86727000D01*
X172128750Y-86727000D01*
X172223000Y-86632750D01*
X172223000Y-85527000D01*
X172477000Y-85527000D01*
X172477000Y-86632750D01*
X172571250Y-86727000D01*
X172824990Y-86727000D01*
X172963553Y-86669605D01*
X173069605Y-86563553D01*
X173127000Y-86424990D01*
X173127000Y-85621250D01*
X173032750Y-85527000D01*
X172477000Y-85527000D01*
X172223000Y-85527000D01*
X171667250Y-85527000D01*
X171573000Y-85621250D01*
X171134385Y-85621250D01*
X171134385Y-85600000D01*
X171108097Y-85460292D01*
X171025530Y-85331980D01*
X170899547Y-85245899D01*
X170750000Y-85215615D01*
X169050000Y-85215615D01*
X168910292Y-85241903D01*
X168781980Y-85324470D01*
X168695899Y-85450453D01*
X168665615Y-85600000D01*
X168665615Y-86748000D01*
X166977000Y-86748000D01*
X166977000Y-86220084D01*
X166887406Y-85769666D01*
X166632265Y-85387819D01*
X166250418Y-85132678D01*
X165800000Y-85043084D01*
X165349582Y-85132678D01*
X164967735Y-85387819D01*
X164712594Y-85769666D01*
X164623000Y-86220084D01*
X164437000Y-86220084D01*
X164347406Y-85769666D01*
X164092265Y-85387819D01*
X163710418Y-85132678D01*
X163260000Y-85043084D01*
X162809582Y-85132678D01*
X162427735Y-85387819D01*
X162172594Y-85769666D01*
X162083000Y-86220084D01*
X162083000Y-86979916D01*
X162172594Y-87430334D01*
X162427735Y-87812181D01*
X162758000Y-88032856D01*
X162758000Y-88332064D01*
X158386003Y-92704061D01*
X158180000Y-92663084D01*
X157729582Y-92752678D01*
X157347735Y-93007819D01*
X157092594Y-93389666D01*
X157003000Y-93840084D01*
X157003000Y-94599916D01*
X157017459Y-94672606D01*
X156749176Y-94940888D01*
X156817000Y-94599916D01*
X156817000Y-93840084D01*
X156727406Y-93389666D01*
X156472265Y-93007819D01*
X156090418Y-92752678D01*
X155640000Y-92663084D01*
X155189582Y-92752678D01*
X154807735Y-93007819D01*
X154552594Y-93389666D01*
X154463000Y-93840084D01*
X150952000Y-93840084D01*
X150952000Y-88087224D01*
X152819140Y-86220084D01*
X154463000Y-86220084D01*
X154463000Y-86979916D01*
X154552594Y-87430334D01*
X154807735Y-87812181D01*
X155189582Y-88067322D01*
X155640000Y-88156916D01*
X156090418Y-88067322D01*
X156472265Y-87812181D01*
X156727406Y-87430334D01*
X156817000Y-86979916D01*
X156817000Y-86220084D01*
X157003000Y-86220084D01*
X157003000Y-86979916D01*
X157092594Y-87430334D01*
X157347735Y-87812181D01*
X157729582Y-88067322D01*
X158180000Y-88156916D01*
X158630418Y-88067322D01*
X159012265Y-87812181D01*
X159267406Y-87430334D01*
X159357000Y-86979916D01*
X159357000Y-86727000D01*
X159543000Y-86727000D01*
X159543000Y-87077000D01*
X159681195Y-87517751D01*
X159977538Y-87872067D01*
X160411515Y-88085855D01*
X160593000Y-88025276D01*
X160593000Y-86727000D01*
X160847000Y-86727000D01*
X160847000Y-88025276D01*
X161028485Y-88085855D01*
X161462462Y-87872067D01*
X161758805Y-87517751D01*
X161897000Y-87077000D01*
X161897000Y-86727000D01*
X160847000Y-86727000D01*
X160593000Y-86727000D01*
X159543000Y-86727000D01*
X159357000Y-86727000D01*
X159357000Y-86220084D01*
X159337689Y-86123000D01*
X159543000Y-86123000D01*
X159543000Y-86473000D01*
X160593000Y-86473000D01*
X160593000Y-85174724D01*
X160847000Y-85174724D01*
X160847000Y-86473000D01*
X161897000Y-86473000D01*
X161897000Y-86123000D01*
X161758805Y-85682249D01*
X161462462Y-85327933D01*
X161028485Y-85114145D01*
X160847000Y-85174724D01*
X160593000Y-85174724D01*
X160411515Y-85114145D01*
X159977538Y-85327933D01*
X159681195Y-85682249D01*
X159543000Y-86123000D01*
X159337689Y-86123000D01*
X159267406Y-85769666D01*
X159012265Y-85387819D01*
X158630418Y-85132678D01*
X158180000Y-85043084D01*
X157729582Y-85132678D01*
X157347735Y-85387819D01*
X157092594Y-85769666D01*
X157003000Y-86220084D01*
X156817000Y-86220084D01*
X156727406Y-85769666D01*
X156472265Y-85387819D01*
X156090418Y-85132678D01*
X155640000Y-85043084D01*
X155189582Y-85132678D01*
X154807735Y-85387819D01*
X154552594Y-85769666D01*
X154463000Y-86220084D01*
X152819140Y-86220084D01*
X154664214Y-84375010D01*
X171573000Y-84375010D01*
X171573000Y-85178750D01*
X171667250Y-85273000D01*
X172223000Y-85273000D01*
X172223000Y-84167250D01*
X172477000Y-84167250D01*
X172477000Y-85273000D01*
X173032750Y-85273000D01*
X173127000Y-85178750D01*
X173127000Y-84450000D01*
X173465615Y-84450000D01*
X173465615Y-86350000D01*
X173491903Y-86489708D01*
X173574470Y-86618020D01*
X173700453Y-86704101D01*
X173850000Y-86734385D01*
X174650000Y-86734385D01*
X174789708Y-86708097D01*
X174918020Y-86625530D01*
X175004101Y-86499547D01*
X175034385Y-86350000D01*
X175034385Y-85902000D01*
X175415615Y-85902000D01*
X175415615Y-86150000D01*
X175441903Y-86289708D01*
X175524470Y-86418020D01*
X175650453Y-86504101D01*
X175800000Y-86534385D01*
X177200000Y-86534385D01*
X177339708Y-86508097D01*
X177468020Y-86425530D01*
X177554101Y-86299547D01*
X177584385Y-86150000D01*
X177584385Y-84450000D01*
X177558097Y-84310292D01*
X177475530Y-84181980D01*
X177349547Y-84095899D01*
X177200000Y-84065615D01*
X175800000Y-84065615D01*
X175660292Y-84091903D01*
X175531980Y-84174470D01*
X175445899Y-84300453D01*
X175415615Y-84450000D01*
X175415615Y-84898000D01*
X175034385Y-84898000D01*
X175034385Y-84450000D01*
X175008097Y-84310292D01*
X174925530Y-84181980D01*
X174799547Y-84095899D01*
X174650000Y-84065615D01*
X173850000Y-84065615D01*
X173710292Y-84091903D01*
X173581980Y-84174470D01*
X173495899Y-84300453D01*
X173465615Y-84450000D01*
X173127000Y-84450000D01*
X173127000Y-84375010D01*
X173069605Y-84236447D01*
X172963553Y-84130395D01*
X172824990Y-84073000D01*
X172571250Y-84073000D01*
X172477000Y-84167250D01*
X172223000Y-84167250D01*
X172128750Y-84073000D01*
X171875010Y-84073000D01*
X171736447Y-84130395D01*
X171630395Y-84236447D01*
X171573000Y-84375010D01*
X154664214Y-84375010D01*
X155087224Y-83952000D01*
X182584264Y-83952000D01*
X182542660Y-83979800D01*
G36*
X196690044Y-87299979D02*
X196507892Y-87336212D01*
X196345032Y-87445032D01*
X196045032Y-87745032D01*
X195936212Y-87907893D01*
X195922805Y-87975296D01*
X195875000Y-87965615D01*
X195325000Y-87965615D01*
X195195411Y-87989999D01*
X195075000Y-87965615D01*
X194525000Y-87965615D01*
X194395411Y-87989999D01*
X194275000Y-87965615D01*
X193725000Y-87965615D01*
X193702000Y-87969943D01*
X193702000Y-87700000D01*
X193668579Y-87531980D01*
X193663788Y-87507892D01*
X193615061Y-87434968D01*
X193554968Y-87345032D01*
X193554965Y-87345030D01*
X193477029Y-87267094D01*
X193477117Y-87165927D01*
X193374267Y-86917011D01*
X193183990Y-86726402D01*
X192935254Y-86623118D01*
X192665927Y-86622883D01*
X192417011Y-86725733D01*
X192226402Y-86916010D01*
X192167587Y-87057652D01*
X190454968Y-85345032D01*
X190334385Y-85264461D01*
X190334385Y-84902000D01*
X194292064Y-84902000D01*
X196690044Y-87299979D01*
X196690044Y-87299979D01*
G37*
X196690044Y-87299979D02*
X196507892Y-87336212D01*
X196345032Y-87445032D01*
X196045032Y-87745032D01*
X195936212Y-87907893D01*
X195922805Y-87975296D01*
X195875000Y-87965615D01*
X195325000Y-87965615D01*
X195195411Y-87989999D01*
X195075000Y-87965615D01*
X194525000Y-87965615D01*
X194395411Y-87989999D01*
X194275000Y-87965615D01*
X193725000Y-87965615D01*
X193702000Y-87969943D01*
X193702000Y-87700000D01*
X193668579Y-87531980D01*
X193663788Y-87507892D01*
X193615061Y-87434968D01*
X193554968Y-87345032D01*
X193554965Y-87345030D01*
X193477029Y-87267094D01*
X193477117Y-87165927D01*
X193374267Y-86917011D01*
X193183990Y-86726402D01*
X192935254Y-86623118D01*
X192665927Y-86622883D01*
X192417011Y-86725733D01*
X192226402Y-86916010D01*
X192167587Y-87057652D01*
X190454968Y-85345032D01*
X190334385Y-85264461D01*
X190334385Y-84902000D01*
X194292064Y-84902000D01*
X196690044Y-87299979D01*
M02*
