G04 #@! TF.FileFunction,Copper,L2,Bot,Signal*
%FSLAX46Y46*%
G04 Gerber Fmt 4.6, Leading zero omitted, Abs format (unit mm)*
G04 Created by KiCad (PCBNEW 4.0.7-e2-6376~58~ubuntu14.04.1) date Mon Mar 25 04:59:34 2019*
%MOMM*%
%LPD*%
G01*
G04 APERTURE LIST*
%ADD10C,0.100000*%
%ADD11R,1.600000X1.600000*%
%ADD12O,1.600000X1.600000*%
%ADD13R,0.600000X1.550000*%
%ADD14O,1.600000X2.300000*%
%ADD15C,1.500000*%
%ADD16C,1.400000*%
%ADD17O,1.400000X1.400000*%
%ADD18R,1.700000X1.700000*%
%ADD19O,1.700000X1.700000*%
%ADD20R,1.400000X1.700000*%
%ADD21R,1.800000X1.800000*%
%ADD22C,1.800000*%
%ADD23C,1.700000*%
%ADD24C,0.600000*%
%ADD25C,0.250000*%
%ADD26C,0.254000*%
G04 APERTURE END LIST*
D10*
D11*
X173900000Y-95800000D03*
D12*
X181520000Y-103420000D03*
X173900000Y-98340000D03*
X181520000Y-100880000D03*
X173900000Y-100880000D03*
X181520000Y-98340000D03*
X173900000Y-103420000D03*
X181520000Y-95800000D03*
D13*
X175795000Y-96900000D03*
X177065000Y-96900000D03*
X178335000Y-96900000D03*
X179605000Y-96900000D03*
X179605000Y-102300000D03*
X178335000Y-102300000D03*
X177065000Y-102300000D03*
X175795000Y-102300000D03*
D14*
X165800000Y-86600000D03*
X163260000Y-86600000D03*
X160720000Y-86600000D03*
X158180000Y-86600000D03*
X155640000Y-86600000D03*
X155640000Y-94220000D03*
X158180000Y-94220000D03*
X160720000Y-94220000D03*
X163260000Y-94220000D03*
X165800000Y-94220000D03*
D11*
X196550000Y-90000000D03*
X194250000Y-90000000D03*
D15*
X209400000Y-89200000D03*
X204520000Y-89200000D03*
D16*
X174000000Y-91000000D03*
D17*
X181620000Y-91000000D03*
D18*
X189100000Y-85700000D03*
D19*
X189100000Y-88240000D03*
X186560000Y-85700000D03*
X186560000Y-88240000D03*
X184020000Y-85700000D03*
X184020000Y-88240000D03*
D20*
X187800000Y-90400000D03*
X185400000Y-90400000D03*
D18*
X153000000Y-98000000D03*
D19*
X153000000Y-100540000D03*
D21*
X206200000Y-106700000D03*
D22*
X206200000Y-104160000D03*
D23*
X156800000Y-97300000D03*
X164800000Y-97300000D03*
D24*
X175300000Y-88600000D03*
X159600000Y-101700000D03*
X187300000Y-92100000D03*
X193700000Y-85900000D03*
X198700000Y-85300000D03*
X194100000Y-93000000D03*
X197500000Y-93000000D03*
X188500000Y-105800000D03*
X175800000Y-104300000D03*
X192600000Y-90700000D03*
X178300000Y-95000000D03*
X186300000Y-95400000D03*
X192700000Y-95400000D03*
X193100000Y-106200000D03*
X208300000Y-98800000D03*
X208300000Y-96600000D03*
X192800000Y-87300000D03*
X186400000Y-92900000D03*
X187700000Y-94200000D03*
X195400000Y-96200000D03*
X197700000Y-99700000D03*
D25*
X198100000Y-85900000D02*
X193700000Y-85900000D01*
X198700000Y-85300000D02*
X198100000Y-85900000D01*
X173900000Y-103420000D02*
X173900000Y-103300000D01*
X179605000Y-97595000D02*
X179605000Y-96900000D01*
X189100000Y-88240000D02*
X190840000Y-88240000D01*
X190840000Y-88240000D02*
X191100000Y-88500000D01*
X181520000Y-95800000D02*
X181520000Y-96950000D01*
X181500000Y-96950000D02*
X181520000Y-96950000D01*
X180850000Y-96950000D02*
X180400000Y-97400000D01*
X180400000Y-97400000D02*
X180400000Y-98000000D01*
X180400000Y-98000000D02*
X178800000Y-99600000D01*
X178800000Y-99600000D02*
X177600000Y-99600000D01*
X177600000Y-99600000D02*
X175795000Y-101405000D01*
X175795000Y-101405000D02*
X175795000Y-102300000D01*
X180850000Y-96950000D02*
X181500000Y-96950000D01*
X181520000Y-96950000D02*
X183650000Y-96950000D01*
X184800000Y-95800000D02*
X189000000Y-91600000D01*
X183650000Y-96950000D02*
X184800000Y-95800000D01*
X187800000Y-90400000D02*
X189000000Y-91600000D01*
X189000000Y-91600000D02*
X191600000Y-89000000D01*
X175795000Y-102300000D02*
X175795000Y-104295000D01*
X175795000Y-104295000D02*
X175800000Y-104300000D01*
X192600000Y-90000000D02*
X192600000Y-90700000D01*
X192600000Y-90000000D02*
X194250000Y-90000000D01*
X191100000Y-88500000D02*
X191600000Y-89000000D01*
X191600000Y-89000000D02*
X192600000Y-90000000D01*
X181520000Y-95800000D02*
X181520000Y-96280000D01*
X177065000Y-96900000D02*
X177065000Y-97535000D01*
X177065000Y-97535000D02*
X176260000Y-98340000D01*
X176260000Y-98340000D02*
X173900000Y-98340000D01*
X178335000Y-95035000D02*
X178335000Y-96900000D01*
X178300000Y-95000000D02*
X178335000Y-95035000D01*
X178335000Y-96900000D02*
X178335000Y-97765000D01*
X177300000Y-98200000D02*
X174620000Y-100880000D01*
X177900000Y-98200000D02*
X177300000Y-98200000D01*
X178335000Y-97765000D02*
X177900000Y-98200000D01*
X174620000Y-100880000D02*
X173900000Y-100880000D01*
X180300000Y-100880000D02*
X180300000Y-102300000D01*
X179605000Y-102300000D02*
X180300000Y-102300000D01*
X180300000Y-102300000D02*
X180400000Y-102300000D01*
X180400000Y-102300000D02*
X181520000Y-103420000D01*
X179605000Y-102300000D02*
X179605000Y-102805000D01*
X178335000Y-102300000D02*
X178335000Y-101065000D01*
X178520000Y-100880000D02*
X180300000Y-100880000D01*
X180300000Y-100880000D02*
X181520000Y-100880000D01*
X178335000Y-101065000D02*
X178520000Y-100880000D01*
X192700000Y-95400000D02*
X186300000Y-95400000D01*
X178300000Y-100300000D02*
X179100000Y-100300000D01*
X179100000Y-100300000D02*
X179300000Y-100100000D01*
X179300000Y-100100000D02*
X181060000Y-98340000D01*
X181060000Y-98340000D02*
X181520000Y-98340000D01*
X177065000Y-102300000D02*
X177065000Y-101535000D01*
X177065000Y-101535000D02*
X178300000Y-100300000D01*
X165800000Y-86600000D02*
X165900000Y-86600000D01*
X165900000Y-86600000D02*
X167900000Y-88600000D01*
X192400000Y-106900000D02*
X193100000Y-106200000D01*
X172800000Y-106900000D02*
X192400000Y-106900000D01*
X167900000Y-102000000D02*
X172800000Y-106900000D01*
X167900000Y-88600000D02*
X167900000Y-102000000D01*
X208300000Y-96600000D02*
X208300000Y-98800000D01*
X186560000Y-88240000D02*
X186860000Y-88240000D01*
X186860000Y-88240000D02*
X188100000Y-87000000D01*
X192500000Y-87000000D02*
X192800000Y-87300000D01*
X188100000Y-87000000D02*
X192500000Y-87000000D01*
X184020000Y-85700000D02*
X184020000Y-86020000D01*
X184020000Y-86020000D02*
X185300000Y-87300000D01*
X185400000Y-91900000D02*
X185400000Y-90400000D01*
X186400000Y-92900000D02*
X185400000Y-91900000D01*
X193400000Y-94200000D02*
X187700000Y-94200000D01*
X195400000Y-96200000D02*
X193400000Y-94200000D01*
X184020000Y-85700000D02*
X184020000Y-86120000D01*
X185300000Y-87300000D02*
X185300000Y-90300000D01*
X185300000Y-90300000D02*
X185400000Y-90400000D01*
X202160000Y-104160000D02*
X206200000Y-104160000D01*
X197700000Y-99700000D02*
X202160000Y-104160000D01*
D26*
G36*
X217048000Y-90687224D02*
X217048000Y-103812776D01*
X213112776Y-107748000D01*
X207454414Y-107748000D01*
X207484385Y-107600000D01*
X207484385Y-105800000D01*
X207458097Y-105660292D01*
X207375530Y-105531980D01*
X207249547Y-105445899D01*
X207100000Y-105415615D01*
X206505187Y-105415615D01*
X206922417Y-105243219D01*
X207281957Y-104884307D01*
X207476778Y-104415125D01*
X207477221Y-103907103D01*
X207283219Y-103437583D01*
X206924307Y-103078043D01*
X206455125Y-102883222D01*
X205947103Y-102882779D01*
X205477583Y-103076781D01*
X205118043Y-103435693D01*
X205025733Y-103658000D01*
X202367935Y-103658000D01*
X199073715Y-100363779D01*
X212072857Y-100363779D01*
X212198495Y-100667846D01*
X212430930Y-100900688D01*
X212734778Y-101026856D01*
X213063779Y-101027143D01*
X213367846Y-100901505D01*
X213600688Y-100669070D01*
X213726856Y-100365222D01*
X213727143Y-100036221D01*
X213601505Y-99732154D01*
X213369070Y-99499312D01*
X213065222Y-99373144D01*
X212736221Y-99372857D01*
X212432154Y-99498495D01*
X212199312Y-99730930D01*
X212073144Y-100034778D01*
X212072857Y-100363779D01*
X199073715Y-100363779D01*
X198377029Y-99667093D01*
X198377117Y-99565927D01*
X198274267Y-99317011D01*
X198083990Y-99126402D01*
X197835254Y-99023118D01*
X197565927Y-99022883D01*
X197317011Y-99125733D01*
X197126402Y-99316010D01*
X197023118Y-99564746D01*
X197022883Y-99834073D01*
X197125733Y-100082989D01*
X197316010Y-100273598D01*
X197564746Y-100376882D01*
X197667035Y-100376971D01*
X201805030Y-104514965D01*
X201805032Y-104514968D01*
X201967893Y-104623788D01*
X202160000Y-104662000D01*
X205025706Y-104662000D01*
X205116781Y-104882417D01*
X205475693Y-105241957D01*
X205893909Y-105415615D01*
X205300000Y-105415615D01*
X205160292Y-105441903D01*
X205031980Y-105524470D01*
X204945899Y-105650453D01*
X204915615Y-105800000D01*
X204915615Y-107600000D01*
X204941903Y-107739708D01*
X204947239Y-107748000D01*
X155387224Y-107748000D01*
X150952000Y-103312776D01*
X150952000Y-100856351D01*
X151814482Y-100856351D01*
X151938011Y-101154600D01*
X152254047Y-101514222D01*
X152683648Y-101725528D01*
X152873000Y-101666171D01*
X152873000Y-100667000D01*
X153127000Y-100667000D01*
X153127000Y-101666171D01*
X153316352Y-101725528D01*
X153745953Y-101514222D01*
X154061989Y-101154600D01*
X154185518Y-100856351D01*
X154125608Y-100667000D01*
X153127000Y-100667000D01*
X152873000Y-100667000D01*
X151874392Y-100667000D01*
X151814482Y-100856351D01*
X150952000Y-100856351D01*
X150952000Y-100223649D01*
X151814482Y-100223649D01*
X151874392Y-100413000D01*
X152873000Y-100413000D01*
X152873000Y-99413829D01*
X153127000Y-99413829D01*
X153127000Y-100413000D01*
X154125608Y-100413000D01*
X154185518Y-100223649D01*
X154061989Y-99925400D01*
X153745953Y-99565778D01*
X153316352Y-99354472D01*
X153127000Y-99413829D01*
X152873000Y-99413829D01*
X152683648Y-99354472D01*
X152254047Y-99565778D01*
X151938011Y-99925400D01*
X151814482Y-100223649D01*
X150952000Y-100223649D01*
X150952000Y-97150000D01*
X151765615Y-97150000D01*
X151765615Y-98850000D01*
X151791903Y-98989708D01*
X151874470Y-99118020D01*
X152000453Y-99204101D01*
X152150000Y-99234385D01*
X153850000Y-99234385D01*
X153989708Y-99208097D01*
X154118020Y-99125530D01*
X154204101Y-98999547D01*
X154234385Y-98850000D01*
X154234385Y-97542995D01*
X155572788Y-97542995D01*
X155759194Y-97994131D01*
X156104053Y-98339593D01*
X156554864Y-98526786D01*
X157042995Y-98527212D01*
X157494131Y-98340806D01*
X157839593Y-97995947D01*
X158026786Y-97545136D01*
X158026787Y-97542995D01*
X163572788Y-97542995D01*
X163759194Y-97994131D01*
X164104053Y-98339593D01*
X164554864Y-98526786D01*
X165042995Y-98527212D01*
X165494131Y-98340806D01*
X165839593Y-97995947D01*
X166026786Y-97545136D01*
X166027212Y-97057005D01*
X165840806Y-96605869D01*
X165495947Y-96260407D01*
X165045136Y-96073214D01*
X164557005Y-96072788D01*
X164105869Y-96259194D01*
X163760407Y-96604053D01*
X163573214Y-97054864D01*
X163572788Y-97542995D01*
X158026787Y-97542995D01*
X158027212Y-97057005D01*
X157840806Y-96605869D01*
X157495947Y-96260407D01*
X157045136Y-96073214D01*
X156557005Y-96072788D01*
X156105869Y-96259194D01*
X155760407Y-96604053D01*
X155573214Y-97054864D01*
X155572788Y-97542995D01*
X154234385Y-97542995D01*
X154234385Y-97150000D01*
X154208097Y-97010292D01*
X154125530Y-96881980D01*
X153999547Y-96795899D01*
X153850000Y-96765615D01*
X152150000Y-96765615D01*
X152010292Y-96791903D01*
X151881980Y-96874470D01*
X151795899Y-97000453D01*
X151765615Y-97150000D01*
X150952000Y-97150000D01*
X150952000Y-93840084D01*
X154463000Y-93840084D01*
X154463000Y-94599916D01*
X154552594Y-95050334D01*
X154807735Y-95432181D01*
X155189582Y-95687322D01*
X155640000Y-95776916D01*
X156090418Y-95687322D01*
X156472265Y-95432181D01*
X156727406Y-95050334D01*
X156817000Y-94599916D01*
X156817000Y-93840084D01*
X157003000Y-93840084D01*
X157003000Y-94599916D01*
X157092594Y-95050334D01*
X157347735Y-95432181D01*
X157729582Y-95687322D01*
X158180000Y-95776916D01*
X158630418Y-95687322D01*
X159012265Y-95432181D01*
X159267406Y-95050334D01*
X159357000Y-94599916D01*
X159357000Y-93840084D01*
X159543000Y-93840084D01*
X159543000Y-94599916D01*
X159632594Y-95050334D01*
X159887735Y-95432181D01*
X160269582Y-95687322D01*
X160720000Y-95776916D01*
X161170418Y-95687322D01*
X161552265Y-95432181D01*
X161807406Y-95050334D01*
X161897000Y-94599916D01*
X161897000Y-93840084D01*
X162083000Y-93840084D01*
X162083000Y-94599916D01*
X162172594Y-95050334D01*
X162427735Y-95432181D01*
X162809582Y-95687322D01*
X163260000Y-95776916D01*
X163710418Y-95687322D01*
X164092265Y-95432181D01*
X164347406Y-95050334D01*
X164437000Y-94599916D01*
X164437000Y-93840084D01*
X164623000Y-93840084D01*
X164623000Y-94599916D01*
X164712594Y-95050334D01*
X164967735Y-95432181D01*
X165349582Y-95687322D01*
X165800000Y-95776916D01*
X166250418Y-95687322D01*
X166632265Y-95432181D01*
X166887406Y-95050334D01*
X166977000Y-94599916D01*
X166977000Y-93840084D01*
X166887406Y-93389666D01*
X166632265Y-93007819D01*
X166250418Y-92752678D01*
X165800000Y-92663084D01*
X165349582Y-92752678D01*
X164967735Y-93007819D01*
X164712594Y-93389666D01*
X164623000Y-93840084D01*
X164437000Y-93840084D01*
X164347406Y-93389666D01*
X164092265Y-93007819D01*
X163710418Y-92752678D01*
X163260000Y-92663084D01*
X162809582Y-92752678D01*
X162427735Y-93007819D01*
X162172594Y-93389666D01*
X162083000Y-93840084D01*
X161897000Y-93840084D01*
X161807406Y-93389666D01*
X161552265Y-93007819D01*
X161170418Y-92752678D01*
X160720000Y-92663084D01*
X160269582Y-92752678D01*
X159887735Y-93007819D01*
X159632594Y-93389666D01*
X159543000Y-93840084D01*
X159357000Y-93840084D01*
X159267406Y-93389666D01*
X159012265Y-93007819D01*
X158630418Y-92752678D01*
X158180000Y-92663084D01*
X157729582Y-92752678D01*
X157347735Y-93007819D01*
X157092594Y-93389666D01*
X157003000Y-93840084D01*
X156817000Y-93840084D01*
X156727406Y-93389666D01*
X156472265Y-93007819D01*
X156090418Y-92752678D01*
X155640000Y-92663084D01*
X155189582Y-92752678D01*
X154807735Y-93007819D01*
X154552594Y-93389666D01*
X154463000Y-93840084D01*
X150952000Y-93840084D01*
X150952000Y-88087224D01*
X152819140Y-86220084D01*
X154463000Y-86220084D01*
X154463000Y-86979916D01*
X154552594Y-87430334D01*
X154807735Y-87812181D01*
X155189582Y-88067322D01*
X155640000Y-88156916D01*
X156090418Y-88067322D01*
X156472265Y-87812181D01*
X156727406Y-87430334D01*
X156817000Y-86979916D01*
X156817000Y-86220084D01*
X157003000Y-86220084D01*
X157003000Y-86979916D01*
X157092594Y-87430334D01*
X157347735Y-87812181D01*
X157729582Y-88067322D01*
X158180000Y-88156916D01*
X158630418Y-88067322D01*
X159012265Y-87812181D01*
X159267406Y-87430334D01*
X159357000Y-86979916D01*
X159357000Y-86727000D01*
X159543000Y-86727000D01*
X159543000Y-87077000D01*
X159681195Y-87517751D01*
X159977538Y-87872067D01*
X160411515Y-88085855D01*
X160593000Y-88025276D01*
X160593000Y-86727000D01*
X160847000Y-86727000D01*
X160847000Y-88025276D01*
X161028485Y-88085855D01*
X161462462Y-87872067D01*
X161758805Y-87517751D01*
X161897000Y-87077000D01*
X161897000Y-86727000D01*
X160847000Y-86727000D01*
X160593000Y-86727000D01*
X159543000Y-86727000D01*
X159357000Y-86727000D01*
X159357000Y-86220084D01*
X159337689Y-86123000D01*
X159543000Y-86123000D01*
X159543000Y-86473000D01*
X160593000Y-86473000D01*
X160593000Y-85174724D01*
X160847000Y-85174724D01*
X160847000Y-86473000D01*
X161897000Y-86473000D01*
X161897000Y-86220084D01*
X162083000Y-86220084D01*
X162083000Y-86979916D01*
X162172594Y-87430334D01*
X162427735Y-87812181D01*
X162809582Y-88067322D01*
X163260000Y-88156916D01*
X163710418Y-88067322D01*
X164092265Y-87812181D01*
X164347406Y-87430334D01*
X164437000Y-86979916D01*
X164437000Y-86220084D01*
X164623000Y-86220084D01*
X164623000Y-86979916D01*
X164712594Y-87430334D01*
X164967735Y-87812181D01*
X165349582Y-88067322D01*
X165800000Y-88156916D01*
X166250418Y-88067322D01*
X166494378Y-87904314D01*
X167398000Y-88807936D01*
X167398000Y-101999995D01*
X167397999Y-102000000D01*
X167436212Y-102192107D01*
X167545032Y-102354968D01*
X172445030Y-107254965D01*
X172445032Y-107254968D01*
X172607893Y-107363788D01*
X172800000Y-107402000D01*
X192399995Y-107402000D01*
X192400000Y-107402001D01*
X192592107Y-107363788D01*
X192754968Y-107254968D01*
X193132907Y-106877029D01*
X193234073Y-106877117D01*
X193482989Y-106774267D01*
X193673598Y-106583990D01*
X193776882Y-106335254D01*
X193777117Y-106065927D01*
X193674267Y-105817011D01*
X193483990Y-105626402D01*
X193235254Y-105523118D01*
X192965927Y-105522883D01*
X192717011Y-105625733D01*
X192526402Y-105816010D01*
X192423118Y-106064746D01*
X192423029Y-106167036D01*
X192192064Y-106398000D01*
X173007935Y-106398000D01*
X170338421Y-103728485D01*
X172764145Y-103728485D01*
X172878688Y-104005045D01*
X173180318Y-104351350D01*
X173591513Y-104555866D01*
X173773000Y-104495890D01*
X173773000Y-103547000D01*
X174027000Y-103547000D01*
X174027000Y-104495890D01*
X174208487Y-104555866D01*
X174619682Y-104351350D01*
X174921312Y-104005045D01*
X175035855Y-103728485D01*
X174975276Y-103547000D01*
X174027000Y-103547000D01*
X173773000Y-103547000D01*
X172824724Y-103547000D01*
X172764145Y-103728485D01*
X170338421Y-103728485D01*
X169721451Y-103111515D01*
X172764145Y-103111515D01*
X172824724Y-103293000D01*
X173773000Y-103293000D01*
X173773000Y-102344110D01*
X174027000Y-102344110D01*
X174027000Y-103293000D01*
X174975276Y-103293000D01*
X175035855Y-103111515D01*
X174921312Y-102834955D01*
X174619682Y-102488650D01*
X174208487Y-102284134D01*
X174027000Y-102344110D01*
X173773000Y-102344110D01*
X173591513Y-102284134D01*
X173180318Y-102488650D01*
X172878688Y-102834955D01*
X172764145Y-103111515D01*
X169721451Y-103111515D01*
X168402000Y-101792064D01*
X168402000Y-98340000D01*
X172699941Y-98340000D01*
X172789535Y-98790418D01*
X173044676Y-99172265D01*
X173426523Y-99427406D01*
X173876941Y-99517000D01*
X173923059Y-99517000D01*
X174373477Y-99427406D01*
X174755324Y-99172265D01*
X174975999Y-98842000D01*
X175948065Y-98842000D01*
X174747534Y-100042530D01*
X174373477Y-99792594D01*
X173923059Y-99703000D01*
X173876941Y-99703000D01*
X173426523Y-99792594D01*
X173044676Y-100047735D01*
X172789535Y-100429582D01*
X172699941Y-100880000D01*
X172789535Y-101330418D01*
X173044676Y-101712265D01*
X173426523Y-101967406D01*
X173876941Y-102057000D01*
X173923059Y-102057000D01*
X174373477Y-101967406D01*
X174755324Y-101712265D01*
X174880449Y-101525000D01*
X175110615Y-101525000D01*
X175110615Y-103075000D01*
X175136903Y-103214708D01*
X175219470Y-103343020D01*
X175293000Y-103393261D01*
X175293000Y-103849528D01*
X175226402Y-103916010D01*
X175123118Y-104164746D01*
X175122883Y-104434073D01*
X175225733Y-104682989D01*
X175416010Y-104873598D01*
X175664746Y-104976882D01*
X175934073Y-104977117D01*
X176182989Y-104874267D01*
X176373598Y-104683990D01*
X176476882Y-104435254D01*
X176477117Y-104165927D01*
X176374267Y-103917011D01*
X176297000Y-103839609D01*
X176297000Y-103393013D01*
X176363020Y-103350530D01*
X176430630Y-103251580D01*
X176489470Y-103343020D01*
X176615453Y-103429101D01*
X176765000Y-103459385D01*
X177365000Y-103459385D01*
X177504708Y-103433097D01*
X177633020Y-103350530D01*
X177700630Y-103251580D01*
X177759470Y-103343020D01*
X177885453Y-103429101D01*
X178035000Y-103459385D01*
X178635000Y-103459385D01*
X178774708Y-103433097D01*
X178903020Y-103350530D01*
X178970630Y-103251580D01*
X179029470Y-103343020D01*
X179155453Y-103429101D01*
X179305000Y-103459385D01*
X179905000Y-103459385D01*
X180044708Y-103433097D01*
X180173020Y-103350530D01*
X180259101Y-103224547D01*
X180289385Y-103075000D01*
X180289385Y-102899321D01*
X180401258Y-103011194D01*
X180319941Y-103420000D01*
X180409535Y-103870418D01*
X180664676Y-104252265D01*
X181046523Y-104507406D01*
X181496941Y-104597000D01*
X181543059Y-104597000D01*
X181993477Y-104507406D01*
X182375324Y-104252265D01*
X182630465Y-103870418D01*
X182720059Y-103420000D01*
X182630465Y-102969582D01*
X182375324Y-102587735D01*
X181993477Y-102332594D01*
X181543059Y-102243000D01*
X181496941Y-102243000D01*
X181126601Y-102316665D01*
X180802000Y-101992064D01*
X180802000Y-101804022D01*
X181046523Y-101967406D01*
X181496941Y-102057000D01*
X181543059Y-102057000D01*
X181993477Y-101967406D01*
X182375324Y-101712265D01*
X182630465Y-101330418D01*
X182720059Y-100880000D01*
X182630465Y-100429582D01*
X182375324Y-100047735D01*
X181993477Y-99792594D01*
X181543059Y-99703000D01*
X181496941Y-99703000D01*
X181046523Y-99792594D01*
X180664676Y-100047735D01*
X180444001Y-100378000D01*
X179731936Y-100378000D01*
X180828325Y-99281611D01*
X181046523Y-99427406D01*
X181496941Y-99517000D01*
X181543059Y-99517000D01*
X181993477Y-99427406D01*
X182375324Y-99172265D01*
X182630465Y-98790418D01*
X182720059Y-98340000D01*
X182630465Y-97889582D01*
X182375324Y-97507735D01*
X182291910Y-97452000D01*
X183649995Y-97452000D01*
X183650000Y-97452001D01*
X183842107Y-97413788D01*
X184004968Y-97304968D01*
X185154965Y-96154970D01*
X185154968Y-96154968D01*
X185667612Y-95642324D01*
X185725733Y-95782989D01*
X185916010Y-95973598D01*
X186164746Y-96076882D01*
X186434073Y-96077117D01*
X186682989Y-95974267D01*
X186755382Y-95902000D01*
X192244537Y-95902000D01*
X192316010Y-95973598D01*
X192564746Y-96076882D01*
X192834073Y-96077117D01*
X193082989Y-95974267D01*
X193273598Y-95783990D01*
X193376882Y-95535254D01*
X193377117Y-95265927D01*
X193274267Y-95017011D01*
X193083990Y-94826402D01*
X192835254Y-94723118D01*
X192565927Y-94722883D01*
X192317011Y-94825733D01*
X192244618Y-94898000D01*
X186755463Y-94898000D01*
X186683990Y-94826402D01*
X186542349Y-94767587D01*
X187022924Y-94287012D01*
X187022883Y-94334073D01*
X187125733Y-94582989D01*
X187316010Y-94773598D01*
X187564746Y-94876882D01*
X187834073Y-94877117D01*
X188082989Y-94774267D01*
X188155382Y-94702000D01*
X193192064Y-94702000D01*
X194722971Y-96232907D01*
X194722883Y-96334073D01*
X194825733Y-96582989D01*
X195016010Y-96773598D01*
X195264746Y-96876882D01*
X195534073Y-96877117D01*
X195782989Y-96774267D01*
X195823253Y-96734073D01*
X207622883Y-96734073D01*
X207725733Y-96982989D01*
X207798000Y-97055382D01*
X207798000Y-98344537D01*
X207726402Y-98416010D01*
X207623118Y-98664746D01*
X207622883Y-98934073D01*
X207725733Y-99182989D01*
X207916010Y-99373598D01*
X208164746Y-99476882D01*
X208434073Y-99477117D01*
X208682989Y-99374267D01*
X208873598Y-99183990D01*
X208976882Y-98935254D01*
X208977117Y-98665927D01*
X208874267Y-98417011D01*
X208802000Y-98344618D01*
X208802000Y-97055463D01*
X208873598Y-96983990D01*
X208976882Y-96735254D01*
X208977117Y-96465927D01*
X208874267Y-96217011D01*
X208683990Y-96026402D01*
X208533177Y-95963779D01*
X212072857Y-95963779D01*
X212198495Y-96267846D01*
X212430930Y-96500688D01*
X212734778Y-96626856D01*
X213063779Y-96627143D01*
X213367846Y-96501505D01*
X213600688Y-96269070D01*
X213726856Y-95965222D01*
X213727143Y-95636221D01*
X213601505Y-95332154D01*
X213369070Y-95099312D01*
X213065222Y-94973144D01*
X212736221Y-94972857D01*
X212432154Y-95098495D01*
X212199312Y-95330930D01*
X212073144Y-95634778D01*
X212072857Y-95963779D01*
X208533177Y-95963779D01*
X208435254Y-95923118D01*
X208165927Y-95922883D01*
X207917011Y-96025733D01*
X207726402Y-96216010D01*
X207623118Y-96464746D01*
X207622883Y-96734073D01*
X195823253Y-96734073D01*
X195973598Y-96583990D01*
X196076882Y-96335254D01*
X196077117Y-96065927D01*
X195974267Y-95817011D01*
X195783990Y-95626402D01*
X195535254Y-95523118D01*
X195432965Y-95523029D01*
X193754968Y-93845032D01*
X193592107Y-93736212D01*
X193400000Y-93697999D01*
X193399995Y-93698000D01*
X188155463Y-93698000D01*
X188083990Y-93626402D01*
X187835254Y-93523118D01*
X187786860Y-93523076D01*
X189354969Y-91954967D01*
X191600000Y-89709935D01*
X192098000Y-90207935D01*
X192098000Y-90244537D01*
X192026402Y-90316010D01*
X191923118Y-90564746D01*
X191922883Y-90834073D01*
X192025733Y-91082989D01*
X192216010Y-91273598D01*
X192464746Y-91376882D01*
X192734073Y-91377117D01*
X192982989Y-91274267D01*
X193173598Y-91083990D01*
X193178956Y-91071085D01*
X193300453Y-91154101D01*
X193450000Y-91184385D01*
X195050000Y-91184385D01*
X195189708Y-91158097D01*
X195318020Y-91075530D01*
X195403965Y-90949746D01*
X195430395Y-91013553D01*
X195536447Y-91119605D01*
X195675010Y-91177000D01*
X196328750Y-91177000D01*
X196423000Y-91082750D01*
X196423000Y-90127000D01*
X196677000Y-90127000D01*
X196677000Y-91082750D01*
X196771250Y-91177000D01*
X197424990Y-91177000D01*
X197563553Y-91119605D01*
X197669605Y-91013553D01*
X197727000Y-90874990D01*
X197727000Y-90221250D01*
X197632750Y-90127000D01*
X196677000Y-90127000D01*
X196423000Y-90127000D01*
X196403000Y-90127000D01*
X196403000Y-89873000D01*
X196423000Y-89873000D01*
X196423000Y-88917250D01*
X196677000Y-88917250D01*
X196677000Y-89873000D01*
X197632750Y-89873000D01*
X197727000Y-89778750D01*
X197727000Y-89423191D01*
X203392805Y-89423191D01*
X203564019Y-89837560D01*
X203880772Y-90154867D01*
X204294842Y-90326804D01*
X204743191Y-90327195D01*
X205157560Y-90155981D01*
X205474867Y-89839228D01*
X205646804Y-89425158D01*
X205646805Y-89423191D01*
X208272805Y-89423191D01*
X208444019Y-89837560D01*
X208760772Y-90154867D01*
X209174842Y-90326804D01*
X209623191Y-90327195D01*
X210037560Y-90155981D01*
X210354867Y-89839228D01*
X210526804Y-89425158D01*
X210527195Y-88976809D01*
X210355981Y-88562440D01*
X210039228Y-88245133D01*
X209625158Y-88073196D01*
X209176809Y-88072805D01*
X208762440Y-88244019D01*
X208445133Y-88560772D01*
X208273196Y-88974842D01*
X208272805Y-89423191D01*
X205646805Y-89423191D01*
X205647195Y-88976809D01*
X205475981Y-88562440D01*
X205159228Y-88245133D01*
X204745158Y-88073196D01*
X204296809Y-88072805D01*
X203882440Y-88244019D01*
X203565133Y-88560772D01*
X203393196Y-88974842D01*
X203392805Y-89423191D01*
X197727000Y-89423191D01*
X197727000Y-89125010D01*
X197669605Y-88986447D01*
X197563553Y-88880395D01*
X197424990Y-88823000D01*
X196771250Y-88823000D01*
X196677000Y-88917250D01*
X196423000Y-88917250D01*
X196328750Y-88823000D01*
X195675010Y-88823000D01*
X195536447Y-88880395D01*
X195430395Y-88986447D01*
X195403054Y-89052454D01*
X195325530Y-88931980D01*
X195199547Y-88845899D01*
X195050000Y-88815615D01*
X193450000Y-88815615D01*
X193310292Y-88841903D01*
X193181980Y-88924470D01*
X193095899Y-89050453D01*
X193065615Y-89200000D01*
X193065615Y-89498000D01*
X192807935Y-89498000D01*
X191954968Y-88645032D01*
X191954965Y-88645030D01*
X191454968Y-88145032D01*
X191454965Y-88145030D01*
X191194968Y-87885032D01*
X191032107Y-87776212D01*
X190840000Y-87737999D01*
X190839995Y-87738000D01*
X190227981Y-87738000D01*
X190070291Y-87502000D01*
X192150950Y-87502000D01*
X192225733Y-87682989D01*
X192416010Y-87873598D01*
X192664746Y-87976882D01*
X192934073Y-87977117D01*
X193182989Y-87874267D01*
X193373598Y-87683990D01*
X193476882Y-87435254D01*
X193477117Y-87165927D01*
X193374267Y-86917011D01*
X193183990Y-86726402D01*
X192935254Y-86623118D01*
X192822023Y-86623019D01*
X192692107Y-86536212D01*
X192500000Y-86497999D01*
X192499995Y-86498000D01*
X190334385Y-86498000D01*
X190334385Y-84850000D01*
X190308097Y-84710292D01*
X190225530Y-84581980D01*
X190099547Y-84495899D01*
X189950000Y-84465615D01*
X188250000Y-84465615D01*
X188110292Y-84491903D01*
X187981980Y-84574470D01*
X187895899Y-84700453D01*
X187865615Y-84850000D01*
X187865615Y-86550000D01*
X187868032Y-86562846D01*
X187745032Y-86645032D01*
X187745030Y-86645035D01*
X187196291Y-87193773D01*
X187029553Y-87082362D01*
X186560000Y-86988962D01*
X186090447Y-87082362D01*
X185797628Y-87278018D01*
X185763788Y-87107893D01*
X185763788Y-87107892D01*
X185691696Y-87000000D01*
X185654968Y-86945032D01*
X185654965Y-86945030D01*
X185053435Y-86343499D01*
X185153600Y-86193591D01*
X185247000Y-85724038D01*
X185247000Y-85675962D01*
X185333000Y-85675962D01*
X185333000Y-85724038D01*
X185426400Y-86193591D01*
X185692380Y-86591658D01*
X186090447Y-86857638D01*
X186560000Y-86951038D01*
X187029553Y-86857638D01*
X187427620Y-86591658D01*
X187693600Y-86193591D01*
X187787000Y-85724038D01*
X187787000Y-85675962D01*
X187693600Y-85206409D01*
X187427620Y-84808342D01*
X187029553Y-84542362D01*
X186560000Y-84448962D01*
X186090447Y-84542362D01*
X185692380Y-84808342D01*
X185426400Y-85206409D01*
X185333000Y-85675962D01*
X185247000Y-85675962D01*
X185153600Y-85206409D01*
X184887620Y-84808342D01*
X184489553Y-84542362D01*
X184020000Y-84448962D01*
X183550447Y-84542362D01*
X183152380Y-84808342D01*
X182886400Y-85206409D01*
X182793000Y-85675962D01*
X182793000Y-85724038D01*
X182886400Y-86193591D01*
X183152380Y-86591658D01*
X183550447Y-86857638D01*
X184020000Y-86951038D01*
X184204419Y-86914355D01*
X184350341Y-87060276D01*
X184336351Y-87054482D01*
X184147000Y-87114392D01*
X184147000Y-88113000D01*
X184167000Y-88113000D01*
X184167000Y-88367000D01*
X184147000Y-88367000D01*
X184147000Y-89365608D01*
X184336351Y-89425518D01*
X184341233Y-89423496D01*
X184315615Y-89550000D01*
X184315615Y-91250000D01*
X184341903Y-91389708D01*
X184424470Y-91518020D01*
X184550453Y-91604101D01*
X184700000Y-91634385D01*
X184898000Y-91634385D01*
X184898000Y-91899995D01*
X184897999Y-91900000D01*
X184936212Y-92092107D01*
X185045032Y-92254968D01*
X185722971Y-92932907D01*
X185722883Y-93034073D01*
X185825733Y-93282989D01*
X186016010Y-93473598D01*
X186264746Y-93576882D01*
X186313140Y-93576924D01*
X184445032Y-95445032D01*
X184445030Y-95445035D01*
X183442064Y-96448000D01*
X182498445Y-96448000D01*
X182630465Y-96250418D01*
X182720059Y-95800000D01*
X182630465Y-95349582D01*
X182375324Y-94967735D01*
X181993477Y-94712594D01*
X181543059Y-94623000D01*
X181496941Y-94623000D01*
X181046523Y-94712594D01*
X180664676Y-94967735D01*
X180409535Y-95349582D01*
X180319941Y-95800000D01*
X180409535Y-96250418D01*
X180595115Y-96528159D01*
X180495032Y-96595032D01*
X180282000Y-96808064D01*
X180282000Y-96772998D01*
X180187752Y-96772998D01*
X180282000Y-96678750D01*
X180282000Y-96050010D01*
X180224605Y-95911447D01*
X180118553Y-95805395D01*
X179979990Y-95748000D01*
X179826250Y-95748000D01*
X179732000Y-95842250D01*
X179732000Y-96773000D01*
X179752000Y-96773000D01*
X179752000Y-97027000D01*
X179732000Y-97027000D01*
X179732000Y-97957750D01*
X179732157Y-97957907D01*
X178592064Y-99098000D01*
X177600000Y-99098000D01*
X177407893Y-99136212D01*
X177245032Y-99245032D01*
X177245030Y-99245035D01*
X175440032Y-101050032D01*
X175362898Y-101165472D01*
X175355292Y-101166903D01*
X175226980Y-101249470D01*
X175140899Y-101375453D01*
X175110615Y-101525000D01*
X174880449Y-101525000D01*
X175010465Y-101330418D01*
X175042980Y-101166956D01*
X177507935Y-98702000D01*
X177899995Y-98702000D01*
X177900000Y-98702001D01*
X178092107Y-98663788D01*
X178254968Y-98554968D01*
X178689968Y-98119968D01*
X178744174Y-98038842D01*
X178774708Y-98033097D01*
X178903020Y-97950530D01*
X178970288Y-97852081D01*
X178985395Y-97888553D01*
X179091447Y-97994605D01*
X179230010Y-98052000D01*
X179383750Y-98052000D01*
X179478000Y-97957750D01*
X179478000Y-97027000D01*
X179458000Y-97027000D01*
X179458000Y-96773000D01*
X179478000Y-96773000D01*
X179478000Y-95842250D01*
X179383750Y-95748000D01*
X179230010Y-95748000D01*
X179091447Y-95805395D01*
X178985395Y-95911447D01*
X178969802Y-95949091D01*
X178910530Y-95856980D01*
X178837000Y-95806739D01*
X178837000Y-95420524D01*
X178873598Y-95383990D01*
X178976882Y-95135254D01*
X178977117Y-94865927D01*
X178874267Y-94617011D01*
X178683990Y-94426402D01*
X178435254Y-94323118D01*
X178165927Y-94322883D01*
X177917011Y-94425733D01*
X177726402Y-94616010D01*
X177623118Y-94864746D01*
X177622883Y-95134073D01*
X177725733Y-95382989D01*
X177833000Y-95490443D01*
X177833000Y-95806987D01*
X177766980Y-95849470D01*
X177699370Y-95948420D01*
X177640530Y-95856980D01*
X177514547Y-95770899D01*
X177365000Y-95740615D01*
X176765000Y-95740615D01*
X176625292Y-95766903D01*
X176496980Y-95849470D01*
X176429712Y-95947919D01*
X176414605Y-95911447D01*
X176308553Y-95805395D01*
X176169990Y-95748000D01*
X176016250Y-95748000D01*
X175922000Y-95842250D01*
X175922000Y-96773000D01*
X175942000Y-96773000D01*
X175942000Y-97027000D01*
X175922000Y-97027000D01*
X175922000Y-97047000D01*
X175668000Y-97047000D01*
X175668000Y-97027000D01*
X175212250Y-97027000D01*
X175118000Y-97121250D01*
X175118000Y-97749990D01*
X175154455Y-97838000D01*
X174975999Y-97838000D01*
X174755324Y-97507735D01*
X174373477Y-97252594D01*
X173923059Y-97163000D01*
X173876941Y-97163000D01*
X173426523Y-97252594D01*
X173044676Y-97507735D01*
X172789535Y-97889582D01*
X172699941Y-98340000D01*
X168402000Y-98340000D01*
X168402000Y-96021250D01*
X172723000Y-96021250D01*
X172723000Y-96674990D01*
X172780395Y-96813553D01*
X172886447Y-96919605D01*
X173025010Y-96977000D01*
X173678750Y-96977000D01*
X173773000Y-96882750D01*
X173773000Y-95927000D01*
X174027000Y-95927000D01*
X174027000Y-96882750D01*
X174121250Y-96977000D01*
X174774990Y-96977000D01*
X174913553Y-96919605D01*
X175019605Y-96813553D01*
X175077000Y-96674990D01*
X175077000Y-96050010D01*
X175118000Y-96050010D01*
X175118000Y-96678750D01*
X175212250Y-96773000D01*
X175668000Y-96773000D01*
X175668000Y-95842250D01*
X175573750Y-95748000D01*
X175420010Y-95748000D01*
X175281447Y-95805395D01*
X175175395Y-95911447D01*
X175118000Y-96050010D01*
X175077000Y-96050010D01*
X175077000Y-96021250D01*
X174982750Y-95927000D01*
X174027000Y-95927000D01*
X173773000Y-95927000D01*
X172817250Y-95927000D01*
X172723000Y-96021250D01*
X168402000Y-96021250D01*
X168402000Y-94925010D01*
X172723000Y-94925010D01*
X172723000Y-95578750D01*
X172817250Y-95673000D01*
X173773000Y-95673000D01*
X173773000Y-94717250D01*
X174027000Y-94717250D01*
X174027000Y-95673000D01*
X174982750Y-95673000D01*
X175077000Y-95578750D01*
X175077000Y-94925010D01*
X175019605Y-94786447D01*
X174913553Y-94680395D01*
X174774990Y-94623000D01*
X174121250Y-94623000D01*
X174027000Y-94717250D01*
X173773000Y-94717250D01*
X173678750Y-94623000D01*
X173025010Y-94623000D01*
X172886447Y-94680395D01*
X172780395Y-94786447D01*
X172723000Y-94925010D01*
X168402000Y-94925010D01*
X168402000Y-91213289D01*
X172922813Y-91213289D01*
X173086431Y-91609275D01*
X173389132Y-91912504D01*
X173784832Y-92076813D01*
X174213289Y-92077187D01*
X174609275Y-91913569D01*
X174912504Y-91610868D01*
X175076813Y-91215168D01*
X175077000Y-91000000D01*
X180521900Y-91000000D01*
X180603882Y-91412150D01*
X180837346Y-91761554D01*
X181186750Y-91995018D01*
X181598900Y-92077000D01*
X181641100Y-92077000D01*
X182053250Y-91995018D01*
X182402654Y-91761554D01*
X182636118Y-91412150D01*
X182718100Y-91000000D01*
X182636118Y-90587850D01*
X182402654Y-90238446D01*
X182053250Y-90004982D01*
X181641100Y-89923000D01*
X181598900Y-89923000D01*
X181186750Y-90004982D01*
X180837346Y-90238446D01*
X180603882Y-90587850D01*
X180521900Y-91000000D01*
X175077000Y-91000000D01*
X175077187Y-90786711D01*
X174913569Y-90390725D01*
X174610868Y-90087496D01*
X174215168Y-89923187D01*
X173786711Y-89922813D01*
X173390725Y-90086431D01*
X173087496Y-90389132D01*
X172923187Y-90784832D01*
X172922813Y-91213289D01*
X168402000Y-91213289D01*
X168402000Y-88600000D01*
X168393318Y-88556352D01*
X182834472Y-88556352D01*
X183045778Y-88985953D01*
X183405400Y-89301989D01*
X183703649Y-89425518D01*
X183893000Y-89365608D01*
X183893000Y-88367000D01*
X182893829Y-88367000D01*
X182834472Y-88556352D01*
X168393318Y-88556352D01*
X168381711Y-88497999D01*
X168363788Y-88407892D01*
X168254968Y-88245032D01*
X167933584Y-87923648D01*
X182834472Y-87923648D01*
X182893829Y-88113000D01*
X183893000Y-88113000D01*
X183893000Y-87114392D01*
X183703649Y-87054482D01*
X183405400Y-87178011D01*
X183045778Y-87494047D01*
X182834472Y-87923648D01*
X167933584Y-87923648D01*
X166977000Y-86967064D01*
X166977000Y-86220084D01*
X166887406Y-85769666D01*
X166632265Y-85387819D01*
X166250418Y-85132678D01*
X165800000Y-85043084D01*
X165349582Y-85132678D01*
X164967735Y-85387819D01*
X164712594Y-85769666D01*
X164623000Y-86220084D01*
X164437000Y-86220084D01*
X164347406Y-85769666D01*
X164092265Y-85387819D01*
X163710418Y-85132678D01*
X163260000Y-85043084D01*
X162809582Y-85132678D01*
X162427735Y-85387819D01*
X162172594Y-85769666D01*
X162083000Y-86220084D01*
X161897000Y-86220084D01*
X161897000Y-86123000D01*
X161758805Y-85682249D01*
X161462462Y-85327933D01*
X161028485Y-85114145D01*
X160847000Y-85174724D01*
X160593000Y-85174724D01*
X160411515Y-85114145D01*
X159977538Y-85327933D01*
X159681195Y-85682249D01*
X159543000Y-86123000D01*
X159337689Y-86123000D01*
X159267406Y-85769666D01*
X159012265Y-85387819D01*
X158630418Y-85132678D01*
X158180000Y-85043084D01*
X157729582Y-85132678D01*
X157347735Y-85387819D01*
X157092594Y-85769666D01*
X157003000Y-86220084D01*
X156817000Y-86220084D01*
X156727406Y-85769666D01*
X156472265Y-85387819D01*
X156090418Y-85132678D01*
X155640000Y-85043084D01*
X155189582Y-85132678D01*
X154807735Y-85387819D01*
X154552594Y-85769666D01*
X154463000Y-86220084D01*
X152819140Y-86220084D01*
X155087224Y-83952000D01*
X210312776Y-83952000D01*
X217048000Y-90687224D01*
X217048000Y-90687224D01*
G37*
X217048000Y-90687224D02*
X217048000Y-103812776D01*
X213112776Y-107748000D01*
X207454414Y-107748000D01*
X207484385Y-107600000D01*
X207484385Y-105800000D01*
X207458097Y-105660292D01*
X207375530Y-105531980D01*
X207249547Y-105445899D01*
X207100000Y-105415615D01*
X206505187Y-105415615D01*
X206922417Y-105243219D01*
X207281957Y-104884307D01*
X207476778Y-104415125D01*
X207477221Y-103907103D01*
X207283219Y-103437583D01*
X206924307Y-103078043D01*
X206455125Y-102883222D01*
X205947103Y-102882779D01*
X205477583Y-103076781D01*
X205118043Y-103435693D01*
X205025733Y-103658000D01*
X202367935Y-103658000D01*
X199073715Y-100363779D01*
X212072857Y-100363779D01*
X212198495Y-100667846D01*
X212430930Y-100900688D01*
X212734778Y-101026856D01*
X213063779Y-101027143D01*
X213367846Y-100901505D01*
X213600688Y-100669070D01*
X213726856Y-100365222D01*
X213727143Y-100036221D01*
X213601505Y-99732154D01*
X213369070Y-99499312D01*
X213065222Y-99373144D01*
X212736221Y-99372857D01*
X212432154Y-99498495D01*
X212199312Y-99730930D01*
X212073144Y-100034778D01*
X212072857Y-100363779D01*
X199073715Y-100363779D01*
X198377029Y-99667093D01*
X198377117Y-99565927D01*
X198274267Y-99317011D01*
X198083990Y-99126402D01*
X197835254Y-99023118D01*
X197565927Y-99022883D01*
X197317011Y-99125733D01*
X197126402Y-99316010D01*
X197023118Y-99564746D01*
X197022883Y-99834073D01*
X197125733Y-100082989D01*
X197316010Y-100273598D01*
X197564746Y-100376882D01*
X197667035Y-100376971D01*
X201805030Y-104514965D01*
X201805032Y-104514968D01*
X201967893Y-104623788D01*
X202160000Y-104662000D01*
X205025706Y-104662000D01*
X205116781Y-104882417D01*
X205475693Y-105241957D01*
X205893909Y-105415615D01*
X205300000Y-105415615D01*
X205160292Y-105441903D01*
X205031980Y-105524470D01*
X204945899Y-105650453D01*
X204915615Y-105800000D01*
X204915615Y-107600000D01*
X204941903Y-107739708D01*
X204947239Y-107748000D01*
X155387224Y-107748000D01*
X150952000Y-103312776D01*
X150952000Y-100856351D01*
X151814482Y-100856351D01*
X151938011Y-101154600D01*
X152254047Y-101514222D01*
X152683648Y-101725528D01*
X152873000Y-101666171D01*
X152873000Y-100667000D01*
X153127000Y-100667000D01*
X153127000Y-101666171D01*
X153316352Y-101725528D01*
X153745953Y-101514222D01*
X154061989Y-101154600D01*
X154185518Y-100856351D01*
X154125608Y-100667000D01*
X153127000Y-100667000D01*
X152873000Y-100667000D01*
X151874392Y-100667000D01*
X151814482Y-100856351D01*
X150952000Y-100856351D01*
X150952000Y-100223649D01*
X151814482Y-100223649D01*
X151874392Y-100413000D01*
X152873000Y-100413000D01*
X152873000Y-99413829D01*
X153127000Y-99413829D01*
X153127000Y-100413000D01*
X154125608Y-100413000D01*
X154185518Y-100223649D01*
X154061989Y-99925400D01*
X153745953Y-99565778D01*
X153316352Y-99354472D01*
X153127000Y-99413829D01*
X152873000Y-99413829D01*
X152683648Y-99354472D01*
X152254047Y-99565778D01*
X151938011Y-99925400D01*
X151814482Y-100223649D01*
X150952000Y-100223649D01*
X150952000Y-97150000D01*
X151765615Y-97150000D01*
X151765615Y-98850000D01*
X151791903Y-98989708D01*
X151874470Y-99118020D01*
X152000453Y-99204101D01*
X152150000Y-99234385D01*
X153850000Y-99234385D01*
X153989708Y-99208097D01*
X154118020Y-99125530D01*
X154204101Y-98999547D01*
X154234385Y-98850000D01*
X154234385Y-97542995D01*
X155572788Y-97542995D01*
X155759194Y-97994131D01*
X156104053Y-98339593D01*
X156554864Y-98526786D01*
X157042995Y-98527212D01*
X157494131Y-98340806D01*
X157839593Y-97995947D01*
X158026786Y-97545136D01*
X158026787Y-97542995D01*
X163572788Y-97542995D01*
X163759194Y-97994131D01*
X164104053Y-98339593D01*
X164554864Y-98526786D01*
X165042995Y-98527212D01*
X165494131Y-98340806D01*
X165839593Y-97995947D01*
X166026786Y-97545136D01*
X166027212Y-97057005D01*
X165840806Y-96605869D01*
X165495947Y-96260407D01*
X165045136Y-96073214D01*
X164557005Y-96072788D01*
X164105869Y-96259194D01*
X163760407Y-96604053D01*
X163573214Y-97054864D01*
X163572788Y-97542995D01*
X158026787Y-97542995D01*
X158027212Y-97057005D01*
X157840806Y-96605869D01*
X157495947Y-96260407D01*
X157045136Y-96073214D01*
X156557005Y-96072788D01*
X156105869Y-96259194D01*
X155760407Y-96604053D01*
X155573214Y-97054864D01*
X155572788Y-97542995D01*
X154234385Y-97542995D01*
X154234385Y-97150000D01*
X154208097Y-97010292D01*
X154125530Y-96881980D01*
X153999547Y-96795899D01*
X153850000Y-96765615D01*
X152150000Y-96765615D01*
X152010292Y-96791903D01*
X151881980Y-96874470D01*
X151795899Y-97000453D01*
X151765615Y-97150000D01*
X150952000Y-97150000D01*
X150952000Y-93840084D01*
X154463000Y-93840084D01*
X154463000Y-94599916D01*
X154552594Y-95050334D01*
X154807735Y-95432181D01*
X155189582Y-95687322D01*
X155640000Y-95776916D01*
X156090418Y-95687322D01*
X156472265Y-95432181D01*
X156727406Y-95050334D01*
X156817000Y-94599916D01*
X156817000Y-93840084D01*
X157003000Y-93840084D01*
X157003000Y-94599916D01*
X157092594Y-95050334D01*
X157347735Y-95432181D01*
X157729582Y-95687322D01*
X158180000Y-95776916D01*
X158630418Y-95687322D01*
X159012265Y-95432181D01*
X159267406Y-95050334D01*
X159357000Y-94599916D01*
X159357000Y-93840084D01*
X159543000Y-93840084D01*
X159543000Y-94599916D01*
X159632594Y-95050334D01*
X159887735Y-95432181D01*
X160269582Y-95687322D01*
X160720000Y-95776916D01*
X161170418Y-95687322D01*
X161552265Y-95432181D01*
X161807406Y-95050334D01*
X161897000Y-94599916D01*
X161897000Y-93840084D01*
X162083000Y-93840084D01*
X162083000Y-94599916D01*
X162172594Y-95050334D01*
X162427735Y-95432181D01*
X162809582Y-95687322D01*
X163260000Y-95776916D01*
X163710418Y-95687322D01*
X164092265Y-95432181D01*
X164347406Y-95050334D01*
X164437000Y-94599916D01*
X164437000Y-93840084D01*
X164623000Y-93840084D01*
X164623000Y-94599916D01*
X164712594Y-95050334D01*
X164967735Y-95432181D01*
X165349582Y-95687322D01*
X165800000Y-95776916D01*
X166250418Y-95687322D01*
X166632265Y-95432181D01*
X166887406Y-95050334D01*
X166977000Y-94599916D01*
X166977000Y-93840084D01*
X166887406Y-93389666D01*
X166632265Y-93007819D01*
X166250418Y-92752678D01*
X165800000Y-92663084D01*
X165349582Y-92752678D01*
X164967735Y-93007819D01*
X164712594Y-93389666D01*
X164623000Y-93840084D01*
X164437000Y-93840084D01*
X164347406Y-93389666D01*
X164092265Y-93007819D01*
X163710418Y-92752678D01*
X163260000Y-92663084D01*
X162809582Y-92752678D01*
X162427735Y-93007819D01*
X162172594Y-93389666D01*
X162083000Y-93840084D01*
X161897000Y-93840084D01*
X161807406Y-93389666D01*
X161552265Y-93007819D01*
X161170418Y-92752678D01*
X160720000Y-92663084D01*
X160269582Y-92752678D01*
X159887735Y-93007819D01*
X159632594Y-93389666D01*
X159543000Y-93840084D01*
X159357000Y-93840084D01*
X159267406Y-93389666D01*
X159012265Y-93007819D01*
X158630418Y-92752678D01*
X158180000Y-92663084D01*
X157729582Y-92752678D01*
X157347735Y-93007819D01*
X157092594Y-93389666D01*
X157003000Y-93840084D01*
X156817000Y-93840084D01*
X156727406Y-93389666D01*
X156472265Y-93007819D01*
X156090418Y-92752678D01*
X155640000Y-92663084D01*
X155189582Y-92752678D01*
X154807735Y-93007819D01*
X154552594Y-93389666D01*
X154463000Y-93840084D01*
X150952000Y-93840084D01*
X150952000Y-88087224D01*
X152819140Y-86220084D01*
X154463000Y-86220084D01*
X154463000Y-86979916D01*
X154552594Y-87430334D01*
X154807735Y-87812181D01*
X155189582Y-88067322D01*
X155640000Y-88156916D01*
X156090418Y-88067322D01*
X156472265Y-87812181D01*
X156727406Y-87430334D01*
X156817000Y-86979916D01*
X156817000Y-86220084D01*
X157003000Y-86220084D01*
X157003000Y-86979916D01*
X157092594Y-87430334D01*
X157347735Y-87812181D01*
X157729582Y-88067322D01*
X158180000Y-88156916D01*
X158630418Y-88067322D01*
X159012265Y-87812181D01*
X159267406Y-87430334D01*
X159357000Y-86979916D01*
X159357000Y-86727000D01*
X159543000Y-86727000D01*
X159543000Y-87077000D01*
X159681195Y-87517751D01*
X159977538Y-87872067D01*
X160411515Y-88085855D01*
X160593000Y-88025276D01*
X160593000Y-86727000D01*
X160847000Y-86727000D01*
X160847000Y-88025276D01*
X161028485Y-88085855D01*
X161462462Y-87872067D01*
X161758805Y-87517751D01*
X161897000Y-87077000D01*
X161897000Y-86727000D01*
X160847000Y-86727000D01*
X160593000Y-86727000D01*
X159543000Y-86727000D01*
X159357000Y-86727000D01*
X159357000Y-86220084D01*
X159337689Y-86123000D01*
X159543000Y-86123000D01*
X159543000Y-86473000D01*
X160593000Y-86473000D01*
X160593000Y-85174724D01*
X160847000Y-85174724D01*
X160847000Y-86473000D01*
X161897000Y-86473000D01*
X161897000Y-86220084D01*
X162083000Y-86220084D01*
X162083000Y-86979916D01*
X162172594Y-87430334D01*
X162427735Y-87812181D01*
X162809582Y-88067322D01*
X163260000Y-88156916D01*
X163710418Y-88067322D01*
X164092265Y-87812181D01*
X164347406Y-87430334D01*
X164437000Y-86979916D01*
X164437000Y-86220084D01*
X164623000Y-86220084D01*
X164623000Y-86979916D01*
X164712594Y-87430334D01*
X164967735Y-87812181D01*
X165349582Y-88067322D01*
X165800000Y-88156916D01*
X166250418Y-88067322D01*
X166494378Y-87904314D01*
X167398000Y-88807936D01*
X167398000Y-101999995D01*
X167397999Y-102000000D01*
X167436212Y-102192107D01*
X167545032Y-102354968D01*
X172445030Y-107254965D01*
X172445032Y-107254968D01*
X172607893Y-107363788D01*
X172800000Y-107402000D01*
X192399995Y-107402000D01*
X192400000Y-107402001D01*
X192592107Y-107363788D01*
X192754968Y-107254968D01*
X193132907Y-106877029D01*
X193234073Y-106877117D01*
X193482989Y-106774267D01*
X193673598Y-106583990D01*
X193776882Y-106335254D01*
X193777117Y-106065927D01*
X193674267Y-105817011D01*
X193483990Y-105626402D01*
X193235254Y-105523118D01*
X192965927Y-105522883D01*
X192717011Y-105625733D01*
X192526402Y-105816010D01*
X192423118Y-106064746D01*
X192423029Y-106167036D01*
X192192064Y-106398000D01*
X173007935Y-106398000D01*
X170338421Y-103728485D01*
X172764145Y-103728485D01*
X172878688Y-104005045D01*
X173180318Y-104351350D01*
X173591513Y-104555866D01*
X173773000Y-104495890D01*
X173773000Y-103547000D01*
X174027000Y-103547000D01*
X174027000Y-104495890D01*
X174208487Y-104555866D01*
X174619682Y-104351350D01*
X174921312Y-104005045D01*
X175035855Y-103728485D01*
X174975276Y-103547000D01*
X174027000Y-103547000D01*
X173773000Y-103547000D01*
X172824724Y-103547000D01*
X172764145Y-103728485D01*
X170338421Y-103728485D01*
X169721451Y-103111515D01*
X172764145Y-103111515D01*
X172824724Y-103293000D01*
X173773000Y-103293000D01*
X173773000Y-102344110D01*
X174027000Y-102344110D01*
X174027000Y-103293000D01*
X174975276Y-103293000D01*
X175035855Y-103111515D01*
X174921312Y-102834955D01*
X174619682Y-102488650D01*
X174208487Y-102284134D01*
X174027000Y-102344110D01*
X173773000Y-102344110D01*
X173591513Y-102284134D01*
X173180318Y-102488650D01*
X172878688Y-102834955D01*
X172764145Y-103111515D01*
X169721451Y-103111515D01*
X168402000Y-101792064D01*
X168402000Y-98340000D01*
X172699941Y-98340000D01*
X172789535Y-98790418D01*
X173044676Y-99172265D01*
X173426523Y-99427406D01*
X173876941Y-99517000D01*
X173923059Y-99517000D01*
X174373477Y-99427406D01*
X174755324Y-99172265D01*
X174975999Y-98842000D01*
X175948065Y-98842000D01*
X174747534Y-100042530D01*
X174373477Y-99792594D01*
X173923059Y-99703000D01*
X173876941Y-99703000D01*
X173426523Y-99792594D01*
X173044676Y-100047735D01*
X172789535Y-100429582D01*
X172699941Y-100880000D01*
X172789535Y-101330418D01*
X173044676Y-101712265D01*
X173426523Y-101967406D01*
X173876941Y-102057000D01*
X173923059Y-102057000D01*
X174373477Y-101967406D01*
X174755324Y-101712265D01*
X174880449Y-101525000D01*
X175110615Y-101525000D01*
X175110615Y-103075000D01*
X175136903Y-103214708D01*
X175219470Y-103343020D01*
X175293000Y-103393261D01*
X175293000Y-103849528D01*
X175226402Y-103916010D01*
X175123118Y-104164746D01*
X175122883Y-104434073D01*
X175225733Y-104682989D01*
X175416010Y-104873598D01*
X175664746Y-104976882D01*
X175934073Y-104977117D01*
X176182989Y-104874267D01*
X176373598Y-104683990D01*
X176476882Y-104435254D01*
X176477117Y-104165927D01*
X176374267Y-103917011D01*
X176297000Y-103839609D01*
X176297000Y-103393013D01*
X176363020Y-103350530D01*
X176430630Y-103251580D01*
X176489470Y-103343020D01*
X176615453Y-103429101D01*
X176765000Y-103459385D01*
X177365000Y-103459385D01*
X177504708Y-103433097D01*
X177633020Y-103350530D01*
X177700630Y-103251580D01*
X177759470Y-103343020D01*
X177885453Y-103429101D01*
X178035000Y-103459385D01*
X178635000Y-103459385D01*
X178774708Y-103433097D01*
X178903020Y-103350530D01*
X178970630Y-103251580D01*
X179029470Y-103343020D01*
X179155453Y-103429101D01*
X179305000Y-103459385D01*
X179905000Y-103459385D01*
X180044708Y-103433097D01*
X180173020Y-103350530D01*
X180259101Y-103224547D01*
X180289385Y-103075000D01*
X180289385Y-102899321D01*
X180401258Y-103011194D01*
X180319941Y-103420000D01*
X180409535Y-103870418D01*
X180664676Y-104252265D01*
X181046523Y-104507406D01*
X181496941Y-104597000D01*
X181543059Y-104597000D01*
X181993477Y-104507406D01*
X182375324Y-104252265D01*
X182630465Y-103870418D01*
X182720059Y-103420000D01*
X182630465Y-102969582D01*
X182375324Y-102587735D01*
X181993477Y-102332594D01*
X181543059Y-102243000D01*
X181496941Y-102243000D01*
X181126601Y-102316665D01*
X180802000Y-101992064D01*
X180802000Y-101804022D01*
X181046523Y-101967406D01*
X181496941Y-102057000D01*
X181543059Y-102057000D01*
X181993477Y-101967406D01*
X182375324Y-101712265D01*
X182630465Y-101330418D01*
X182720059Y-100880000D01*
X182630465Y-100429582D01*
X182375324Y-100047735D01*
X181993477Y-99792594D01*
X181543059Y-99703000D01*
X181496941Y-99703000D01*
X181046523Y-99792594D01*
X180664676Y-100047735D01*
X180444001Y-100378000D01*
X179731936Y-100378000D01*
X180828325Y-99281611D01*
X181046523Y-99427406D01*
X181496941Y-99517000D01*
X181543059Y-99517000D01*
X181993477Y-99427406D01*
X182375324Y-99172265D01*
X182630465Y-98790418D01*
X182720059Y-98340000D01*
X182630465Y-97889582D01*
X182375324Y-97507735D01*
X182291910Y-97452000D01*
X183649995Y-97452000D01*
X183650000Y-97452001D01*
X183842107Y-97413788D01*
X184004968Y-97304968D01*
X185154965Y-96154970D01*
X185154968Y-96154968D01*
X185667612Y-95642324D01*
X185725733Y-95782989D01*
X185916010Y-95973598D01*
X186164746Y-96076882D01*
X186434073Y-96077117D01*
X186682989Y-95974267D01*
X186755382Y-95902000D01*
X192244537Y-95902000D01*
X192316010Y-95973598D01*
X192564746Y-96076882D01*
X192834073Y-96077117D01*
X193082989Y-95974267D01*
X193273598Y-95783990D01*
X193376882Y-95535254D01*
X193377117Y-95265927D01*
X193274267Y-95017011D01*
X193083990Y-94826402D01*
X192835254Y-94723118D01*
X192565927Y-94722883D01*
X192317011Y-94825733D01*
X192244618Y-94898000D01*
X186755463Y-94898000D01*
X186683990Y-94826402D01*
X186542349Y-94767587D01*
X187022924Y-94287012D01*
X187022883Y-94334073D01*
X187125733Y-94582989D01*
X187316010Y-94773598D01*
X187564746Y-94876882D01*
X187834073Y-94877117D01*
X188082989Y-94774267D01*
X188155382Y-94702000D01*
X193192064Y-94702000D01*
X194722971Y-96232907D01*
X194722883Y-96334073D01*
X194825733Y-96582989D01*
X195016010Y-96773598D01*
X195264746Y-96876882D01*
X195534073Y-96877117D01*
X195782989Y-96774267D01*
X195823253Y-96734073D01*
X207622883Y-96734073D01*
X207725733Y-96982989D01*
X207798000Y-97055382D01*
X207798000Y-98344537D01*
X207726402Y-98416010D01*
X207623118Y-98664746D01*
X207622883Y-98934073D01*
X207725733Y-99182989D01*
X207916010Y-99373598D01*
X208164746Y-99476882D01*
X208434073Y-99477117D01*
X208682989Y-99374267D01*
X208873598Y-99183990D01*
X208976882Y-98935254D01*
X208977117Y-98665927D01*
X208874267Y-98417011D01*
X208802000Y-98344618D01*
X208802000Y-97055463D01*
X208873598Y-96983990D01*
X208976882Y-96735254D01*
X208977117Y-96465927D01*
X208874267Y-96217011D01*
X208683990Y-96026402D01*
X208533177Y-95963779D01*
X212072857Y-95963779D01*
X212198495Y-96267846D01*
X212430930Y-96500688D01*
X212734778Y-96626856D01*
X213063779Y-96627143D01*
X213367846Y-96501505D01*
X213600688Y-96269070D01*
X213726856Y-95965222D01*
X213727143Y-95636221D01*
X213601505Y-95332154D01*
X213369070Y-95099312D01*
X213065222Y-94973144D01*
X212736221Y-94972857D01*
X212432154Y-95098495D01*
X212199312Y-95330930D01*
X212073144Y-95634778D01*
X212072857Y-95963779D01*
X208533177Y-95963779D01*
X208435254Y-95923118D01*
X208165927Y-95922883D01*
X207917011Y-96025733D01*
X207726402Y-96216010D01*
X207623118Y-96464746D01*
X207622883Y-96734073D01*
X195823253Y-96734073D01*
X195973598Y-96583990D01*
X196076882Y-96335254D01*
X196077117Y-96065927D01*
X195974267Y-95817011D01*
X195783990Y-95626402D01*
X195535254Y-95523118D01*
X195432965Y-95523029D01*
X193754968Y-93845032D01*
X193592107Y-93736212D01*
X193400000Y-93697999D01*
X193399995Y-93698000D01*
X188155463Y-93698000D01*
X188083990Y-93626402D01*
X187835254Y-93523118D01*
X187786860Y-93523076D01*
X189354969Y-91954967D01*
X191600000Y-89709935D01*
X192098000Y-90207935D01*
X192098000Y-90244537D01*
X192026402Y-90316010D01*
X191923118Y-90564746D01*
X191922883Y-90834073D01*
X192025733Y-91082989D01*
X192216010Y-91273598D01*
X192464746Y-91376882D01*
X192734073Y-91377117D01*
X192982989Y-91274267D01*
X193173598Y-91083990D01*
X193178956Y-91071085D01*
X193300453Y-91154101D01*
X193450000Y-91184385D01*
X195050000Y-91184385D01*
X195189708Y-91158097D01*
X195318020Y-91075530D01*
X195403965Y-90949746D01*
X195430395Y-91013553D01*
X195536447Y-91119605D01*
X195675010Y-91177000D01*
X196328750Y-91177000D01*
X196423000Y-91082750D01*
X196423000Y-90127000D01*
X196677000Y-90127000D01*
X196677000Y-91082750D01*
X196771250Y-91177000D01*
X197424990Y-91177000D01*
X197563553Y-91119605D01*
X197669605Y-91013553D01*
X197727000Y-90874990D01*
X197727000Y-90221250D01*
X197632750Y-90127000D01*
X196677000Y-90127000D01*
X196423000Y-90127000D01*
X196403000Y-90127000D01*
X196403000Y-89873000D01*
X196423000Y-89873000D01*
X196423000Y-88917250D01*
X196677000Y-88917250D01*
X196677000Y-89873000D01*
X197632750Y-89873000D01*
X197727000Y-89778750D01*
X197727000Y-89423191D01*
X203392805Y-89423191D01*
X203564019Y-89837560D01*
X203880772Y-90154867D01*
X204294842Y-90326804D01*
X204743191Y-90327195D01*
X205157560Y-90155981D01*
X205474867Y-89839228D01*
X205646804Y-89425158D01*
X205646805Y-89423191D01*
X208272805Y-89423191D01*
X208444019Y-89837560D01*
X208760772Y-90154867D01*
X209174842Y-90326804D01*
X209623191Y-90327195D01*
X210037560Y-90155981D01*
X210354867Y-89839228D01*
X210526804Y-89425158D01*
X210527195Y-88976809D01*
X210355981Y-88562440D01*
X210039228Y-88245133D01*
X209625158Y-88073196D01*
X209176809Y-88072805D01*
X208762440Y-88244019D01*
X208445133Y-88560772D01*
X208273196Y-88974842D01*
X208272805Y-89423191D01*
X205646805Y-89423191D01*
X205647195Y-88976809D01*
X205475981Y-88562440D01*
X205159228Y-88245133D01*
X204745158Y-88073196D01*
X204296809Y-88072805D01*
X203882440Y-88244019D01*
X203565133Y-88560772D01*
X203393196Y-88974842D01*
X203392805Y-89423191D01*
X197727000Y-89423191D01*
X197727000Y-89125010D01*
X197669605Y-88986447D01*
X197563553Y-88880395D01*
X197424990Y-88823000D01*
X196771250Y-88823000D01*
X196677000Y-88917250D01*
X196423000Y-88917250D01*
X196328750Y-88823000D01*
X195675010Y-88823000D01*
X195536447Y-88880395D01*
X195430395Y-88986447D01*
X195403054Y-89052454D01*
X195325530Y-88931980D01*
X195199547Y-88845899D01*
X195050000Y-88815615D01*
X193450000Y-88815615D01*
X193310292Y-88841903D01*
X193181980Y-88924470D01*
X193095899Y-89050453D01*
X193065615Y-89200000D01*
X193065615Y-89498000D01*
X192807935Y-89498000D01*
X191954968Y-88645032D01*
X191954965Y-88645030D01*
X191454968Y-88145032D01*
X191454965Y-88145030D01*
X191194968Y-87885032D01*
X191032107Y-87776212D01*
X190840000Y-87737999D01*
X190839995Y-87738000D01*
X190227981Y-87738000D01*
X190070291Y-87502000D01*
X192150950Y-87502000D01*
X192225733Y-87682989D01*
X192416010Y-87873598D01*
X192664746Y-87976882D01*
X192934073Y-87977117D01*
X193182989Y-87874267D01*
X193373598Y-87683990D01*
X193476882Y-87435254D01*
X193477117Y-87165927D01*
X193374267Y-86917011D01*
X193183990Y-86726402D01*
X192935254Y-86623118D01*
X192822023Y-86623019D01*
X192692107Y-86536212D01*
X192500000Y-86497999D01*
X192499995Y-86498000D01*
X190334385Y-86498000D01*
X190334385Y-84850000D01*
X190308097Y-84710292D01*
X190225530Y-84581980D01*
X190099547Y-84495899D01*
X189950000Y-84465615D01*
X188250000Y-84465615D01*
X188110292Y-84491903D01*
X187981980Y-84574470D01*
X187895899Y-84700453D01*
X187865615Y-84850000D01*
X187865615Y-86550000D01*
X187868032Y-86562846D01*
X187745032Y-86645032D01*
X187745030Y-86645035D01*
X187196291Y-87193773D01*
X187029553Y-87082362D01*
X186560000Y-86988962D01*
X186090447Y-87082362D01*
X185797628Y-87278018D01*
X185763788Y-87107893D01*
X185763788Y-87107892D01*
X185691696Y-87000000D01*
X185654968Y-86945032D01*
X185654965Y-86945030D01*
X185053435Y-86343499D01*
X185153600Y-86193591D01*
X185247000Y-85724038D01*
X185247000Y-85675962D01*
X185333000Y-85675962D01*
X185333000Y-85724038D01*
X185426400Y-86193591D01*
X185692380Y-86591658D01*
X186090447Y-86857638D01*
X186560000Y-86951038D01*
X187029553Y-86857638D01*
X187427620Y-86591658D01*
X187693600Y-86193591D01*
X187787000Y-85724038D01*
X187787000Y-85675962D01*
X187693600Y-85206409D01*
X187427620Y-84808342D01*
X187029553Y-84542362D01*
X186560000Y-84448962D01*
X186090447Y-84542362D01*
X185692380Y-84808342D01*
X185426400Y-85206409D01*
X185333000Y-85675962D01*
X185247000Y-85675962D01*
X185153600Y-85206409D01*
X184887620Y-84808342D01*
X184489553Y-84542362D01*
X184020000Y-84448962D01*
X183550447Y-84542362D01*
X183152380Y-84808342D01*
X182886400Y-85206409D01*
X182793000Y-85675962D01*
X182793000Y-85724038D01*
X182886400Y-86193591D01*
X183152380Y-86591658D01*
X183550447Y-86857638D01*
X184020000Y-86951038D01*
X184204419Y-86914355D01*
X184350341Y-87060276D01*
X184336351Y-87054482D01*
X184147000Y-87114392D01*
X184147000Y-88113000D01*
X184167000Y-88113000D01*
X184167000Y-88367000D01*
X184147000Y-88367000D01*
X184147000Y-89365608D01*
X184336351Y-89425518D01*
X184341233Y-89423496D01*
X184315615Y-89550000D01*
X184315615Y-91250000D01*
X184341903Y-91389708D01*
X184424470Y-91518020D01*
X184550453Y-91604101D01*
X184700000Y-91634385D01*
X184898000Y-91634385D01*
X184898000Y-91899995D01*
X184897999Y-91900000D01*
X184936212Y-92092107D01*
X185045032Y-92254968D01*
X185722971Y-92932907D01*
X185722883Y-93034073D01*
X185825733Y-93282989D01*
X186016010Y-93473598D01*
X186264746Y-93576882D01*
X186313140Y-93576924D01*
X184445032Y-95445032D01*
X184445030Y-95445035D01*
X183442064Y-96448000D01*
X182498445Y-96448000D01*
X182630465Y-96250418D01*
X182720059Y-95800000D01*
X182630465Y-95349582D01*
X182375324Y-94967735D01*
X181993477Y-94712594D01*
X181543059Y-94623000D01*
X181496941Y-94623000D01*
X181046523Y-94712594D01*
X180664676Y-94967735D01*
X180409535Y-95349582D01*
X180319941Y-95800000D01*
X180409535Y-96250418D01*
X180595115Y-96528159D01*
X180495032Y-96595032D01*
X180282000Y-96808064D01*
X180282000Y-96772998D01*
X180187752Y-96772998D01*
X180282000Y-96678750D01*
X180282000Y-96050010D01*
X180224605Y-95911447D01*
X180118553Y-95805395D01*
X179979990Y-95748000D01*
X179826250Y-95748000D01*
X179732000Y-95842250D01*
X179732000Y-96773000D01*
X179752000Y-96773000D01*
X179752000Y-97027000D01*
X179732000Y-97027000D01*
X179732000Y-97957750D01*
X179732157Y-97957907D01*
X178592064Y-99098000D01*
X177600000Y-99098000D01*
X177407893Y-99136212D01*
X177245032Y-99245032D01*
X177245030Y-99245035D01*
X175440032Y-101050032D01*
X175362898Y-101165472D01*
X175355292Y-101166903D01*
X175226980Y-101249470D01*
X175140899Y-101375453D01*
X175110615Y-101525000D01*
X174880449Y-101525000D01*
X175010465Y-101330418D01*
X175042980Y-101166956D01*
X177507935Y-98702000D01*
X177899995Y-98702000D01*
X177900000Y-98702001D01*
X178092107Y-98663788D01*
X178254968Y-98554968D01*
X178689968Y-98119968D01*
X178744174Y-98038842D01*
X178774708Y-98033097D01*
X178903020Y-97950530D01*
X178970288Y-97852081D01*
X178985395Y-97888553D01*
X179091447Y-97994605D01*
X179230010Y-98052000D01*
X179383750Y-98052000D01*
X179478000Y-97957750D01*
X179478000Y-97027000D01*
X179458000Y-97027000D01*
X179458000Y-96773000D01*
X179478000Y-96773000D01*
X179478000Y-95842250D01*
X179383750Y-95748000D01*
X179230010Y-95748000D01*
X179091447Y-95805395D01*
X178985395Y-95911447D01*
X178969802Y-95949091D01*
X178910530Y-95856980D01*
X178837000Y-95806739D01*
X178837000Y-95420524D01*
X178873598Y-95383990D01*
X178976882Y-95135254D01*
X178977117Y-94865927D01*
X178874267Y-94617011D01*
X178683990Y-94426402D01*
X178435254Y-94323118D01*
X178165927Y-94322883D01*
X177917011Y-94425733D01*
X177726402Y-94616010D01*
X177623118Y-94864746D01*
X177622883Y-95134073D01*
X177725733Y-95382989D01*
X177833000Y-95490443D01*
X177833000Y-95806987D01*
X177766980Y-95849470D01*
X177699370Y-95948420D01*
X177640530Y-95856980D01*
X177514547Y-95770899D01*
X177365000Y-95740615D01*
X176765000Y-95740615D01*
X176625292Y-95766903D01*
X176496980Y-95849470D01*
X176429712Y-95947919D01*
X176414605Y-95911447D01*
X176308553Y-95805395D01*
X176169990Y-95748000D01*
X176016250Y-95748000D01*
X175922000Y-95842250D01*
X175922000Y-96773000D01*
X175942000Y-96773000D01*
X175942000Y-97027000D01*
X175922000Y-97027000D01*
X175922000Y-97047000D01*
X175668000Y-97047000D01*
X175668000Y-97027000D01*
X175212250Y-97027000D01*
X175118000Y-97121250D01*
X175118000Y-97749990D01*
X175154455Y-97838000D01*
X174975999Y-97838000D01*
X174755324Y-97507735D01*
X174373477Y-97252594D01*
X173923059Y-97163000D01*
X173876941Y-97163000D01*
X173426523Y-97252594D01*
X173044676Y-97507735D01*
X172789535Y-97889582D01*
X172699941Y-98340000D01*
X168402000Y-98340000D01*
X168402000Y-96021250D01*
X172723000Y-96021250D01*
X172723000Y-96674990D01*
X172780395Y-96813553D01*
X172886447Y-96919605D01*
X173025010Y-96977000D01*
X173678750Y-96977000D01*
X173773000Y-96882750D01*
X173773000Y-95927000D01*
X174027000Y-95927000D01*
X174027000Y-96882750D01*
X174121250Y-96977000D01*
X174774990Y-96977000D01*
X174913553Y-96919605D01*
X175019605Y-96813553D01*
X175077000Y-96674990D01*
X175077000Y-96050010D01*
X175118000Y-96050010D01*
X175118000Y-96678750D01*
X175212250Y-96773000D01*
X175668000Y-96773000D01*
X175668000Y-95842250D01*
X175573750Y-95748000D01*
X175420010Y-95748000D01*
X175281447Y-95805395D01*
X175175395Y-95911447D01*
X175118000Y-96050010D01*
X175077000Y-96050010D01*
X175077000Y-96021250D01*
X174982750Y-95927000D01*
X174027000Y-95927000D01*
X173773000Y-95927000D01*
X172817250Y-95927000D01*
X172723000Y-96021250D01*
X168402000Y-96021250D01*
X168402000Y-94925010D01*
X172723000Y-94925010D01*
X172723000Y-95578750D01*
X172817250Y-95673000D01*
X173773000Y-95673000D01*
X173773000Y-94717250D01*
X174027000Y-94717250D01*
X174027000Y-95673000D01*
X174982750Y-95673000D01*
X175077000Y-95578750D01*
X175077000Y-94925010D01*
X175019605Y-94786447D01*
X174913553Y-94680395D01*
X174774990Y-94623000D01*
X174121250Y-94623000D01*
X174027000Y-94717250D01*
X173773000Y-94717250D01*
X173678750Y-94623000D01*
X173025010Y-94623000D01*
X172886447Y-94680395D01*
X172780395Y-94786447D01*
X172723000Y-94925010D01*
X168402000Y-94925010D01*
X168402000Y-91213289D01*
X172922813Y-91213289D01*
X173086431Y-91609275D01*
X173389132Y-91912504D01*
X173784832Y-92076813D01*
X174213289Y-92077187D01*
X174609275Y-91913569D01*
X174912504Y-91610868D01*
X175076813Y-91215168D01*
X175077000Y-91000000D01*
X180521900Y-91000000D01*
X180603882Y-91412150D01*
X180837346Y-91761554D01*
X181186750Y-91995018D01*
X181598900Y-92077000D01*
X181641100Y-92077000D01*
X182053250Y-91995018D01*
X182402654Y-91761554D01*
X182636118Y-91412150D01*
X182718100Y-91000000D01*
X182636118Y-90587850D01*
X182402654Y-90238446D01*
X182053250Y-90004982D01*
X181641100Y-89923000D01*
X181598900Y-89923000D01*
X181186750Y-90004982D01*
X180837346Y-90238446D01*
X180603882Y-90587850D01*
X180521900Y-91000000D01*
X175077000Y-91000000D01*
X175077187Y-90786711D01*
X174913569Y-90390725D01*
X174610868Y-90087496D01*
X174215168Y-89923187D01*
X173786711Y-89922813D01*
X173390725Y-90086431D01*
X173087496Y-90389132D01*
X172923187Y-90784832D01*
X172922813Y-91213289D01*
X168402000Y-91213289D01*
X168402000Y-88600000D01*
X168393318Y-88556352D01*
X182834472Y-88556352D01*
X183045778Y-88985953D01*
X183405400Y-89301989D01*
X183703649Y-89425518D01*
X183893000Y-89365608D01*
X183893000Y-88367000D01*
X182893829Y-88367000D01*
X182834472Y-88556352D01*
X168393318Y-88556352D01*
X168381711Y-88497999D01*
X168363788Y-88407892D01*
X168254968Y-88245032D01*
X167933584Y-87923648D01*
X182834472Y-87923648D01*
X182893829Y-88113000D01*
X183893000Y-88113000D01*
X183893000Y-87114392D01*
X183703649Y-87054482D01*
X183405400Y-87178011D01*
X183045778Y-87494047D01*
X182834472Y-87923648D01*
X167933584Y-87923648D01*
X166977000Y-86967064D01*
X166977000Y-86220084D01*
X166887406Y-85769666D01*
X166632265Y-85387819D01*
X166250418Y-85132678D01*
X165800000Y-85043084D01*
X165349582Y-85132678D01*
X164967735Y-85387819D01*
X164712594Y-85769666D01*
X164623000Y-86220084D01*
X164437000Y-86220084D01*
X164347406Y-85769666D01*
X164092265Y-85387819D01*
X163710418Y-85132678D01*
X163260000Y-85043084D01*
X162809582Y-85132678D01*
X162427735Y-85387819D01*
X162172594Y-85769666D01*
X162083000Y-86220084D01*
X161897000Y-86220084D01*
X161897000Y-86123000D01*
X161758805Y-85682249D01*
X161462462Y-85327933D01*
X161028485Y-85114145D01*
X160847000Y-85174724D01*
X160593000Y-85174724D01*
X160411515Y-85114145D01*
X159977538Y-85327933D01*
X159681195Y-85682249D01*
X159543000Y-86123000D01*
X159337689Y-86123000D01*
X159267406Y-85769666D01*
X159012265Y-85387819D01*
X158630418Y-85132678D01*
X158180000Y-85043084D01*
X157729582Y-85132678D01*
X157347735Y-85387819D01*
X157092594Y-85769666D01*
X157003000Y-86220084D01*
X156817000Y-86220084D01*
X156727406Y-85769666D01*
X156472265Y-85387819D01*
X156090418Y-85132678D01*
X155640000Y-85043084D01*
X155189582Y-85132678D01*
X154807735Y-85387819D01*
X154552594Y-85769666D01*
X154463000Y-86220084D01*
X152819140Y-86220084D01*
X155087224Y-83952000D01*
X210312776Y-83952000D01*
X217048000Y-90687224D01*
G36*
X186715615Y-89550000D02*
X186715615Y-91250000D01*
X186741903Y-91389708D01*
X186824470Y-91518020D01*
X186950453Y-91604101D01*
X187100000Y-91634385D01*
X188255679Y-91634385D01*
X187077076Y-92812988D01*
X187077117Y-92765927D01*
X186974267Y-92517011D01*
X186783990Y-92326402D01*
X186535254Y-92223118D01*
X186432964Y-92223029D01*
X185902000Y-91692064D01*
X185902000Y-91634385D01*
X186100000Y-91634385D01*
X186239708Y-91608097D01*
X186368020Y-91525530D01*
X186454101Y-91399547D01*
X186484385Y-91250000D01*
X186484385Y-89550000D01*
X186469919Y-89473120D01*
X186560000Y-89491038D01*
X186734588Y-89456310D01*
X186715615Y-89550000D01*
X186715615Y-89550000D01*
G37*
X186715615Y-89550000D02*
X186715615Y-91250000D01*
X186741903Y-91389708D01*
X186824470Y-91518020D01*
X186950453Y-91604101D01*
X187100000Y-91634385D01*
X188255679Y-91634385D01*
X187077076Y-92812988D01*
X187077117Y-92765927D01*
X186974267Y-92517011D01*
X186783990Y-92326402D01*
X186535254Y-92223118D01*
X186432964Y-92223029D01*
X185902000Y-91692064D01*
X185902000Y-91634385D01*
X186100000Y-91634385D01*
X186239708Y-91608097D01*
X186368020Y-91525530D01*
X186454101Y-91399547D01*
X186484385Y-91250000D01*
X186484385Y-89550000D01*
X186469919Y-89473120D01*
X186560000Y-89491038D01*
X186734588Y-89456310D01*
X186715615Y-89550000D01*
M02*
