G04 #@! TF.FileFunction,Soldermask,Bot*
%FSLAX46Y46*%
G04 Gerber Fmt 4.6, Leading zero omitted, Abs format (unit mm)*
G04 Created by KiCad (PCBNEW 4.0.7-e2-6376~58~ubuntu14.04.1) date Mon Mar 25 04:59:34 2019*
%MOMM*%
%LPD*%
G01*
G04 APERTURE LIST*
%ADD10C,0.100000*%
%ADD11R,2.000000X2.000000*%
%ADD12O,2.000000X2.000000*%
%ADD13O,2.000000X2.700000*%
%ADD14C,1.900000*%
%ADD15C,1.300000*%
%ADD16C,1.800000*%
%ADD17O,1.800000X1.800000*%
%ADD18R,2.100000X2.100000*%
%ADD19O,2.100000X2.100000*%
%ADD20R,1.800000X2.100000*%
%ADD21R,2.200000X2.200000*%
%ADD22C,2.200000*%
%ADD23C,2.100000*%
G04 APERTURE END LIST*
D10*
D11*
X173900000Y-95800000D03*
D12*
X181520000Y-103420000D03*
X173900000Y-98340000D03*
X181520000Y-100880000D03*
X173900000Y-100880000D03*
X181520000Y-98340000D03*
X173900000Y-103420000D03*
X181520000Y-95800000D03*
D13*
X165800000Y-86600000D03*
X163260000Y-86600000D03*
X160720000Y-86600000D03*
X158180000Y-86600000D03*
X155640000Y-86600000D03*
X155640000Y-94220000D03*
X158180000Y-94220000D03*
X160720000Y-94220000D03*
X163260000Y-94220000D03*
X165800000Y-94220000D03*
D11*
X196550000Y-90000000D03*
X194250000Y-90000000D03*
D14*
X209400000Y-89200000D03*
X204520000Y-89200000D03*
D15*
X212900000Y-100200000D03*
X212900000Y-95800000D03*
D16*
X174000000Y-91000000D03*
D17*
X181620000Y-91000000D03*
D18*
X189100000Y-85700000D03*
D19*
X189100000Y-88240000D03*
X186560000Y-85700000D03*
X186560000Y-88240000D03*
X184020000Y-85700000D03*
X184020000Y-88240000D03*
D20*
X187800000Y-90400000D03*
X185400000Y-90400000D03*
D18*
X153000000Y-98000000D03*
D19*
X153000000Y-100540000D03*
D21*
X206200000Y-106700000D03*
D22*
X206200000Y-104160000D03*
D23*
X156800000Y-97300000D03*
X164800000Y-97300000D03*
M02*
