M48
;DRILL file {KiCad 4.0.7-e2-6376~58~ubuntu14.04.1} date Mon Mar 25 04:59:51 2019
;FORMAT={-:-/ absolute / inch / decimal}
FMAT,2
INCH,TZ
T1C0.016
T2C0.028
T3C0.031
T4C0.035
T5C0.039
T6C0.035
%
G90
G05
M72
T1
X6.2835Y-4.0039
X6.9016Y-3.4882
X6.9213Y-4.1063
X7.0197Y-3.7402
X7.3346Y-3.7559
X7.3386Y-3.6575
X7.374Y-3.626
X7.3898Y-3.7087
X7.4213Y-4.1654
X7.5827Y-3.5709
X7.5866Y-3.7559
X7.5906Y-3.437
X7.6024Y-4.1811
X7.626Y-3.3819
X7.6417Y-3.6614
X7.6929Y-3.7874
X7.7756Y-3.6614
X7.7835Y-3.9252
X7.8228Y-3.3583
X8.2008Y-3.8031
X8.2008Y-3.8898
T2
X6.8504Y-3.5827
X7.1504Y-3.5827
T3
X6.1732Y-3.8307
X6.4882Y-3.8307
X6.8465Y-3.7717
X6.8465Y-3.8717
X6.8465Y-3.9717
X6.8465Y-4.0717
X7.1465Y-3.7717
X7.1465Y-3.8717
X7.1465Y-3.9717
X7.1465Y-4.0717
X8.052Y-3.5118
X8.2441Y-3.5118
T4
X8.1181Y-4.1008
X8.1181Y-4.2008
T5
X6.0236Y-3.8583
X6.0236Y-3.9583
X6.1276Y-3.4094
X6.1276Y-3.7094
X6.2276Y-3.4094
X6.2276Y-3.7094
X6.3276Y-3.4094
X6.3276Y-3.7094
X6.4276Y-3.4094
X6.4276Y-3.7094
X6.5276Y-3.4094
X6.5276Y-3.7094
X7.2449Y-3.374
X7.2449Y-3.474
X7.3449Y-3.374
X7.3449Y-3.474
X7.4449Y-3.374
X7.4449Y-3.474
T6
X8.3819Y-3.7717
X8.3819Y-3.9449
T0
M30
